<svg width="135" height="40" viewBox="0 0 135 40" fill="none" xmlns="http://www.w3.org/2000/svg">
<path d="M0 5.33333C0 2.38781 2.38899 0 5.33597 0H129.664C132.611 0 135 2.38782 135 5.33333V34.6667C135 37.6122 132.611 40 129.664 40H5.33597C2.38899 40 0 37.6122 0 34.6667V5.33333Z" fill="black"/>
<path fill-rule="evenodd" clip-rule="evenodd" d="M0 34.6667V5.33333C0 2.38782 2.38899 0 5.33597 0H129.664C132.611 0 135 2.38781 135 5.33333V34.6667C135 37.6122 132.611 40 129.664 40H5.33597C2.38899 40 0 37.6122 0 34.6667ZM0.800395 34.6667V5.33333C0.800395 2.82964 2.83104 0.8 5.33597 0.8H129.664C132.169 0.8 134.2 2.82964 134.2 5.33333V34.6667C134.2 37.1704 132.169 39.2 129.664 39.2H5.33597C2.83104 39.2 0.800395 37.1704 0.800395 34.6667Z" fill="white" fill-opacity="0.3"/>
<path d="M30.5069 20.8146C30.4931 18.4703 31.5558 16.7034 33.7019 15.4006C32.5016 13.6818 30.6857 12.7365 28.292 12.5543C26.0256 12.3756 23.5459 13.8743 22.638 13.8743C21.6785 13.8743 19.4842 12.6162 17.7578 12.6162C14.1948 12.6712 10.4082 15.4556 10.4082 21.1206C10.4082 22.7946 10.7143 24.5237 11.3265 26.3043C12.145 28.6487 15.0958 34.3928 18.1739 34.3C19.7835 34.2621 20.9218 33.1587 23.0163 33.1587C25.0489 33.1587 26.1013 34.3 27.8965 34.3C31.0021 34.2553 33.6709 29.0337 34.4482 26.6825C30.2833 24.7196 30.5069 20.935 30.5069 20.8146ZM26.8923 10.3303C28.636 8.26089 28.4778 6.37714 28.4262 5.69995C26.8854 5.78933 25.1039 6.74839 24.0893 7.92745C22.9716 9.19245 22.3147 10.7565 22.4557 12.52C24.1203 12.6471 25.6404 11.7912 26.8923 10.3303Z" fill="white"/>
<path d="M49.2922 28.946H47.5258L46.5582 25.893H43.1949L42.2732 28.946H40.5535L43.8856 18.5521H45.9437L49.2922 28.946ZM46.2665 24.6121L45.3914 21.898C45.2989 21.6207 45.1254 20.9678 44.8695 19.94H44.8384C44.7365 20.382 44.5724 21.035 44.3468 21.898L43.4874 24.6121H46.2665Z" fill="white"/>
<path d="M57.8613 25.1065C57.8613 26.3812 57.5183 27.3887 56.8323 28.1283C56.2178 28.7867 55.4547 29.1156 54.5439 29.1156C53.5608 29.1156 52.8545 28.761 52.4244 28.0518H52.3933V31.9999H50.735V23.9186C50.735 23.1172 50.714 22.2948 50.6735 21.4513H52.1319L52.2245 22.6393H52.2556C52.8086 21.7442 53.6479 21.2974 54.7742 21.2974C55.6546 21.2974 56.3897 21.6466 56.9777 22.3456C57.5673 23.0454 57.8613 23.9654 57.8613 25.1065ZM56.1719 25.1675C56.1719 24.438 56.0086 23.8366 55.6803 23.3633C55.3217 22.8697 54.8403 22.6229 54.2367 22.6229C53.8276 22.6229 53.4558 22.7603 53.1237 23.0313C52.7907 23.3047 52.573 23.6616 52.4711 24.1037C52.4197 24.3099 52.3941 24.4786 52.3941 24.6114V25.861C52.3941 26.4062 52.5605 26.8662 52.8934 27.2419C53.2263 27.6175 53.6588 27.805 54.1908 27.805C54.8154 27.805 55.3015 27.5629 55.6492 27.0802C55.9977 26.5967 56.1719 25.9594 56.1719 25.1675Z" fill="white"/>
<path d="M66.4463 25.1065C66.4463 26.3812 66.1033 27.3887 65.4165 28.1283C64.8028 28.7867 64.0397 29.1156 63.1289 29.1156C62.1458 29.1156 61.4395 28.761 61.0102 28.0518H60.979V31.9999H59.3208V23.9186C59.3208 23.1172 59.2998 22.2948 59.2593 21.4513H60.7177L60.8103 22.6393H60.8414C61.3936 21.7442 62.2329 21.2974 63.3599 21.2974C64.2396 21.2974 64.9747 21.6466 65.5642 22.3456C66.1515 23.0454 66.4463 23.9654 66.4463 25.1065ZM64.7569 25.1675C64.7569 24.438 64.5928 23.8366 64.2645 23.3633C63.9059 22.8697 63.426 22.6229 62.8217 22.6229C62.4118 22.6229 62.0408 22.7603 61.7079 23.0313C61.375 23.3047 61.1579 23.6616 61.056 24.1037C61.0055 24.3099 60.979 24.4786 60.979 24.6114V25.861C60.979 26.4062 61.1455 26.8662 61.4768 27.2419C61.8097 27.6168 62.2422 27.805 62.7758 27.805C63.4004 27.805 63.8865 27.5629 64.2342 27.0802C64.5826 26.5967 64.7569 25.9594 64.7569 25.1675Z" fill="white"/>
<path d="M76.0446 26.0313C76.0446 26.9155 75.7389 27.6348 75.1252 28.1901C74.4509 28.797 73.5121 29.1 72.3057 29.1C71.1918 29.1 70.2989 28.8844 69.623 28.4525L70.0072 27.0646C70.7353 27.5067 71.5341 27.7285 72.4045 27.7285C73.029 27.7285 73.5152 27.5864 73.8644 27.3036C74.2121 27.0209 74.3855 26.6413 74.3855 26.168C74.3855 25.7463 74.2424 25.3909 73.9554 25.1027C73.6699 24.8145 73.1931 24.5466 72.5273 24.299C70.715 23.6203 69.8097 22.6261 69.8097 21.3186C69.8097 20.4642 70.127 19.7636 70.7625 19.2184C71.3956 18.6725 72.2403 18.3999 73.2966 18.3999C74.2385 18.3999 75.021 18.5647 75.6456 18.8935L75.231 20.2509C74.6477 19.9323 73.9881 19.773 73.2499 19.773C72.6666 19.773 72.2108 19.9174 71.8841 20.2049C71.608 20.4618 71.4695 20.775 71.4695 21.146C71.4695 21.5568 71.6274 21.8966 71.9448 22.1637C72.2209 22.4105 72.7226 22.6776 73.4506 22.9658C74.3412 23.3259 74.9953 23.7468 75.4161 24.2295C75.8354 24.7106 76.0446 25.3128 76.0446 26.0313Z" fill="white"/>
<path d="M81.5271 22.7011H79.6993V26.3399C79.6993 27.2655 80.0213 27.7278 80.6669 27.7278C80.9632 27.7278 81.209 27.702 81.4035 27.6505L81.4493 28.915C81.1227 29.0376 80.6925 29.0993 80.1597 29.0993C79.5048 29.0993 78.993 28.8986 78.6236 28.4979C78.2557 28.0965 78.0705 27.4232 78.0705 26.4774V22.6996H76.9816V21.4499H78.0705V20.0776L79.6993 19.584V21.4499H81.5271V22.7011Z" fill="white"/>
<path d="M89.7743 25.137C89.7743 26.289 89.4461 27.2348 88.7912 27.9745C88.1044 28.736 87.1928 29.1156 86.0564 29.1156C84.9613 29.1156 84.0893 28.7508 83.4391 28.0213C82.7888 27.2919 82.4637 26.371 82.4637 25.2612C82.4637 24.0998 82.7982 23.1485 83.4694 22.4089C84.1391 21.6684 85.0429 21.2982 86.1793 21.2982C87.2745 21.2982 88.1557 21.663 88.8207 22.3932C89.457 23.1016 89.7743 24.0162 89.7743 25.137ZM88.0538 25.1909C88.0538 24.4997 87.9068 23.9069 87.6089 23.4125C87.2612 22.8142 86.7642 22.5159 86.1202 22.5159C85.4536 22.5159 84.9473 22.815 84.5996 23.4125C84.3017 23.9077 84.1547 24.5098 84.1547 25.2221C84.1547 25.9133 84.3017 26.5061 84.5996 26.9998C84.9581 27.598 85.459 27.8964 86.1054 27.8964C86.7385 27.8964 87.2356 27.5918 87.5941 26.9841C87.8998 26.4804 88.0538 25.8813 88.0538 25.1909Z" fill="white"/>
<path d="M95.1645 22.9157C95.0003 22.8853 94.8253 22.8697 94.6418 22.8697C94.0584 22.8697 93.6073 23.0907 93.2899 23.5335C93.0138 23.9241 92.8754 24.4177 92.8754 25.0136V28.9461H91.2178L91.2334 23.8116C91.2334 22.9478 91.2124 22.1613 91.1712 21.4521H92.6156L92.6762 22.8861H92.7221C92.8971 22.3932 93.1732 21.9965 93.5513 21.6989C93.9207 21.431 94.3197 21.2974 94.7499 21.2974C94.9031 21.2974 95.0416 21.3084 95.1645 21.3279V22.9157Z" fill="white"/>
<path d="M102.58 24.8442C102.58 25.1425 102.561 25.394 102.52 25.5994H97.5449C97.5644 26.3398 97.8047 26.9061 98.2667 27.2966C98.686 27.6457 99.2281 27.8207 99.8939 27.8207C100.631 27.8207 101.303 27.7027 101.907 27.4661L102.167 28.622C101.46 28.9313 100.627 29.0851 99.6645 29.0851C98.5071 29.0851 97.5986 28.7431 96.9375 28.0597C96.2779 27.3763 95.9473 26.4585 95.9473 25.3073C95.9473 24.1772 96.2545 23.236 96.8698 22.4854C97.5138 21.6841 98.3842 21.2834 99.4793 21.2834C100.555 21.2834 101.369 21.6841 101.922 22.4854C102.36 23.122 102.58 23.9093 102.58 24.8442ZM100.999 24.4122C101.01 23.9186 100.902 23.4922 100.677 23.1321C100.39 22.669 99.9491 22.4378 99.3557 22.4378C98.8135 22.4378 98.3725 22.6635 98.0357 23.1165C97.7596 23.4766 97.5955 23.9085 97.5449 24.4115H100.999V24.4122Z" fill="white"/>
<path d="M42.2625 11.9875H43.1171C43.9425 11.9875 44.4261 12.3584 44.4261 12.9834V12.9917C44.4261 13.5709 43.9175 13.95 43.1421 13.95C42.3501 13.95 41.8456 13.6375 41.7789 13.0834L41.7748 13.05H40.8618L40.866 13.1C40.9285 14.0917 41.8123 14.7667 43.1421 14.7667C44.4302 14.7667 45.3807 14.025 45.3807 13.0334V13.025C45.3807 12.2167 44.8846 11.6459 44.0801 11.5459V11.5125C44.7471 11.3584 45.1973 10.8 45.1973 10.1334V10.125C45.1973 9.19587 44.3719 8.5542 43.163 8.5542C41.904 8.5542 41.0828 9.17503 41.0202 10.1917L41.0161 10.25H41.9123L41.9165 10.1917C41.9874 9.67503 42.4251 9.37087 43.1338 9.37087C43.855 9.37087 44.2718 9.6917 44.2718 10.225V10.2334C44.2718 10.8084 43.8091 11.2042 43.0921 11.2042H42.2625V11.9875Z" fill="white"/>
<path d="M48.4 14.7459C48.9837 14.7459 49.4881 14.4459 49.7424 13.975H49.7632V14.6667H50.6637V11.6459C50.6637 10.7667 49.9842 10.2 48.9128 10.2C47.8331 10.2 47.1786 10.7792 47.1161 11.5334L47.1119 11.5792H47.9623L47.9707 11.5417C48.0457 11.1917 48.3667 10.9459 48.8878 10.9459C49.4464 10.9459 49.7632 11.2375 49.7632 11.7209V12.05L48.5668 12.1209C47.5288 12.1834 46.9368 12.65 46.9368 13.4125V13.4209C46.9368 14.2084 47.5246 14.7459 48.4 14.7459ZM47.8456 13.4V13.3917C47.8456 13.0209 48.1457 12.7834 48.6877 12.75L49.7632 12.6834V13.025C49.7632 13.5959 49.2796 14.025 48.646 14.025C48.1624 14.025 47.8456 13.7834 47.8456 13.4Z" fill="white"/>
<path d="M55.4589 11V10.2834H52.5533V14.6667H53.4537V11H55.4589Z" fill="white"/>
<path d="M57.1525 16.125H58.053V13.9292H58.0738C58.3323 14.4375 58.8367 14.7542 59.4578 14.7542C60.5584 14.7542 61.2796 13.875 61.2796 12.4792V12.475C61.2796 11.075 60.5625 10.2 59.4453 10.2C58.82 10.2 58.3364 10.5167 58.0738 11.0375H58.053V10.2834H57.1525V16.125ZM59.2119 13.9792C58.5324 13.9792 58.0488 13.3875 58.0488 12.4792V12.475C58.0488 11.5625 58.5282 10.9709 59.2119 10.9709C59.9206 10.9709 60.3624 11.5417 60.3624 12.475V12.4792C60.3624 13.4042 59.9206 13.9792 59.2119 13.9792Z" fill="white"/>
<path d="M63.3943 16.1292C64.253 16.1292 64.7116 15.7792 65.0368 14.8709L66.6709 10.2834H65.7204L64.6157 13.85H64.5865L63.4818 10.2834H62.5063L64.103 14.6709L64.0279 14.8792C63.8779 15.3042 63.6444 15.4167 63.2192 15.4167C63.0983 15.4167 62.9941 15.4 62.9232 15.3834V16.0875C63.0316 16.1084 63.2192 16.1292 63.3943 16.1292Z" fill="white"/>
<path d="M69.7653 14.7542C70.8408 14.7542 71.5536 14.2084 71.5536 13.3917V13.3834C71.5536 12.8709 71.2368 12.5209 70.6574 12.4042V12.3709C71.1284 12.2625 71.4328 11.8917 71.4328 11.4209V11.4125C71.4328 10.6625 70.8158 10.2 69.8069 10.2C68.819 10.2 68.1728 10.6667 68.0686 11.4459L68.0644 11.4792H68.9232L68.9273 11.45C68.994 11.1167 69.3234 10.9125 69.7944 10.9125C70.2697 10.9125 70.5532 11.1334 70.5532 11.5084V11.5167C70.5532 11.9084 70.2822 12.1084 69.7528 12.1084H69.1233V12.7625H69.7569C70.3656 12.7625 70.6574 12.9625 70.6574 13.3834V13.3917C70.6574 13.7917 70.3155 14.0375 69.7611 14.0375C69.265 14.0375 68.9399 13.8459 68.8398 13.4917L68.8273 13.45H67.9435L67.9477 13.4875C68.0352 14.2625 68.7398 14.7542 69.7653 14.7542Z" fill="white"/>
<path d="M73.2848 14.6667H74.1728L76.1863 11.5875H76.2238V14.6667H77.1201V10.2834H76.2321L74.2186 13.35H74.1769V10.2834H73.2848V14.6667Z" fill="white"/>
<path d="M82.3613 10.2834H78.7137V11H80.0852V14.6667H80.9898V11H82.3613V10.2834Z" fill="white"/>
<path d="M85.7475 14.7542C86.8105 14.7542 87.49 14.1209 87.6276 13.425L87.6401 13.3792H86.7813L86.7688 13.4125C86.6563 13.7417 86.3019 14.0167 85.7683 14.0167C85.0513 14.0167 84.5969 13.5334 84.5802 12.7042H87.6859V12.4C87.6859 11.0834 86.9314 10.2 85.7016 10.2C84.4719 10.2 83.6798 11.1167 83.6798 12.4875V12.4917C83.6798 13.875 84.4594 14.7542 85.7475 14.7542ZM85.7058 10.9375C86.2936 10.9375 86.723 11.3084 86.7938 12.0667H84.5928C84.6761 11.3334 85.1222 10.9375 85.7058 10.9375Z" fill="white"/>
<path d="M92.0738 14.6667H94.0914C95.0419 14.6667 95.6339 14.175 95.6339 13.4084V13.4C95.6339 12.8625 95.2587 12.4709 94.6917 12.3959V12.3625C95.1128 12.2834 95.4379 11.8709 95.4379 11.4167V11.4084C95.4379 10.7125 94.921 10.2834 94.0664 10.2834H92.0738V14.6667ZM92.9659 12.0917V10.95H93.8788C94.3124 10.95 94.5458 11.1459 94.5458 11.5084V11.5167C94.5458 11.9042 94.2957 12.0917 93.7871 12.0917H92.9659ZM92.9659 14V12.7459H93.8205C94.4124 12.7459 94.7084 12.9417 94.7084 13.3625V13.3709C94.7084 13.7875 94.4333 14 93.9247 14H92.9659Z" fill="white"/>
</svg>
