<svg width="134" height="40" viewBox="0 0 134 40" fill="none" xmlns="http://www.w3.org/2000/svg">
<path d="M0 5.33333C0 2.38781 2.3713 0 5.29644 0H128.704C131.629 0 134 2.38782 134 5.33333V34.6667C134 37.6122 131.629 40 128.704 40H5.29644C2.3713 40 0 37.6122 0 34.6667V5.33333Z" fill="white"/>
<path fill-rule="evenodd" clip-rule="evenodd" d="M0 34.6667V5.33333C0 2.38782 2.3713 0 5.29644 0H128.704C131.629 0 134 2.38781 134 5.33333V34.6667C134 37.6122 131.629 40 128.704 40H5.29644C2.3713 40 0 37.6122 0 34.6667ZM0.794466 34.6667V5.33333C0.794466 2.82964 2.81007 0.8 5.29644 0.8H128.704C131.19 0.8 133.206 2.82964 133.206 5.33333V34.6667C133.206 37.1704 131.19 39.2 128.704 39.2H5.29644C2.81007 39.2 0.794466 37.1704 0.794466 34.6667Z" fill="black" fill-opacity="0.1"/>
<path d="M30.281 20.8147C30.2673 18.4703 31.3222 16.7035 33.4523 15.4006C32.2609 13.6819 30.4585 12.7366 28.0825 12.5544C25.8329 12.3756 23.3716 13.8744 22.4704 13.8744C21.5179 13.8744 19.34 12.6163 17.6263 12.6163C14.0897 12.6713 10.3312 15.4556 10.3312 21.1206C10.3312 22.7947 10.635 24.5238 11.2426 26.3044C12.0551 28.6488 14.9841 34.3928 18.0394 34.3C19.637 34.2622 20.7669 33.1588 22.8459 33.1588C24.8634 33.1588 25.908 34.3 27.69 34.3C30.7726 34.2553 33.4216 29.0338 34.1931 26.6825C30.0591 24.7197 30.281 20.935 30.281 20.8147ZM26.6932 10.3303C28.4239 8.26095 28.2669 6.3772 28.2157 5.70001C26.6863 5.78939 24.918 6.74845 23.911 7.92751C22.8015 9.19251 22.1495 10.7566 22.2894 12.52C23.9417 12.6472 25.4506 11.7913 26.6932 10.3303Z" fill="black"/>
<path d="M41.9495 11.9875H42.7977C43.617 11.9875 44.097 12.3583 44.097 12.9833V12.9916C44.097 13.5708 43.5922 13.95 42.8225 13.95C42.0364 13.95 41.5357 13.6375 41.4695 13.0833L41.4653 13.05H40.5591L40.5633 13.1C40.6253 14.0916 41.5026 14.7666 42.8225 14.7666C44.1011 14.7666 45.0446 14.025 45.0446 13.0333V13.025C45.0446 12.2166 44.5522 11.6458 43.7536 11.5458V11.5125C44.4156 11.3583 44.8625 10.8 44.8625 10.1333V10.125C44.8625 9.1958 44.0432 8.55414 42.8432 8.55414C41.5936 8.55414 40.7784 9.17497 40.7164 10.1916L40.7122 10.25H41.6019L41.606 10.1916C41.6764 9.67497 42.1108 9.3708 42.8143 9.3708C43.5301 9.3708 43.9439 9.69164 43.9439 10.225V10.2333C43.9439 10.8083 43.4846 11.2041 42.7729 11.2041H41.9495V11.9875Z" fill="black"/>
<path d="M48.0415 14.7458C48.6208 14.7458 49.1215 14.4458 49.3739 13.975H49.3946V14.6666H50.2884V11.6458C50.2884 10.7666 49.6139 10.2 48.5505 10.2C47.4788 10.2 46.8291 10.7791 46.7671 11.5333L46.7629 11.5791H47.6071L47.6153 11.5416C47.6898 11.1916 48.0084 10.9458 48.5257 10.9458C49.0801 10.9458 49.3946 11.2375 49.3946 11.7208V12.05L48.207 12.1208C47.1767 12.1833 46.5891 12.65 46.5891 13.4125V13.4208C46.5891 14.2083 47.1726 14.7458 48.0415 14.7458ZM47.4912 13.4V13.3916C47.4912 13.0208 47.7891 12.7833 48.327 12.75L49.3946 12.6833V13.025C49.3946 13.5958 48.9146 14.025 48.2857 14.025C47.8057 14.025 47.4912 13.7833 47.4912 13.4Z" fill="black"/>
<path d="M55.0481 11V10.2833H52.164V14.6666H53.0578V11H55.0481Z" fill="black"/>
<path d="M56.7292 16.125H57.623V13.9291H57.6437C57.9002 14.4375 58.4009 14.7541 59.0174 14.7541C60.1098 14.7541 60.8257 13.875 60.8257 12.4791V12.475C60.8257 11.075 60.1139 10.2 59.005 10.2C58.3843 10.2 57.9043 10.5166 57.6437 11.0375H57.623V10.2833H56.7292V16.125ZM58.7733 13.9791C58.0988 13.9791 57.6188 13.3875 57.6188 12.4791V12.475C57.6188 11.5625 58.0947 10.9708 58.7733 10.9708C59.4767 10.9708 59.9153 11.5416 59.9153 12.475V12.4791C59.9153 13.4041 59.4767 13.9791 58.7733 13.9791Z" fill="black"/>
<path d="M62.9247 16.1291C63.7771 16.1291 64.2323 15.7791 64.555 14.8708L66.177 10.2833H65.2336L64.1371 13.85H64.1081L63.0116 10.2833H62.0433L63.6281 14.6708L63.5537 14.8791C63.4047 15.3041 63.173 15.4166 62.7509 15.4166C62.6309 15.4166 62.5275 15.4 62.4571 15.3833V16.0875C62.5647 16.1083 62.7509 16.1291 62.9247 16.1291Z" fill="black"/>
<path d="M69.2485 14.7541C70.3161 14.7541 71.0236 14.2083 71.0236 13.3916V13.3833C71.0236 12.8708 70.7091 12.5208 70.134 12.4041V12.3708C70.6016 12.2625 70.9036 11.8916 70.9036 11.4208V11.4125C70.9036 10.6625 70.2912 10.2 69.2899 10.2C68.3092 10.2 67.6678 10.6666 67.5644 11.4458L67.5602 11.4791H68.4126L68.4168 11.45C68.483 11.1166 68.8099 10.9125 69.2775 10.9125C69.7492 10.9125 70.0305 11.1333 70.0305 11.5083V11.5166C70.0305 11.9083 69.7616 12.1083 69.2361 12.1083H68.6113V12.7625H69.2402C69.8443 12.7625 70.134 12.9625 70.134 13.3833V13.3916C70.134 13.7916 69.7947 14.0375 69.2444 14.0375C68.7519 14.0375 68.4292 13.8458 68.3299 13.4916L68.3175 13.45H67.4403L67.4444 13.4875C67.5313 14.2625 68.2306 14.7541 69.2485 14.7541Z" fill="black"/>
<path d="M72.742 14.6666H73.6234L75.6219 11.5875H75.6592V14.6666H76.5488V10.2833H75.6674L73.6689 13.35H73.6275V10.2833H72.742V14.6666Z" fill="black"/>
<path d="M81.7512 10.2833H78.1306V11H79.492V14.6666H80.3899V11H81.7512V10.2833Z" fill="black"/>
<path d="M85.1123 14.7541C86.1675 14.7541 86.842 14.1208 86.9785 13.425L86.9909 13.3791H86.1385L86.1261 13.4125C86.0144 13.7416 85.6627 14.0166 85.133 14.0166C84.4213 14.0166 83.9703 13.5333 83.9537 12.7041H87.0364V12.4C87.0364 11.0833 86.2875 10.2 85.0668 10.2C83.8461 10.2 83.06 11.1166 83.06 12.4875V12.4916C83.06 13.875 83.8337 14.7541 85.1123 14.7541ZM85.071 10.9375C85.6544 10.9375 86.0806 11.3083 86.1509 12.0666H83.9661C84.0489 11.3333 84.4917 10.9375 85.071 10.9375Z" fill="black"/>
<path d="M91.3918 14.6666H93.3945C94.3379 14.6666 94.9255 14.175 94.9255 13.4083V13.4C94.9255 12.8625 94.5531 12.4708 93.9903 12.3958V12.3625C94.4083 12.2833 94.731 11.8708 94.731 11.4166V11.4083C94.731 10.7125 94.2179 10.2833 93.3697 10.2833H91.3918V14.6666ZM92.2773 12.0916V10.95H93.1834C93.6138 10.95 93.8455 11.1458 93.8455 11.5083V11.5166C93.8455 11.9041 93.5972 12.0916 93.0924 12.0916H92.2773ZM92.2773 14V12.7458H93.1255C93.7131 12.7458 94.0069 12.9416 94.0069 13.3625V13.3708C94.0069 13.7875 93.7338 14 93.229 14H92.2773Z" fill="black"/>
<path d="M48.927 28.9461H47.1736L46.2132 25.8931H42.8749L41.96 28.9461H40.253L43.5604 18.5522H45.6033L48.927 28.9461ZM45.9237 24.6122L45.0551 21.8981C44.9633 21.6209 44.7911 20.9679 44.5371 19.9401H44.5062C44.4051 20.3821 44.2422 21.0351 44.0183 21.8981L43.1652 24.6122H45.9237Z" fill="black"/>
<path d="M57.4326 25.1067C57.4326 26.3813 57.0921 27.3888 56.4112 28.1285C55.8013 28.7869 55.0439 29.1157 54.1398 29.1157C53.164 29.1157 52.4629 28.7611 52.036 28.0519H52.0051V32H50.3591V23.9187C50.3591 23.1174 50.3383 22.2949 50.2981 21.4514H51.7457L51.8376 22.6394H51.8685C52.4174 21.7443 53.2504 21.2976 54.3684 21.2976C55.2423 21.2976 55.9719 21.6467 56.5556 22.3457C57.1408 23.0455 57.4326 23.9656 57.4326 25.1067ZM55.7557 25.1676C55.7557 24.4381 55.5936 23.8367 55.2678 23.3634C54.9119 22.8698 54.434 22.623 53.8349 22.623C53.4288 22.623 53.0597 22.7604 52.7301 23.0315C52.3996 23.3048 52.1835 23.6617 52.0823 24.1038C52.0314 24.31 52.0059 24.4787 52.0059 24.6115V25.8611C52.0059 26.4063 52.1711 26.8663 52.5015 27.242C52.832 27.6177 53.2612 27.8051 53.7893 27.8051C54.4093 27.8051 54.8918 27.563 55.2369 27.0803C55.5828 26.5969 55.7557 25.9595 55.7557 25.1676Z" fill="black"/>
<path d="M65.954 25.1067C65.954 26.3813 65.6135 27.3888 64.9318 28.1285C64.3227 28.7869 63.5653 29.1157 62.6612 29.1157C61.6853 29.1157 60.9843 28.7611 60.5582 28.0519H60.5273V32H58.8813V23.9187C58.8813 23.1174 58.8604 22.2949 58.8203 21.4514H60.2679L60.3597 22.6394H60.3906C60.9388 21.7443 61.7718 21.2976 62.8905 21.2976C63.7637 21.2976 64.4933 21.6467 65.0785 22.3457C65.6614 23.0455 65.954 23.9656 65.954 25.1067ZM64.2771 25.1676C64.2771 24.4381 64.1142 23.8367 63.7884 23.3634C63.4325 22.8698 62.9561 22.623 62.3563 22.623C61.9494 22.623 61.5811 22.7604 61.2507 23.0315C60.9202 23.3048 60.7048 23.6617 60.6037 24.1038C60.5535 24.31 60.5273 24.4787 60.5273 24.6115V25.8611C60.5273 26.4063 60.6925 26.8663 61.0214 27.242C61.3518 27.6169 61.7811 27.8051 62.3107 27.8051C62.9307 27.8051 63.4132 27.563 63.7583 27.0803C64.1042 26.5969 64.2771 25.9595 64.2771 25.1676Z" fill="black"/>
<path d="M75.4812 26.0315C75.4812 26.9156 75.1778 27.6349 74.5687 28.1902C73.8993 28.7971 72.9674 29.1001 71.77 29.1001C70.6644 29.1001 69.7781 28.8846 69.1072 28.4527L69.4886 27.0648C70.2112 27.5068 71.0041 27.7286 71.868 27.7286C72.488 27.7286 72.9705 27.5865 73.3172 27.3038C73.6623 27.021 73.8344 26.6415 73.8344 26.1682C73.8344 25.7464 73.6924 25.391 73.4075 25.1028C73.1242 24.8146 72.6509 24.5467 71.99 24.2991C70.1912 23.6204 69.2925 22.6262 69.2925 21.3187C69.2925 20.4643 69.6075 19.7637 70.2382 19.2185C70.8667 18.6726 71.7051 18.4 72.7536 18.4C73.6885 18.4 74.4652 18.5648 75.0852 18.8936L74.6737 20.2511C74.0946 19.9324 73.4399 19.7731 72.7073 19.7731C72.1282 19.7731 71.6758 19.9176 71.3515 20.205C71.0775 20.4619 70.94 20.7751 70.94 21.1461C70.94 21.5569 71.0968 21.8967 71.4118 22.1638C71.6858 22.4106 72.1838 22.6777 72.9065 22.9659C73.7904 23.326 74.4397 23.747 74.8574 24.2296C75.2736 24.7107 75.4812 25.3129 75.4812 26.0315Z" fill="black"/>
<path d="M80.9231 22.7012H79.1088V26.3401C79.1088 27.2656 79.4285 27.7279 80.0693 27.7279C80.3634 27.7279 80.6074 27.7022 80.8004 27.6506L80.8459 28.9151C80.5217 29.0377 80.0947 29.0994 79.5659 29.0994C78.9158 29.0994 78.4078 28.8987 78.0411 28.498C77.6759 28.0966 77.4922 27.4233 77.4922 26.4775V22.6997H76.4113V21.45H77.4922V20.0778L79.1088 19.5841V21.45H80.9231V22.7012Z" fill="black"/>
<path d="M89.1093 25.1371C89.1093 26.2891 88.7835 27.235 88.1334 27.9746C87.4517 28.7361 86.5468 29.1157 85.4189 29.1157C84.3318 29.1157 83.4664 28.7509 82.8209 28.0215C82.1755 27.292 81.8528 26.3711 81.8528 25.2613C81.8528 24.0999 82.1848 23.1486 82.851 22.409C83.5158 21.6686 84.4129 21.2984 85.5409 21.2984C86.6279 21.2984 87.5026 21.6631 88.1627 22.3934C88.7943 23.1018 89.1093 24.0163 89.1093 25.1371ZM87.4015 25.191C87.4015 24.4998 87.2556 23.907 86.9599 23.4126C86.6148 22.8143 86.1214 22.516 85.4822 22.516C84.8205 22.516 84.3179 22.8151 83.9728 23.4126C83.6771 23.9078 83.5312 24.51 83.5312 25.2223C83.5312 25.9135 83.6771 26.5063 83.9728 26.9999C84.3287 27.5981 84.8259 27.8965 85.4675 27.8965C86.096 27.8965 86.5893 27.5919 86.9452 26.9843C87.2486 26.4805 87.4015 25.8814 87.4015 25.191Z" fill="black"/>
<path d="M94.4595 22.9159C94.2966 22.8854 94.1228 22.8698 93.9406 22.8698C93.3616 22.8698 92.9138 23.0908 92.5988 23.5337C92.3247 23.9242 92.1873 24.4178 92.1873 25.0137V28.9462H90.5421L90.5575 23.8117C90.5575 22.9479 90.5367 22.1614 90.4957 21.4522H91.9294L91.9897 22.8862H92.0352C92.2089 22.3934 92.483 21.9966 92.8582 21.699C93.2249 21.4311 93.621 21.2976 94.0479 21.2976C94.2 21.2976 94.3375 21.3085 94.4595 21.328V22.9159Z" fill="black"/>
<path d="M101.821 24.8443C101.821 25.1426 101.801 25.3941 101.76 25.5995H96.8223C96.8416 26.34 97.0802 26.9062 97.5388 27.2967C97.9549 27.6458 98.493 27.8208 99.1539 27.8208C99.885 27.8208 100.552 27.7028 101.152 27.4662L101.41 28.6221C100.709 28.9314 99.8811 29.0853 98.9261 29.0853C97.7773 29.0853 96.8756 28.7432 96.2193 28.0598C95.5646 27.3764 95.2365 26.4587 95.2365 25.3074C95.2365 24.1773 95.5415 23.2361 96.1522 22.4856C96.7914 21.6842 97.6553 21.2836 98.7424 21.2836C99.8101 21.2836 100.618 21.6842 101.167 22.4856C101.602 23.1221 101.821 23.9094 101.821 24.8443ZM100.251 24.4124C100.262 23.9188 100.154 23.4923 99.9313 23.1323C99.6464 22.6691 99.2087 22.4379 98.6196 22.4379C98.0815 22.4379 97.6438 22.6636 97.3095 23.1166C97.0354 23.4767 96.8725 23.9086 96.8223 24.4116H100.251V24.4124Z" fill="black"/>
</svg>
