<svg width="135" height="40" viewBox="0 0 135 40" fill="none" xmlns="http://www.w3.org/2000/svg">
<path d="M0 5.33333C0 2.38781 2.38899 0 5.33597 0H129.664C132.611 0 135 2.38782 135 5.33333V34.6667C135 37.6122 132.611 40 129.664 40H5.33597C2.38899 40 0 37.6122 0 34.6667V5.33333Z" fill="black"/>
<path fill-rule="evenodd" clip-rule="evenodd" d="M0 34.6667V5.33333C0 2.38782 2.38899 0 5.33597 0H129.664C132.611 0 135 2.38781 135 5.33333V34.6667C135 37.6122 132.611 40 129.664 40H5.33597C2.38899 40 0 37.6122 0 34.6667ZM0.800395 34.6667V5.33333C0.800395 2.82964 2.83104 0.8 5.33597 0.8H129.664C132.169 0.8 134.2 2.82964 134.2 5.33333V34.6667C134.2 37.1704 132.169 39.2 129.664 39.2H5.33597C2.83104 39.2 0.800395 37.1704 0.800395 34.6667Z" fill="white" fill-opacity="0.3"/>
<path d="M68.4032 21.7306C66.0008 21.7306 64.0159 23.6058 64.0159 26.177C64.0159 28.7272 65.98 30.6234 68.4035 30.6234C70.8267 30.6234 72.7906 28.7482 72.7906 26.177C72.7906 23.6058 70.8267 21.7306 68.4032 21.7306ZM68.4032 28.8541C67.0867 28.8541 65.9384 27.7368 65.9384 26.1572C65.9384 24.5556 67.0876 23.4602 68.4032 23.4602C69.7188 23.4602 70.8681 24.5556 70.8681 26.1572C70.8681 27.7368 69.7188 28.8541 68.4032 28.8541ZM58.8555 21.7306C56.4321 21.7306 54.4679 23.6058 54.4679 26.177C54.4679 28.7272 56.4321 30.6234 58.8555 30.6234C61.2788 30.6234 63.2429 28.7482 63.2429 26.177C63.2429 23.6058 61.2788 21.7306 58.8553 21.7306H58.8555ZM58.8555 28.8541C57.5388 28.8541 56.3906 27.7368 56.3906 26.1572C56.3906 24.5556 57.5399 23.4602 58.8555 23.4602C60.172 23.4602 61.3204 24.5556 61.3204 26.1572C61.3204 27.7368 60.1917 28.8541 58.8555 28.8541ZM47.5109 23.1005V24.9757H51.9397C51.8139 26.0293 51.4598 26.809 50.937 27.3363C50.2897 27.9893 49.2868 28.7062 47.5109 28.7062C44.7736 28.7062 42.6642 26.4726 42.6642 23.7117C42.6642 20.9509 44.7747 18.6751 47.5109 18.6751C48.9937 18.6751 50.06 19.2653 50.8538 20.0242L52.1694 18.6961C51.0617 17.6217 49.5789 16.8 47.5109 16.8C43.7707 16.8 40.6367 19.8973 40.6367 23.6697C40.6367 27.4424 43.7707 30.5397 47.5109 30.5397C49.5373 30.5397 51.042 29.8657 52.2535 28.6005C53.4861 27.3573 53.8622 25.6078 53.8622 24.1961C53.8622 23.7537 53.8208 23.3532 53.7574 23.0158L47.5109 23.1005ZM93.9336 24.5544C93.5781 23.5638 92.4506 21.7306 90.1934 21.7306C87.9365 21.7306 86.0774 23.5221 86.0774 26.177C86.0774 28.6633 87.9365 30.6234 90.4025 30.6234C92.408 30.6234 93.5573 29.3802 94.0375 28.6633L92.5547 27.6519C92.0528 28.3898 91.3846 28.8739 90.4025 28.8739C89.4204 28.8739 88.7314 28.4316 88.292 27.525L94.1208 25.0597L93.9336 24.5544ZM87.9999 26.0512C87.9585 24.3437 89.3166 23.4591 90.2767 23.4591C91.0499 23.4591 91.6767 23.8384 91.9061 24.4077L87.9999 26.0512ZM83.2572 30.3288H85.1797V17.3051H83.2572V30.3288ZM80.1241 22.7212H80.0617C79.6232 22.1939 78.8086 21.7306 77.7631 21.7306C75.5693 21.7306 73.5846 23.6907 73.5846 26.177C73.5846 28.6633 75.5902 30.6027 77.7631 30.6027C78.8074 30.6027 79.6223 30.1391 80.0617 29.5908H80.1241V30.2231C80.1241 31.9306 79.2251 32.836 77.7839 32.836C76.6138 32.836 75.8823 31.9723 75.5902 31.2554L73.9193 31.9723C74.3992 33.1526 75.6743 34.6065 77.7839 34.6065C80.04 34.6065 81.9416 33.2576 81.9416 29.9914V22.0042H80.1241V22.7212ZM77.9304 28.8541C76.6138 28.8541 75.5071 27.7368 75.5071 26.1782C75.5071 24.6195 76.6148 23.481 77.9304 23.481C79.2263 23.481 80.2706 24.6195 80.2706 26.1782C80.2696 27.7158 79.2251 28.8541 77.9304 28.8541ZM102.896 17.3054H98.3002V30.3288H100.223V25.3971H102.896C105.028 25.3971 107.117 23.8373 107.117 21.3512C107.117 18.865 105.028 17.3051 102.896 17.3051V17.3054ZM102.959 23.586H100.242V19.1174H102.959C104.379 19.1174 105.215 20.3187 105.215 21.351C105.195 22.3626 104.38 23.586 102.959 23.586ZM114.785 21.7096C113.406 21.7096 111.964 22.3208 111.379 23.7117L113.072 24.4287C113.448 23.7117 114.116 23.4801 114.827 23.4801C115.83 23.4801 116.833 24.0911 116.853 25.1654V25.2923C116.498 25.0817 115.768 24.7861 114.848 24.7861C113.01 24.7861 111.149 25.8187 111.149 27.7158C111.149 29.4651 112.654 30.5817 114.325 30.5817C115.621 30.5817 116.331 29.9914 116.769 29.2964H116.832V30.308H118.691V25.3131C118.67 23.0165 116.978 21.7093 114.785 21.7093V21.7096ZM114.555 28.8331C113.928 28.8331 113.05 28.5165 113.05 27.7377C113.05 26.7262 114.136 26.3468 115.076 26.3468C115.912 26.3468 116.309 26.5365 116.832 26.7892C116.685 27.9904 115.662 28.8331 114.555 28.8331ZM125.398 22.0054L123.204 27.6318H123.141L120.865 22.0052H118.797L122.223 29.8864L120.279 34.2911H122.285L127.528 22.0052H125.397L125.398 22.0054ZM108.183 30.3288H110.105V17.3051H108.183V30.3288Z" fill="white"/>
<path d="M46.445 11.2011V13.135H45.6456V12H41.9702V13.135H41.1709V11.2011H41.7685C41.9677 10.9223 42.1147 10.5216 42.2093 9.99896C42.3039 9.47131 42.3512 8.89887 42.3512 8.28162V6.65389H45.8548V11.2011H46.445ZM45.0181 11.2011V7.45282H43.1804V8.42349C43.1804 8.981 43.1356 9.49869 43.046 9.97656C42.9613 10.4544 42.8318 10.8626 42.6575 11.2011H45.0181Z" fill="white"/>
<path d="M49.8368 12.1195C49.3189 12.1195 48.8482 11.9975 48.4249 11.7536C48.0016 11.5047 47.6679 11.1662 47.4239 10.7382C47.1848 10.3101 47.0653 9.83967 47.0653 9.32696C47.0653 8.81425 47.1848 8.34634 47.4239 7.92322C47.6679 7.49514 48.0016 7.15665 48.4249 6.90776C48.8482 6.65887 49.3189 6.53442 49.8368 6.53442C50.3547 6.53442 50.8229 6.65887 51.2412 6.90776C51.6645 7.15665 51.9982 7.49514 52.2423 7.92322C52.4863 8.34634 52.6083 8.81425 52.6083 9.32696C52.6083 9.83967 52.4863 10.3101 52.2423 10.7382C52.0032 11.1662 51.672 11.5047 51.2487 11.7536C50.8254 11.9975 50.3547 12.1195 49.8368 12.1195ZM49.8368 11.3206C50.1904 11.3206 50.5141 11.2359 50.8079 11.0667C51.1018 10.8974 51.3334 10.6635 51.5027 10.3648C51.672 10.0612 51.7567 9.71522 51.7567 9.32696C51.7567 8.93869 51.672 8.59522 51.5027 8.29656C51.3334 7.99291 51.1018 7.75647 50.8079 7.58722C50.5141 7.41798 50.1904 7.33336 49.8368 7.33336C49.4832 7.33336 49.1595 7.41798 48.8657 7.58722C48.5718 7.75647 48.3377 7.99291 48.1634 8.29656C47.9941 8.59522 47.9094 8.93869 47.9094 9.32696C47.9094 9.71522 47.9941 10.0612 48.1634 10.3648C48.3377 10.6635 48.5718 10.8974 48.8657 11.0667C49.1595 11.2359 49.4832 11.3206 49.8368 11.3206Z" fill="white"/>
<path d="M56.0164 12.1195C55.4985 12.1195 55.0254 11.9975 54.597 11.7536C54.1687 11.5097 53.8326 11.1737 53.5886 10.7456C53.3445 10.3175 53.2225 9.84465 53.2225 9.32696C53.2225 8.80927 53.3445 8.33638 53.5886 7.90829C53.8326 7.4802 54.1687 7.1442 54.597 6.90029C55.0254 6.65638 55.4985 6.53442 56.0164 6.53442C56.4198 6.53442 56.7859 6.60909 57.1146 6.75842C57.4482 6.90776 57.7421 7.12429 57.9961 7.40802L57.3984 7.98296C57.2142 7.76394 57.01 7.60216 56.7859 7.49762C56.5618 7.38811 56.3053 7.33336 56.0164 7.33336C55.6578 7.33336 55.3291 7.41549 55.0303 7.57976C54.7365 7.74402 54.5024 7.97798 54.3281 8.28162C54.1538 8.58029 54.0667 8.92874 54.0667 9.32696C54.0667 9.72518 54.1538 10.0761 54.3281 10.3798C54.5024 10.6784 54.7365 10.9099 55.0303 11.0742C55.3291 11.2384 55.6578 11.3206 56.0164 11.3206C56.614 11.3206 57.122 11.0717 57.5404 10.5739L58.1455 11.1563C57.8865 11.4599 57.5752 11.6964 57.2117 11.8656C56.8481 12.0349 56.4497 12.1195 56.0164 12.1195Z" fill="white"/>
<path d="M60.1628 7.45282H58.6687V6.65389H62.4936V7.45282H60.9995V12H60.1628V7.45282Z" fill="white"/>
<path d="M63.8788 12.1195C63.6945 12.1195 63.5376 12.0871 63.4082 12.0224V11.2086C63.5725 11.2982 63.7219 11.343 63.8564 11.343C63.9908 11.343 64.0979 11.3181 64.1776 11.2683C64.2573 11.2135 64.3295 11.114 64.3942 10.9696L64.581 10.5814L62.8031 6.65389H63.7369L64.9844 9.61816H65.0292L66.2842 6.65389H67.218L65.1712 11.1488C65.0218 11.4823 64.84 11.7287 64.6258 11.888C64.4167 12.0423 64.1676 12.1195 63.8788 12.1195Z" fill="white"/>
<path d="M67.9434 6.65389H71.9251V12H71.0884V7.45282H68.78V12H67.9434V6.65389Z" fill="white"/>
<path d="M73.1449 6.65389H73.9816V8.87149H76.4617V6.65389H77.2909V12H76.4617V9.66296H73.9816V12H73.1449V6.65389Z" fill="white"/>
<path d="M80.9438 12.1195C80.4259 12.1195 79.9552 11.9975 79.5319 11.7536C79.1086 11.5047 78.7749 11.1662 78.5309 10.7382C78.2918 10.3101 78.1723 9.83967 78.1723 9.32696C78.1723 8.81425 78.2918 8.34634 78.5309 7.92322C78.7749 7.49514 79.1086 7.15665 79.5319 6.90776C79.9552 6.65887 80.4259 6.53442 80.9438 6.53442C81.4618 6.53442 81.9299 6.65887 82.3482 6.90776C82.7716 7.15665 83.1052 7.49514 83.3493 7.92322C83.5933 8.34634 83.7153 8.81425 83.7153 9.32696C83.7153 9.83967 83.5933 10.3101 83.3493 10.7382C83.1102 11.1662 82.779 11.5047 82.3557 11.7536C81.9324 11.9975 81.4618 12.1195 80.9438 12.1195ZM80.9438 11.3206C81.2974 11.3206 81.6211 11.2359 81.915 11.0667C82.2088 10.8974 82.4404 10.6635 82.6097 10.3648C82.779 10.0612 82.8637 9.71522 82.8637 9.32696C82.8637 8.93869 82.779 8.59522 82.6097 8.29656C82.4404 7.99291 82.2088 7.75647 81.915 7.58722C81.6211 7.41798 81.2974 7.33336 80.9438 7.33336C80.5902 7.33336 80.2665 7.41798 79.9727 7.58722C79.6788 7.75647 79.4448 7.99291 79.2705 8.29656C79.1011 8.59522 79.0165 8.93869 79.0165 9.32696C79.0165 9.71522 79.1011 10.0612 79.2705 10.3648C79.4448 10.6635 79.6788 10.8974 79.9727 11.0667C80.2665 11.2359 80.5902 11.3206 80.9438 11.3206Z" fill="white"/>
<path d="M86.4223 6.65389H88.4318C88.7157 6.65389 88.9771 6.71611 89.2162 6.84056C89.4602 6.965 89.6544 7.13674 89.7989 7.35576C89.9433 7.57478 90.0155 7.8162 90.0155 8.08002C90.0155 8.34385 89.9483 8.57282 89.8138 8.76696C89.6843 8.96109 89.5125 9.10794 89.2984 9.20749V9.25229C89.5673 9.34687 89.7839 9.50367 89.9483 9.72269C90.1176 9.94171 90.2023 10.1981 90.2023 10.4918C90.2023 10.7854 90.1251 11.0468 89.9707 11.2758C89.8213 11.5047 89.6171 11.6839 89.3581 11.8134C89.1041 11.9378 88.8252 12 88.5214 12H86.4223V6.65389ZM88.3944 8.89389C88.6335 8.89389 88.8252 8.81922 88.9697 8.66989C89.1191 8.52056 89.1938 8.34882 89.1938 8.15469C89.1938 7.96056 89.1216 7.79131 88.9771 7.64696C88.8377 7.49762 88.6534 7.42296 88.4243 7.42296H87.259V8.89389H88.3944ZM88.5214 11.2235C88.7754 11.2235 88.9771 11.1438 89.1265 10.9846C89.2809 10.8253 89.3581 10.6411 89.3581 10.432C89.3581 10.218 89.2784 10.0338 89.1191 9.87949C88.9647 9.7202 88.7555 9.64056 88.4916 9.64056H87.259V11.2235H88.5214Z" fill="white"/>
<path d="M28.4652 24.2884C31.6617 22.5179 34.0851 21.169 34.294 21.0642C34.962 20.7057 35.6521 19.7571 34.294 19.0203C33.8555 18.7887 31.4944 17.4815 28.4652 15.7961L24.2661 20.0737L28.465 24.2884H28.4652Z" fill="#FFD900"/>
<path d="M24.2662 20.0737L10.8953 33.6666C11.2089 33.7086 11.5632 33.6246 11.9812 33.3929C12.8582 32.9088 22.1555 27.7873 28.4655 24.2894L24.2662 20.0737Z" fill="#F43249"/>
<path d="M24.2661 20.0738L28.4649 15.817C28.4649 15.817 12.9214 7.26083 11.9808 6.75597C11.6269 6.54368 11.2298 6.48092 10.8745 6.54368L24.2661 20.0736V20.0738Z" fill="#00EE76"/>
<path d="M24.2662 20.0741L10.8745 6.54419C10.3309 6.67087 9.87158 7.1552 9.87158 8.14532V32.0651C9.87158 32.9719 10.2271 33.6249 10.895 33.6877L24.266 20.0738L24.2662 20.0741Z" fill="#00D3FF"/>
</svg>
