<svg width="135" height="40" viewBox="0 0 135 40" fill="none" xmlns="http://www.w3.org/2000/svg">
<path d="M0 5.33333C0 2.38781 2.38899 0 5.33597 0H129.664C132.611 0 135 2.38782 135 5.33333V34.6667C135 37.6122 132.611 40 129.664 40H5.33597C2.38899 40 0 37.6122 0 34.6667V5.33333Z" fill="white"/>
<path fill-rule="evenodd" clip-rule="evenodd" d="M0 34.6667V5.33333C0 2.38782 2.38899 0 5.33597 0H129.664C132.611 0 135 2.38781 135 5.33333V34.6667C135 37.6122 132.611 40 129.664 40H5.33597C2.38899 40 0 37.6122 0 34.6667ZM0.800395 34.6667V5.33333C0.800395 2.82964 2.83104 0.8 5.33597 0.8H129.664C132.169 0.8 134.2 2.82964 134.2 5.33333V34.6667C134.2 37.1704 132.169 39.2 129.664 39.2H5.33597C2.83104 39.2 0.800395 37.1704 0.800395 34.6667Z" fill="black" fill-opacity="0.1"/>
<path d="M68.4024 21.7305C66 21.7305 64.0151 23.6058 64.0151 26.1769C64.0151 28.7271 65.9792 30.6234 68.4027 30.6234C70.8259 30.6234 72.7898 28.7481 72.7898 26.1769C72.7898 23.6058 70.8259 21.7305 68.4024 21.7305ZM68.4024 28.854C67.0859 28.854 65.9376 27.7368 65.9376 26.1571C65.9376 24.5555 67.0868 23.4602 68.4024 23.4602C69.718 23.4602 70.8673 24.5555 70.8673 26.1571C70.8673 27.7368 69.718 28.854 68.4024 28.854ZM58.8547 21.7305C56.4313 21.7305 54.4671 23.6058 54.4671 26.1769C54.4671 28.7271 56.4313 30.6234 58.8547 30.6234C61.278 30.6234 63.2421 28.7481 63.2421 26.1769C63.2421 23.6058 61.278 21.7305 58.8545 21.7305H58.8547ZM58.8547 28.854C57.538 28.854 56.3899 27.7368 56.3899 26.1571C56.3899 24.5555 57.5391 23.4602 58.8547 23.4602C60.1712 23.4602 61.3196 24.5555 61.3196 26.1571C61.3196 27.7368 60.1909 28.854 58.8547 28.854ZM47.5101 23.1004V24.9757H51.9389C51.8131 26.0293 51.459 26.8089 50.9362 27.3362C50.2889 27.9892 49.286 28.7061 47.5101 28.7061C44.7728 28.7061 42.6634 26.4725 42.6634 23.7117C42.6634 20.9508 44.7739 18.675 47.5101 18.675C48.9929 18.675 50.0592 19.2652 50.853 20.0242L52.1686 18.696C51.0609 17.6217 49.5781 16.8 47.5101 16.8C43.7699 16.8 40.6359 19.8973 40.6359 23.6697C40.6359 27.4423 43.7699 30.5396 47.5101 30.5396C49.5365 30.5396 51.0412 29.8656 52.2528 28.6004C53.4853 27.3572 53.8614 25.6077 53.8614 24.196C53.8614 23.7537 53.82 23.3531 53.7566 23.0158L47.5101 23.1004ZM93.9328 24.5543C93.5773 23.5638 92.4498 21.7305 90.1926 21.7305C87.9357 21.7305 86.0766 23.522 86.0766 26.1769C86.0766 28.6632 87.9357 30.6234 90.4017 30.6234C92.4072 30.6234 93.5565 29.3801 94.0367 28.6632L92.5539 27.6518C92.052 28.3898 91.3838 28.8739 90.4017 28.8739C89.4197 28.8739 88.7306 28.4315 88.2912 27.5249L94.12 25.0597L93.9328 24.5543ZM87.9991 26.0512C87.9577 24.3437 89.3158 23.459 90.2759 23.459C91.0491 23.459 91.6759 23.8384 91.9053 24.4076L87.9991 26.0512ZM83.2564 30.3287H85.1789V17.3051H83.2564V30.3287ZM80.1234 22.7211H80.0609C79.6224 22.1938 78.8078 21.7305 77.7623 21.7305C75.5685 21.7305 73.5838 23.6907 73.5838 26.1769C73.5838 28.6632 75.5894 30.6026 77.7623 30.6026C78.8066 30.6026 79.6215 30.139 80.0609 29.5908H80.1234V30.223C80.1234 31.9305 79.2243 32.836 77.7832 32.836C76.6131 32.836 75.8815 31.9723 75.5894 31.2554L73.9185 31.9723C74.3984 33.1525 75.6735 34.6065 77.7832 34.6065C80.0392 34.6065 81.9408 33.2575 81.9408 29.9914V22.0042H80.1234V22.7211ZM77.9296 28.854C76.613 28.854 75.5063 27.7368 75.5063 26.1781C75.5063 24.6194 76.614 23.4809 77.9296 23.4809C79.2255 23.4809 80.2698 24.6194 80.2698 26.1781C80.2688 27.7158 79.2243 28.854 77.9296 28.854ZM102.896 17.3053H98.2994V30.3287H100.222V25.397H102.896C105.027 25.397 107.116 23.8372 107.116 21.3512C107.116 18.8649 105.027 17.3051 102.896 17.3051V17.3053ZM102.958 23.5859H100.242V19.1173H102.958C104.378 19.1173 105.214 20.3186 105.214 21.3509C105.194 22.3625 104.38 23.5859 102.958 23.5859ZM114.784 21.7095C113.405 21.7095 111.963 22.3208 111.378 23.7117L113.071 24.4286C113.447 23.7117 114.116 23.48 114.826 23.48C115.829 23.48 116.832 24.091 116.853 25.1654V25.2923C116.497 25.0816 115.767 24.786 114.847 24.786C113.009 24.786 111.149 25.8186 111.149 27.7158C111.149 29.465 112.653 30.5816 114.324 30.5816C115.62 30.5816 116.33 29.9914 116.768 29.2964H116.831V30.3079H118.69V25.313C118.669 23.0164 116.977 21.7093 114.784 21.7093V21.7095ZM114.554 28.833C113.927 28.833 113.049 28.5164 113.049 27.7377C113.049 26.7261 114.135 26.3468 115.076 26.3468C115.911 26.3468 116.308 26.5364 116.831 26.7891C116.685 27.9903 115.661 28.833 114.554 28.833ZM125.397 22.0053L123.203 27.6318H123.141L120.864 22.0051H118.796L122.222 29.8864L120.279 34.291H122.284L127.528 22.0051H125.397L125.397 22.0053ZM108.182 30.3287H110.104V17.3051H108.182V30.3287Z" fill="black"/>
<path d="M46.445 11.2012V13.135H45.6457V12.0001H41.9703V13.135H41.171V11.2012H41.7686C41.9678 10.9224 42.1147 10.5217 42.2093 9.99902C42.304 9.47137 42.3513 8.89893 42.3513 8.28168V6.65395H45.8549V11.2012H46.445ZM45.0182 11.2012V7.45288H43.1805V8.42355C43.1805 8.98106 43.1357 9.49875 43.046 9.97662C42.9614 10.4545 42.8319 10.8627 42.6576 11.2012H45.0182Z" fill="black"/>
<path d="M49.8369 12.1196C49.3189 12.1196 48.8483 11.9976 48.425 11.7537C48.0016 11.5048 47.668 11.1663 47.4239 10.7382C47.1849 10.3101 47.0654 9.83973 47.0654 9.32702C47.0654 8.81431 47.1849 8.3464 47.4239 7.92329C47.668 7.4952 48.0016 7.15671 48.425 6.90782C48.8483 6.65893 49.3189 6.53448 49.8369 6.53448C50.3548 6.53448 50.8229 6.65893 51.2413 6.90782C51.6646 7.15671 51.9983 7.4952 52.2423 7.92329C52.4863 8.3464 52.6084 8.81431 52.6084 9.32702C52.6084 9.83973 52.4863 10.3101 52.2423 10.7382C52.0033 11.1663 51.6721 11.5048 51.2488 11.7537C50.8254 11.9976 50.3548 12.1196 49.8369 12.1196ZM49.8369 11.3206C50.1905 11.3206 50.5142 11.236 50.808 11.0668C51.1018 10.8975 51.3334 10.6636 51.5028 10.3649C51.6721 10.0612 51.7567 9.71529 51.7567 9.32702C51.7567 8.93875 51.6721 8.59528 51.5028 8.29662C51.3334 7.99297 51.1018 7.75653 50.808 7.58729C50.5142 7.41804 50.1905 7.33342 49.8369 7.33342C49.4833 7.33342 49.1595 7.41804 48.8657 7.58729C48.5719 7.75653 48.3378 7.99297 48.1635 8.29662C47.9942 8.59528 47.9095 8.93875 47.9095 9.32702C47.9095 9.71529 47.9942 10.0612 48.1635 10.3649C48.3378 10.6636 48.5719 10.8975 48.8657 11.0668C49.1595 11.236 49.4833 11.3206 49.8369 11.3206Z" fill="black"/>
<path d="M56.0165 12.1196C55.4985 12.1196 55.0254 11.9976 54.5971 11.7537C54.1688 11.5098 53.8326 11.1738 53.5886 10.7457C53.3446 10.3176 53.2226 9.84471 53.2226 9.32702C53.2226 8.80933 53.3446 8.33644 53.5886 7.90835C53.8326 7.48026 54.1688 7.14426 54.5971 6.90035C55.0254 6.65644 55.4985 6.53448 56.0165 6.53448C56.4199 6.53448 56.7859 6.60915 57.1146 6.75849C57.4483 6.90782 57.7421 7.12435 57.9961 7.40809L57.3985 7.98302C57.2142 7.764 57.01 7.60222 56.7859 7.49768C56.5618 7.38817 56.3053 7.33342 56.0165 7.33342C55.6579 7.33342 55.3292 7.41555 55.0304 7.57982C54.7366 7.74409 54.5025 7.97804 54.3282 8.28168C54.1539 8.58035 54.0667 8.9288 54.0667 9.32702C54.0667 9.72524 54.1539 10.0762 54.3282 10.3798C54.5025 10.6785 54.7366 10.91 55.0304 11.0742C55.3292 11.2385 55.6579 11.3206 56.0165 11.3206C56.6141 11.3206 57.1221 11.0717 57.5404 10.574L58.1455 11.1564C57.8866 11.46 57.5753 11.6964 57.2117 11.8657C56.8482 12.0349 56.4498 12.1196 56.0165 12.1196Z" fill="black"/>
<path d="M60.1629 7.45288H58.6688V6.65395H62.4936V7.45288H60.9996V12.0001H60.1629V7.45288Z" fill="black"/>
<path d="M63.8789 12.1196C63.6946 12.1196 63.5377 12.0872 63.4082 12.0225V11.2086C63.5726 11.2982 63.722 11.343 63.8564 11.343C63.9909 11.343 64.098 11.3181 64.1777 11.2684C64.2573 11.2136 64.3296 11.114 64.3943 10.9697L64.5811 10.5814L62.8031 6.65395H63.7369L64.9845 9.61822H65.0293L66.2843 6.65395H67.2181L65.1712 11.1489C65.0218 11.4824 64.84 11.7288 64.6259 11.8881C64.4167 12.0424 64.1677 12.1196 63.8789 12.1196Z" fill="black"/>
<path d="M67.9434 6.65395H71.9251V12.0001H71.0884V7.45288H68.7801V12.0001H67.9434V6.65395Z" fill="black"/>
<path d="M73.1449 6.65395H73.9816V8.87155H76.4618V6.65395H77.291V12.0001H76.4618V9.66302H73.9816V12.0001H73.1449V6.65395Z" fill="black"/>
<path d="M80.9439 12.1196C80.4259 12.1196 79.9553 11.9976 79.532 11.7537C79.1087 11.5048 78.775 11.1663 78.531 10.7382C78.2919 10.3101 78.1724 9.83973 78.1724 9.32702C78.1724 8.81431 78.2919 8.3464 78.531 7.92329C78.775 7.4952 79.1087 7.15671 79.532 6.90782C79.9553 6.65893 80.4259 6.53448 80.9439 6.53448C81.4618 6.53448 81.93 6.65893 82.3483 6.90782C82.7716 7.15671 83.1053 7.4952 83.3493 7.92329C83.5934 8.3464 83.7154 8.81431 83.7154 9.32702C83.7154 9.83973 83.5934 10.3101 83.3493 10.7382C83.1103 11.1663 82.7791 11.5048 82.3558 11.7537C81.9325 11.9976 81.4618 12.1196 80.9439 12.1196ZM80.9439 11.3206C81.2975 11.3206 81.6212 11.236 81.915 11.0668C82.2089 10.8975 82.4404 10.6636 82.6098 10.3649C82.7791 10.0612 82.8638 9.71529 82.8638 9.32702C82.8638 8.93875 82.7791 8.59528 82.6098 8.29662C82.4404 7.99297 82.2089 7.75653 81.915 7.58729C81.6212 7.41804 81.2975 7.33342 80.9439 7.33342C80.5903 7.33342 80.2666 7.41804 79.9727 7.58729C79.6789 7.75653 79.4448 7.99297 79.2705 8.29662C79.1012 8.59528 79.0165 8.93875 79.0165 9.32702C79.0165 9.71529 79.1012 10.0612 79.2705 10.3649C79.4448 10.6636 79.6789 10.8975 79.9727 11.0668C80.2666 11.236 80.5903 11.3206 80.9439 11.3206Z" fill="black"/>
<path d="M86.4223 6.65395H88.4319C88.7157 6.65395 88.9772 6.71617 89.2162 6.84062C89.4603 6.96506 89.6545 7.1368 89.7989 7.35582C89.9434 7.57484 90.0156 7.81626 90.0156 8.08008C90.0156 8.34391 89.9483 8.57288 89.8139 8.76702C89.6844 8.96115 89.5126 9.108 89.2984 9.20755V9.25235C89.5674 9.34693 89.784 9.50373 89.9483 9.72275C90.1177 9.94177 90.2023 10.1981 90.2023 10.4918C90.2023 10.7855 90.1251 11.0468 89.9708 11.2758C89.8213 11.5048 89.6172 11.684 89.3582 11.8134C89.1042 11.9379 88.8253 12.0001 88.5215 12.0001H86.4223V6.65395ZM88.3945 8.89395C88.6336 8.89395 88.8253 8.81929 88.9697 8.66995C89.1191 8.52062 89.1938 8.34888 89.1938 8.15475C89.1938 7.96062 89.1216 7.79137 88.9772 7.64702C88.8377 7.49769 88.6535 7.42302 88.4244 7.42302H87.259V8.89395H88.3945ZM88.5215 11.2236C88.7755 11.2236 88.9772 11.1439 89.1266 10.9846C89.281 10.8253 89.3582 10.6412 89.3582 10.4321C89.3582 10.218 89.2785 10.0339 89.1191 9.87955C88.9647 9.72026 88.7556 9.64062 88.4916 9.64062H87.259V11.2236H88.5215Z" fill="black"/>
<path d="M28.4654 24.2886C31.6618 22.5181 34.0853 21.1691 34.2942 21.0644C34.9621 20.7058 35.6523 19.7572 34.2942 19.0204C33.8556 18.7888 31.4946 17.4816 28.4654 15.7963L24.2663 20.0738L28.4652 24.2886H28.4654Z" fill="#FFD900"/>
<path d="M24.2669 20.0738L10.8959 33.6667C11.2096 33.7087 11.5639 33.6247 11.9819 33.393C12.8589 32.9089 22.1561 27.7873 28.4662 24.2895L24.2669 20.0738Z" fill="#F43249"/>
<path d="M24.2662 20.0739L28.465 15.8172C28.465 15.8172 12.9216 7.26095 11.9809 6.75609C11.627 6.5438 11.2299 6.48104 10.8746 6.5438L24.2662 20.0737V20.0739Z" fill="#00EE76"/>
<path d="M24.2662 20.074L10.8745 6.54413C10.3309 6.67081 9.87158 7.15514 9.87158 8.14526V32.0651C9.87158 32.9719 10.2271 33.6249 10.895 33.6876L24.266 20.0738L24.2662 20.074Z" fill="#00D3FF"/>
</svg>
