<svg width="136" height="40" viewBox="0 0 136 40" fill="none" xmlns="http://www.w3.org/2000/svg">
<path d="M0 5.33333C0 2.38781 2.40669 0 5.37549 0H130.625C133.593 0 136 2.38782 136 5.33333V34.6667C136 37.6122 133.593 40 130.625 40H5.37549C2.40669 40 0 37.6122 0 34.6667V5.33333Z" fill="black"/>
<path fill-rule="evenodd" clip-rule="evenodd" d="M0 34.6667V5.33333C0 2.38782 2.40669 0 5.37549 0H130.624C133.593 0 136 2.38781 136 5.33333V34.6667C136 37.6122 133.593 40 130.624 40H5.37549C2.40669 40 0 37.6122 0 34.6667ZM0.806324 34.6667V5.33333C0.806324 2.82964 2.85201 0.8 5.37549 0.8H130.624C133.148 0.8 135.194 2.82964 135.194 5.33333V34.6667C135.194 37.1704 133.148 39.2 130.624 39.2H5.37549C2.85201 39.2 0.806324 37.1704 0.806324 34.6667Z" fill="white" fill-opacity="0.3"/>
<path fill-rule="evenodd" clip-rule="evenodd" d="M16.9746 7.33337C11.7289 7.33337 9.81028 9.23664 9.81028 14.4401V25.56C9.81028 30.7634 11.7289 32.6667 16.9746 32.6667H28.1762C33.4217 32.6667 35.3439 30.7634 35.3439 25.56V14.4401C35.3439 9.23664 33.4252 7.33337 28.1796 7.33337H16.9746Z" fill="url(#paint0_linear)"/>
<path fill-rule="evenodd" clip-rule="evenodd" d="M20.9479 22.0261H21.973L21.4587 20.8395L20.9479 22.0261ZM20.6955 22.6242L20.3913 23.3146H19.6989L21.1714 20.0002H21.7698L23.2363 23.3146H22.5254L22.2252 22.6242H20.6955ZM31.8376 23.3122H32.5068V20H31.8376V23.3122ZM29.174 21.8893H30.4076V21.2854H29.174V20.6066H30.9648V20.0024H28.505V23.3144H31.0292V22.7103H29.174V21.8893ZM26.5149 22.2807L25.7562 20H25.2026L24.4439 22.2807L23.7055 20.0018H22.9835L24.1487 23.3164H24.71L25.47 21.1392L26.2299 23.3164H26.7961L27.9583 20.0018H27.255L26.5149 22.2807ZM18.6773 21.8985C18.6773 22.4376 18.4075 22.7258 17.9174 22.7258C17.4247 22.7258 17.1534 22.4293 17.1534 21.8755V20.0022H16.4751V21.8985C16.4751 22.8312 16.9976 23.3661 17.9082 23.3661C18.8278 23.3661 19.355 22.821 19.355 21.8708V20.0002H18.6773V21.8985ZM14.8569 20.0002H15.5348V23.3166H14.8569V21.9697H13.3256V23.3166H12.6473V20.0002H13.3256V21.3379H14.8569V20.0002Z" fill="white"/>
<path fill-rule="evenodd" clip-rule="evenodd" d="M22.5771 15.7778C20.2303 15.7778 18.3215 13.8837 18.3215 11.5555H18.9226C18.9226 13.5547 20.5622 15.1812 22.5771 15.1812C24.592 15.1812 26.2316 13.5547 26.2316 11.5555H26.8327C26.8327 13.8837 24.9237 15.7778 22.5771 15.7778Z" fill="white"/>
<path d="M48.9779 29.8667L47.8283 26.6948H43.4265L42.3005 29.8667H40.3162L44.6234 18.3979H46.6707L50.978 29.8667H48.9779ZM47.3322 25.0854L46.2534 21.9761C46.1747 21.7677 46.0644 21.4396 45.9227 20.9917C45.7862 20.5438 45.6917 20.2157 45.6392 20.0073C45.4975 20.6479 45.2901 21.3485 45.0171 22.1089L43.9777 25.0854H47.3322Z" fill="white"/>
<path d="M56.4764 30.0229C55.374 30.0229 54.5183 29.6297 53.9094 28.8433H53.7991C53.8726 29.5724 53.9094 30.0151 53.9094 30.1714V33.7104H52.0589V21.2261H53.555C53.597 21.3875 53.6837 21.7729 53.8149 22.3823H53.9094C54.4868 21.5073 55.353 21.0698 56.5079 21.0698C57.5945 21.0698 58.4397 21.4604 59.0434 22.2417C59.6523 23.0229 59.9568 24.1193 59.9568 25.5308C59.9568 26.9422 59.6471 28.0438 59.0277 28.8354C58.4135 29.6271 57.563 30.0229 56.4764 30.0229ZM56.0276 22.5698C55.2926 22.5698 54.7546 22.7834 54.4133 23.2104C54.0774 23.6375 53.9094 24.3198 53.9094 25.2573V25.5308C53.9094 26.5828 54.0774 27.3459 54.4133 27.8198C54.7493 28.2886 55.2979 28.5229 56.0591 28.5229C56.6995 28.5229 57.1929 28.2625 57.5394 27.7417C57.8859 27.2209 58.0591 26.4787 58.0591 25.5151C58.0591 24.5464 57.8859 23.8146 57.5394 23.3198C57.1982 22.8198 56.6942 22.5698 56.0276 22.5698Z" fill="white"/>
<path d="M66.282 30.0229C65.1797 30.0229 64.324 29.6297 63.715 28.8433H63.6048C63.6783 29.5724 63.715 30.0151 63.715 30.1714V33.7104H61.8646V21.2261H63.3607C63.4027 21.3875 63.4893 21.7729 63.6206 22.3823H63.715C64.2925 21.5073 65.1587 21.0698 66.3135 21.0698C67.4002 21.0698 68.2454 21.4604 68.8491 22.2417C69.458 23.0229 69.7625 24.1193 69.7625 25.5308C69.7625 26.9422 69.4528 28.0438 68.8333 28.8354C68.2191 29.6271 67.3687 30.0229 66.282 30.0229ZM65.8332 22.5698C65.0983 22.5698 64.5602 22.7834 64.219 23.2104C63.883 23.6375 63.715 24.3198 63.715 25.2573V25.5308C63.715 26.5828 63.883 27.3459 64.219 27.8198C64.555 28.2886 65.1035 28.5229 65.8647 28.5229C66.5052 28.5229 66.9986 28.2625 67.3451 27.7417C67.6915 27.2209 67.8648 26.4787 67.8648 25.5151C67.8648 24.5464 67.6915 23.8146 67.3451 23.3198C67.0039 22.8198 66.4999 22.5698 65.8332 22.5698Z" fill="white"/>
<path d="M76.5759 23.6714H80.8123V29.4058C80.1193 29.6297 79.4526 29.7886 78.8122 29.8823C78.177 29.9761 77.4893 30.0229 76.7491 30.0229C75.0063 30.0229 73.6624 29.5125 72.7175 28.4917C71.7726 27.4657 71.3002 26.0203 71.3002 24.1558C71.3002 22.3172 71.833 20.8797 72.8986 19.8433C73.9643 18.8016 75.4315 18.2808 77.3003 18.2808C78.5025 18.2808 79.6416 18.5099 80.7178 18.9683L80.0563 20.5229C79.1219 20.0959 78.1875 19.8823 77.2531 19.8823C76.0247 19.8823 75.0536 20.2651 74.3396 21.0308C73.6257 21.7964 73.2687 22.8433 73.2687 24.1714C73.2687 25.5672 73.5889 26.6297 74.2294 27.3589C74.8751 28.0828 75.8016 28.4448 77.009 28.4448C77.6179 28.4448 78.2689 28.3693 78.9618 28.2183V25.2729H76.5759V23.6714Z" fill="white"/>
<path d="M88.5942 29.8667L88.2241 28.6636H88.1612C87.7412 29.1896 87.3186 29.549 86.8934 29.7417C86.4682 29.9292 85.9222 30.0229 85.2556 30.0229C84.3999 30.0229 83.7306 29.7938 83.2476 29.3354C82.7699 28.8771 82.5311 28.2287 82.5311 27.3901C82.5311 26.4995 82.8644 25.8276 83.5311 25.3745C84.1978 24.9214 85.2136 24.674 86.5784 24.6323L88.0824 24.5854V24.1245C88.0824 23.5724 87.9512 23.161 87.6887 22.8901C87.4315 22.6141 87.0299 22.4761 86.4839 22.4761C86.0377 22.4761 85.6099 22.5412 85.2004 22.6714C84.791 22.8016 84.3973 22.9552 84.0193 23.1323L83.4208 21.8198C83.8933 21.575 84.4104 21.3901 84.9721 21.2651C85.5338 21.1349 86.064 21.0698 86.5627 21.0698C87.6703 21.0698 88.505 21.3094 89.0667 21.7886C89.6336 22.2677 89.9171 23.0203 89.9171 24.0464V29.8667H88.5942ZM85.8382 28.6167C86.5102 28.6167 87.0483 28.4318 87.4525 28.062C87.8619 27.687 88.0667 27.1636 88.0667 26.4917V25.7417L86.9485 25.7886C86.0771 25.8198 85.4419 25.9657 85.0429 26.2261C84.6492 26.4813 84.4524 26.8745 84.4524 27.4058C84.4524 27.7912 84.5679 28.0907 84.7988 28.3042C85.0298 28.5125 85.3763 28.6167 85.8382 28.6167Z" fill="white"/>
<path d="M94.1084 29.8667H92.258V17.7104H94.1084V29.8667Z" fill="white"/>
<path d="M98.3706 29.8667H96.5202V17.7104H98.3706V29.8667Z" fill="white"/>
<path d="M104.586 30.0229C103.231 30.0229 102.171 29.6323 101.404 28.8511C100.643 28.0646 100.263 26.9839 100.263 25.6089C100.263 24.1974 100.617 23.0881 101.326 22.2808C102.034 21.4735 103.008 21.0698 104.247 21.0698C105.397 21.0698 106.305 21.4162 106.971 22.1089C107.638 22.8016 107.972 23.7547 107.972 24.9683V25.9604H102.168C102.194 26.799 102.423 27.4448 102.853 27.8979C103.284 28.3459 103.89 28.5698 104.672 28.5698C105.187 28.5698 105.664 28.5229 106.105 28.4292C106.552 28.3302 107.029 28.1688 107.538 27.9448V29.437C107.087 29.6505 106.63 29.8016 106.168 29.8901C105.706 29.9787 105.179 30.0229 104.586 30.0229ZM104.247 22.4604C103.659 22.4604 103.187 22.6453 102.83 23.0151C102.478 23.3849 102.268 23.924 102.2 24.6323H106.153C106.142 23.9188 105.969 23.3797 105.633 23.0151C105.297 22.6453 104.835 22.4604 104.247 22.4604Z" fill="white"/>
<path d="M114.25 21.0698C114.622 21.0698 114.929 21.0959 115.171 21.1479L114.99 22.8589C114.727 22.7964 114.454 22.7651 114.171 22.7651C113.431 22.7651 112.83 23.0047 112.368 23.4839C111.911 23.9631 111.683 24.5854 111.683 25.3511V29.8667H109.832V21.2261H111.281L111.525 22.7495H111.62C111.908 22.2339 112.284 21.825 112.746 21.5229C113.213 21.2209 113.714 21.0698 114.25 21.0698Z" fill="white"/>
<path d="M115.228 21.2261H117.244L119.016 26.1245C119.283 26.8224 119.462 27.4787 119.551 28.0933H119.614C119.661 27.8068 119.748 27.4604 119.874 27.0542C120 26.6427 120.667 24.7 121.874 21.2261H123.874L120.15 31.0151C119.472 32.812 118.344 33.7104 116.764 33.7104C116.354 33.7104 115.955 33.6662 115.567 33.5776V32.1245C115.845 32.187 116.163 32.2183 116.52 32.2183C117.412 32.2183 118.039 31.7052 118.401 30.6792L118.724 29.8667L115.228 21.2261Z" fill="white"/>
<path d="M46.1865 11.27C46.1865 12.1997 45.9515 12.9224 45.4817 13.438C45.0145 13.9536 44.3518 14.2114 43.4935 14.2114C42.6247 14.2114 41.9567 13.9562 41.4895 13.4458C41.0249 12.9328 40.7926 12.2049 40.7926 11.2622C40.7926 10.3195 41.0262 9.59554 41.4934 9.09033C41.9632 8.58512 42.6325 8.33252 43.5013 8.33252C44.357 8.33252 45.0184 8.58903 45.4857 9.10205C45.9529 9.61507 46.1865 10.3377 46.1865 11.27ZM41.7926 11.27C41.7926 11.9731 41.9357 12.507 42.2218 12.8716C42.5079 13.2336 42.9318 13.4146 43.4935 13.4146C44.0525 13.4146 44.4738 13.2349 44.7573 12.8755C45.0434 12.5161 45.1864 11.981 45.1864 11.27C45.1864 10.5695 45.0447 10.0382 44.7612 9.67627C44.4804 9.31429 44.0604 9.1333 43.5013 9.1333C42.937 9.1333 42.5105 9.31429 42.2218 9.67627C41.9357 10.0382 41.7926 10.5695 41.7926 11.27Z" fill="white"/>
<path d="M49.411 14.1333H48.47V9.22314H46.777V8.42236H51.1039V9.22314H49.411V14.1333Z" fill="white"/>
<path d="M56.4073 14.1333H55.3009L52.9308 11.2388V14.1333H51.9898V8.42236H52.9308V11.188L55.2615 8.42236H56.2931L53.9702 11.1802L56.4073 14.1333Z" fill="white"/>
<path d="M60.9822 10.1489C60.9822 10.7453 60.7853 11.2023 60.3916 11.52C59.9979 11.8377 59.4375 11.9966 58.7105 11.9966H58.112V14.1333H57.1711V8.42236H58.8286C59.5478 8.42236 60.0858 8.5682 60.4428 8.85986C60.8024 9.15153 60.9822 9.58122 60.9822 10.1489ZM58.112 11.2114H58.612C59.095 11.2114 59.4493 11.1281 59.6751 10.9614C59.9008 10.7948 60.0137 10.5343 60.0137 10.1802C60.0137 9.85205 59.9126 9.60726 59.7105 9.4458C59.5084 9.28434 59.1934 9.20361 58.7656 9.20361H58.112V11.2114Z" fill="white"/>
<path d="M67.2422 11.27C67.2422 12.1997 67.0073 12.9224 66.5375 13.438C66.0703 13.9536 65.4075 14.2114 64.5492 14.2114C63.6804 14.2114 63.0124 13.9562 62.5452 13.4458C62.0807 12.9328 61.8484 12.2049 61.8484 11.2622C61.8484 10.3195 62.082 9.59554 62.5492 9.09033C63.019 8.58512 63.6883 8.33252 64.5571 8.33252C65.4128 8.33252 66.0742 8.58903 66.5414 9.10205C67.0086 9.61507 67.2422 10.3377 67.2422 11.27ZM62.8484 11.27C62.8484 11.9731 62.9914 12.507 63.2775 12.8716C63.5636 13.2336 63.9875 13.4146 64.5492 13.4146C65.1083 13.4146 65.5296 13.2349 65.8131 12.8755C66.0992 12.5161 66.2422 11.981 66.2422 11.27C66.2422 10.5695 66.1005 10.0382 65.817 9.67627C65.5361 9.31429 65.1162 9.1333 64.5571 9.1333C63.9928 9.1333 63.5663 9.31429 63.2775 9.67627C62.9914 10.0382 62.8484 10.5695 62.8484 11.27Z" fill="white"/>
<path d="M68.4785 8.42236H69.3407V11.3911C69.3407 11.701 69.3328 12.0148 69.3171 12.3325C69.3014 12.6476 69.2895 12.8612 69.2817 12.9731H69.3171L72.2581 8.42236H73.3566V14.1333H72.4904V11.188C72.4904 10.7375 72.5154 10.1906 72.5652 9.54736H72.5337L69.5809 14.1333H68.4785V8.42236ZM70.9471 7.96533C70.3906 7.96533 69.9825 7.86637 69.7226 7.66846C69.4654 7.46794 69.3223 7.1346 69.2935 6.66846H70.1321C70.1478 6.85596 70.1833 7.00179 70.2384 7.10596C70.2961 7.21012 70.3775 7.28564 70.4825 7.33252C70.5901 7.37679 70.7528 7.39893 70.9707 7.39893C71.2279 7.39893 71.4235 7.34294 71.5573 7.23096C71.6912 7.11637 71.7726 6.92887 71.8014 6.66846H72.6558C72.6164 7.11637 72.4576 7.4445 72.1794 7.65283C71.9012 7.86117 71.4904 7.96533 70.9471 7.96533Z" fill="white"/>
<path d="M76.8528 14.1333H75.9118V9.22314H74.2188V8.42236H78.5457V9.22314H76.8528V14.1333Z" fill="white"/>
<path d="M82.6876 14.1333H79.4316V8.42236H82.6876V9.21143H80.3726V10.7661H82.5419V11.5474H80.3726V13.3403H82.6876V14.1333Z" fill="white"/>
<path d="M86.0302 8.42236H87.7389C88.5316 8.42236 89.1038 8.53695 89.4555 8.76611C89.8099 8.99528 89.987 9.35726 89.987 9.85205C89.987 10.1854 89.9004 10.4627 89.7272 10.6841C89.5539 10.9054 89.3046 11.0448 88.9791 11.1021V11.1411C89.3833 11.2166 89.6799 11.3664 89.8689 11.5903C90.0605 11.8117 90.1563 12.1125 90.1563 12.4927C90.1563 13.0057 89.9752 13.408 89.613 13.6997C89.2534 13.9888 88.7521 14.1333 88.109 14.1333H86.0302V8.42236ZM86.9712 10.7817H87.8767C88.2704 10.7817 88.5579 10.7205 88.739 10.5981C88.9201 10.4731 89.0106 10.2622 89.0106 9.96533C89.0106 9.6971 88.9122 9.50309 88.7153 9.3833C88.5211 9.26351 88.2114 9.20361 87.7862 9.20361H86.9712V10.7817ZM86.9712 11.5396V13.3481H87.9712C88.3649 13.3481 88.6615 13.2739 88.861 13.1255C89.0631 12.9744 89.1642 12.7375 89.1642 12.4146C89.1642 12.1177 89.0618 11.8976 88.8571 11.7544C88.6523 11.6112 88.3413 11.5396 87.924 11.5396H86.9712Z" fill="white"/>
<defs>
<linearGradient id="paint0_linear" x1="22.5771" y1="7.33337" x2="22.5771" y2="32.6667" gradientUnits="userSpaceOnUse">
<stop stop-color="#FB6361"/>
<stop offset="1" stop-color="#ED3E45"/>
</linearGradient>
</defs>
</svg>
