<svg width="24" height="24" viewBox="0 0 24 24" fill="none" xmlns="http://www.w3.org/2000/svg">
<path d="M7.5287 2C7.63282 2 7.63282 2 7.73695 2.10535C7.84107 2.2107 8.15344 2.52675 8.15344 2.73746C8.15344 2.94816 8.15344 3.47491 8.25757 3.89631C8.46582 4.42307 8.67406 5.79263 8.98644 6.53008C9.29881 7.26754 9.40293 7.68894 9.09056 8.11035C8.77819 8.6371 6.79983 10.6388 6.79983 10.6388C6.79983 10.6388 7.32045 11.6923 7.94519 12.3244C8.46582 13.0618 9.29881 14.1153 10.34 14.9581C11.3813 15.9063 12.5267 16.7491 13.672 17.2759C14.8174 16.117 15.7545 15.1688 16.0669 14.9581C16.3793 14.7474 16.3793 14.6421 16.8999 14.8528C17.4205 15.0635 18.1494 15.3796 18.9824 15.4849C19.7112 15.5903 20.5442 15.6956 21.0648 15.801C21.5855 15.9063 21.5855 15.9063 21.6896 16.117C21.8978 16.3277 22.002 16.6438 22.002 16.7491C22.002 16.8545 22.002 17.1705 22.002 18.224C22.002 19.2775 22.002 20.7524 22.002 21.0685C22.002 21.3845 22.002 21.3845 21.8978 21.5952C21.7937 21.806 21.6896 22.3327 21.6896 22.3327C21.6896 22.4381 21.169 22.6488 20.8566 22.6488C20.5442 22.6488 19.3989 22.6488 18.67 22.5434C17.9411 22.4381 15.9628 22.0167 15.2339 21.7006C14.505 21.4899 12.1102 20.6471 9.19468 18.4347C6.48746 16.3277 4.5091 13.4832 3.36373 11.1655C2.21837 8.8478 1.59362 6.31938 1.4895 5.05517C1.28125 3.79096 1.28125 3.26421 1.28125 2.94816C1.38537 2.6321 1.69775 2.31605 1.90599 2.2107C2.11424 2.10535 2.42662 2 2.73899 2C3.05136 2 3.88435 2 5.02972 2C6.17508 2 7.5287 2 7.5287 2Z" fill="white"/>
</svg>
