<svg width="24" height="24" viewBox="0 0 24 24" fill="none" xmlns="http://www.w3.org/2000/svg">
<path d="M21.0362 14.8429C22.8836 16.6739 23.265 17.5513 23.3246 17.6657C24.0874 19.0136 22.4903 19.1153 22.4903 19.1153L19.4152 19.1661C19.4152 19.1661 18.7478 19.306 17.8896 18.6702C16.7335 17.831 15.625 15.6313 14.8026 15.9237C13.9564 16.2162 13.9802 18.1871 13.9802 18.1871C13.9802 18.1871 13.9802 18.4668 13.7895 18.683C13.575 18.9245 13.1578 18.8355 13.1578 18.8355H11.7871C11.7871 18.8355 8.74784 19.1661 6.08993 16.2035C3.16981 12.9737 0.595334 6.61604 0.595334 6.61604C0.595334 6.61604 0.452308 6.23458 0.607253 6.01842C0.786036 5.81497 1.28663 5.81497 1.28663 5.81497H4.57623C4.57623 5.81497 4.89804 5.81497 5.10066 6.01842C5.27945 6.15829 5.38672 6.45074 5.38672 6.45074C5.38672 6.45074 5.91115 7.86215 6.62628 9.15912C7.99695 11.6895 8.62865 12.2362 9.06965 11.9692C9.78478 11.575 9.58216 8.3962 9.58216 8.3962C9.58216 8.3962 9.59408 7.23909 9.23651 6.73048C8.96238 6.3363 8.43795 6.20915 8.21149 6.18372C8.02079 6.15829 8.33068 5.70053 8.724 5.48437C9.31994 5.1792 10.3569 5.1792 11.5964 5.1792C12.5619 5.1792 12.836 5.25549 13.2055 5.3445C14.3497 5.63695 13.9564 6.76862 13.9564 9.46429C13.9564 10.3417 13.8372 11.5369 14.3974 11.9565C14.6477 12.1345 15.2675 11.9819 16.8169 9.19727C17.532 7.87486 18.0803 6.31087 18.0803 6.31087C18.0803 6.31087 18.1995 6.04385 18.3783 5.91669C18.569 5.81497 18.8312 5.81497 18.8312 5.81497H22.2877C22.2877 5.81497 23.3365 5.68782 23.5034 6.18372C23.6822 6.70505 23.1101 7.93844 21.6917 9.93476C19.3795 13.2408 19.1172 12.9356 21.0362 14.8429Z" fill="white"/>
</svg>
