<svg width="62" height="62" viewBox="0 0 62 62" fill="none" xmlns="http://www.w3.org/2000/svg">
<circle cx="31" cy="31" r="31" fill="#00E676"/>
<g clip-path="url(#clip0)">
<path d="M40.1227 33.8348C40.0487 33.7993 37.2784 32.4351 36.7861 32.2579C36.5851 32.1857 36.3698 32.1153 36.1409 32.1153C35.7668 32.1153 35.4525 32.3017 35.2078 32.6679C34.931 33.0792 34.0933 34.0585 33.8345 34.351C33.8006 34.3896 33.7545 34.4358 33.7269 34.4358C33.7021 34.4358 33.2733 34.2592 33.1435 34.2028C30.1718 32.9119 27.9161 29.8076 27.6068 29.2842C27.5626 29.2089 27.5608 29.1747 27.5604 29.1747C27.5712 29.1349 27.6712 29.0347 27.7227 28.983C27.8736 28.8337 28.0371 28.6369 28.1953 28.4466C28.2702 28.3564 28.3452 28.2661 28.4188 28.1809C28.6483 27.9139 28.7505 27.7067 28.8689 27.4666L28.931 27.3418C29.2202 26.7673 28.9732 26.2824 28.8933 26.1258C28.8278 25.9948 27.6581 23.1717 27.5337 22.8751C27.2347 22.1594 26.8395 21.8262 26.2903 21.8262C26.2394 21.8262 26.2903 21.8262 26.0767 21.8352C25.8165 21.8462 24.3995 22.0327 23.773 22.4276C23.1086 22.8465 21.9846 24.1817 21.9846 26.5298C21.9846 28.6431 23.3257 30.6385 23.9015 31.3974C23.9158 31.4165 23.9421 31.4553 23.9802 31.5111C26.1853 34.7315 28.9343 37.1181 31.721 38.2313C34.4038 39.303 35.6742 39.4268 36.3965 39.4268C36.3966 39.4268 36.3966 39.4268 36.3966 39.4268C36.7001 39.4268 36.9431 39.403 37.1574 39.3819L37.2933 39.369C38.2201 39.2868 40.2568 38.2314 40.7201 36.944C41.0851 35.93 41.1813 34.822 40.9385 34.42C40.7722 34.1466 40.4856 34.009 40.1227 33.8348Z" fill="white"/>
<path d="M31.3375 12C21.0459 12 12.6731 20.3099 12.6731 30.5241C12.6731 33.8278 13.5572 37.0616 15.2321 39.8919L12.0264 49.3481C11.9667 49.5244 12.0111 49.7193 12.1415 49.8521C12.2356 49.9482 12.3633 50 12.4937 50C12.5437 50 12.594 49.9925 12.6431 49.9768L22.5034 46.8435C25.2016 48.2852 28.2513 49.0462 31.3376 49.0462C41.6282 49.0463 50.0002 40.7373 50.0002 30.5241C50.0002 20.3099 41.6282 12 31.3375 12ZM31.3375 45.1876C28.4334 45.1876 25.6205 44.349 23.2026 42.7624C23.1213 42.7089 23.0269 42.6815 22.9319 42.6815C22.8817 42.6815 22.8313 42.6892 22.7823 42.7047L17.843 44.2748L19.4375 39.5706C19.4891 39.4184 19.4633 39.2504 19.3683 39.1206C17.527 36.6048 16.5537 33.6322 16.5537 30.5241C16.5537 22.4377 23.1857 15.8587 31.3374 15.8587C39.4882 15.8587 46.1194 22.4377 46.1194 30.5241C46.1195 38.6096 39.4884 45.1876 31.3375 45.1876Z" fill="white"/>
</g>
<defs>
<clipPath id="clip0">
<rect width="38" height="38" fill="white" transform="translate(12 12)"/>
</clipPath>
</defs>
</svg>
