<svg width="54" height="50" viewBox="0 0 54 50" version="1.1" xmlns="http://www.w3.org/2000/svg" xmlns:xlink="http://www.w3.org/1999/xlink">
<g id="Canvas" fill="none">
<g id="grudnik">
<g id="kolyaska">
<path id="Shape" fill-rule="evenodd" clip-rule="evenodd" d="M 36.4702 0.00195312L 36.4595 0L 36.3896 0.150146L 36.3198 0.300415C 36.314 0.34436 36.3047 0.427124 36.2991 0.477661L 36.2974 0.49231L 36.2266 0.608521L 36.0986 0.81897C 36.0964 0.84375 36.0938 0.88147 36.0911 0.919189L 36.0908 0.921387C 36.0884 0.958252 36.0857 0.994995 36.0835 1.01929L 35.8838 1.34497C 35.8806 1.39563 35.873 1.49573 35.8687 1.54639L 35.6689 1.87317C 35.6646 1.92371 35.6572 2.0238 35.6538 2.07446C 35.5862 2.18298 35.5195 2.29163 35.4541 2.40015C 35.4519 2.42444 35.4492 2.46118 35.4468 2.49805L 35.4465 2.50024C 35.4438 2.53796 35.4412 2.57568 35.439 2.60046L 35.2393 2.92615C 35.2361 2.97681 35.2285 3.07788 35.2244 3.12854L 35.1594 3.23413C 35.114 3.3075 35.0688 3.38086 35.0244 3.45422L 35.0166 3.55786L 35.0095 3.65454L 34.8096 3.98022L 34.8032 4.05823L 34.7935 4.17847C 34.7441 4.26306 34.6953 4.34827 34.6467 4.43323L 34.6055 4.50513C 34.5891 4.56616 34.5723 4.62671 34.5552 4.68738L 34.5525 4.69727L 34.5408 4.73926C 34.5139 4.83533 34.4871 4.9314 34.4617 5.02795C 34.3982 5.1366 34.3359 5.24512 34.2747 5.35376L 34.2576 5.55298C 34.1899 5.6615 34.1233 5.76904 34.0576 5.87756L 34.0505 5.97498L 34.0427 6.07898C 33.9761 6.1875 33.9094 6.29602 33.843 6.40564C 33.8396 6.44507 33.8347 6.5166 33.8313 6.5697L 33.8289 6.60596C 33.7612 6.7146 33.6936 6.82422 33.627 6.93384L 33.614 7.13196C 33.5464 7.24158 33.4788 7.3512 33.4121 7.46082L 33.3992 7.66003C 33.3403 7.75464 33.2822 7.84924 33.2241 7.94385L 33.1985 7.98584C 33.1941 8.03638 33.1865 8.13757 33.1833 8.18811C 33.1157 8.29675 33.0491 8.40527 32.9824 8.51489C 32.9792 8.56555 32.9717 8.66565 32.9675 8.71631C 32.9009 8.82483 32.8342 8.93335 32.7676 9.04089L 32.7607 9.1416L 32.7537 9.24231C 32.687 9.34973 32.6206 9.45837 32.5549 9.56592L 32.5459 9.66602L 32.5369 9.76611C 32.4744 9.87476 32.4121 9.98328 32.3508 10.0929L 32.2952 10.292L 32.2893 10.3124L 32.2864 10.3226L 32.2837 10.3325C 32.2573 10.4257 32.2312 10.5187 32.2058 10.6125L 32.019 10.9404L 32.002 11.1385L 31.9468 11.2283L 31.937 11.2441C 31.8921 11.3171 31.8474 11.39 31.8032 11.4633L 31.7932 11.5868L 31.7871 11.6656L 31.5872 11.9913C 31.583 12.0419 31.5754 12.1431 31.5723 12.1937C 31.5237 12.2716 31.4756 12.35 31.4277 12.4282L 31.3713 12.5205L 31.364 12.6266L 31.3574 12.7207C 31.2898 12.8293 31.2231 12.9379 31.1565 13.0465L 31.1436 13.2467C 31.0759 13.3553 31.0093 13.4639 30.9426 13.5725C 30.9395 13.623 30.9319 13.7231 30.9277 13.7738L 30.7278 14.0995C 30.7246 14.1501 30.717 14.2513 30.7129 14.3019C 30.6462 14.4094 30.5796 14.5179 30.5132 14.6266L 30.4958 14.8268C 30.4326 14.9354 30.3701 15.0439 30.3091 15.1536C 30.2861 15.2375 30.2627 15.3214 30.239 15.4052C 30.2136 15.4948 30.1885 15.5844 30.1641 15.6743C 30.1016 15.7828 30.0393 15.8925 29.9771 16.0021L 29.9702 16.0856L 29.9609 16.1982L 29.9136 16.2751L 29.76 16.526L 29.7473 16.7252C 29.6794 16.8328 29.613 16.9413 29.5464 17.0509C 29.5432 17.1016 29.5356 17.2028 29.5312 17.2533L 29.365 17.5236L 29.3315 17.578C 29.3284 17.6285 29.3208 17.7297 29.3164 17.7804L 29.1167 18.105C 29.1135 18.1545 29.106 18.2557 29.1016 18.3064L 28.9019 18.6321L 28.8943 18.7327L 28.8867 18.8334L 28.687 19.1613L 28.6777 19.2501L 28.6667 19.353L 28.5813 19.5291L 28.5325 19.6293L 13.1174 19.6293C 13.1077 19.5681 13.0874 19.4469 13.0767 19.3868C 13.0461 19.2655 13.0188 19.1432 12.9917 19.0211C 12.9695 18.9203 12.947 18.8197 12.9229 18.7196L 12.8953 18.6455L 12.8552 18.5382C 12.8225 18.4143 12.7922 18.2904 12.7625 18.1672L 12.749 18.1124C 12.7151 18.0066 12.6833 17.9009 12.6516 17.7952L 12.6501 17.7899C 12.5771 17.6476 12.5054 17.5037 12.4336 17.3591L 12.4329 17.3574C 12.0195 16.528 11.5994 15.6848 10.8789 15.0692C 10.3079 14.4326 9.57715 13.9788 8.85352 13.5292L 8.79932 13.4955L 8.80225 13.4148C 8.81689 13.006 8.83154 12.5941 8.75 12.1917C 8.68433 12.0198 8.62207 11.848 8.56421 11.675C 8.13452 10.5852 7.27197 9.67554 6.17212 9.21912C 5.95288 9.15369 5.73364 9.08313 5.51685 9.00928C 5.42236 8.98718 5.32886 8.96509 5.23438 8.94189C 4.69189 8.83533 4.13013 8.84692 3.58545 8.93237L 3.55225 8.94202C 3.42261 8.97998 3.29297 9.01794 3.16333 9.05774L 2.99805 9.10791L 2.97998 9.1134L 2.96802 9.11707L 2.96338 9.11841C 2.85474 9.15161 2.74634 9.18457 2.63696 9.21594C 1.95068 9.52051 1.30518 9.95691 0.871094 10.5714C 0.645264 10.855 0.484863 11.1793 0.325439 11.5022L 0.239502 11.675L 0.183594 11.874L 0.175781 11.9011L 0.147217 12.0018C 0.106934 12.0914 0.065918 12.181 0.0246582 12.2706L 0 12.3245L 0 14.1448L 0.067627 14.3296C 0.128662 14.4955 0.189697 14.6614 0.246094 14.829C 0.535889 15.512 0.959229 16.1571 1.56494 16.6093C 1.77002 16.7852 2.00537 16.9167 2.24121 17.0486L 2.25024 17.0536L 2.25488 17.0562C 2.3877 17.1306 2.52051 17.2052 2.64771 17.2881L 2.82935 17.3387C 2.97095 17.3788 3.11401 17.4167 3.25781 17.4547C 3.32935 17.4677 3.40088 17.4797 3.47266 17.4918L 3.47876 17.4928L 3.48364 17.4937L 3.48608 17.494C 3.67725 17.5265 3.86865 17.5591 4.05591 17.6096C 4.28784 17.6191 4.5188 17.6191 4.75098 17.6096C 4.94019 17.5592 5.13281 17.5265 5.32593 17.4938L 5.32837 17.4934C 5.40088 17.4812 5.47363 17.4689 5.5459 17.4557C 5.69067 17.4177 5.83472 17.3799 5.97876 17.3387L 6.16016 17.2881C 6.90137 16.8928 7.61572 16.4196 8.09155 15.7196C 9.08936 16.3964 9.93481 17.306 10.3911 18.4213C 10.459 18.6364 10.5308 18.8502 10.606 19.0642L 10.6704 19.2413C 10.7031 19.3817 10.731 19.5222 10.7588 19.6632L 10.78 19.7705C 10.8914 20.1418 10.9146 20.5238 10.9377 20.9053C 10.9565 21.2126 10.9753 21.5197 11.04 21.8207C 11.0432 21.9144 11.0457 22.0082 11.0481 22.1019L 11.0481 22.1053C 11.0635 22.6654 11.0789 23.225 11.2075 23.7739C 11.2493 23.9712 11.281 24.1707 11.3127 24.3701L 11.3149 24.3835C 11.3677 24.715 11.4204 25.0465 11.5168 25.3688C 11.5547 25.4886 11.5894 25.6089 11.624 25.7297C 11.6414 25.7905 11.6589 25.8516 11.677 25.9127L 11.6777 25.9161C 11.7097 26.0552 11.7417 26.1942 11.7769 26.3322L 11.8833 26.6495C 11.938 26.8698 12.0154 27.0848 12.1108 27.2914C 12.1206 27.3378 12.1399 27.4305 12.1484 27.4769L 12.345 27.8058L 12.3525 27.9049L 12.3601 28.004C 12.4219 28.1063 12.4844 28.2085 12.5474 28.3109L 12.5588 28.3297L 12.5813 28.5278C 13.5051 30.4453 14.7158 32.2308 16.1904 33.7825C 17.3926 35.0305 18.7996 36.0646 20.2561 37.0081L 19.9656 37.0198C 19.8169 37.0256 19.6682 37.0315 19.5193 37.0386C 19.3733 37.0829 19.2261 37.124 19.0798 37.1641L 18.7502 37.2526C 18.6375 37.3116 18.5247 37.3727 18.4128 37.4338C 18.3635 37.4381 18.2637 37.4454 18.2141 37.4486C 17.9871 37.6012 17.7471 37.7324 17.5071 37.8636L 17.4927 37.8716C 17.3843 37.9308 17.2759 37.9901 17.1689 38.0515C 16.4192 38.5322 15.8145 39.1974 15.3022 39.911C 15.1523 40.1527 15.0264 40.4067 14.9004 40.6608C 14.8115 40.84 14.7227 41.019 14.6255 41.1938C 14.6138 41.2402 14.5901 41.334 14.5771 41.3804L 14.5403 41.5177C 14.4253 41.944 14.3093 42.3745 14.2871 42.8171L 14.2839 42.9924C 14.2705 43.6989 14.2568 44.4138 14.4622 45.0981C 14.5032 45.2554 14.5461 45.4126 14.5891 45.5697L 14.6287 45.7148C 14.7268 45.8918 14.8171 46.0742 14.9075 46.2568L 14.9084 46.2587C 15.1436 46.7343 15.3794 47.2107 15.7588 47.5942C 16.4353 48.4786 17.4097 49.0858 18.4236 49.54C 18.5525 49.5779 18.6812 49.6185 18.8105 49.6594L 18.8323 49.6663L 18.9531 49.7045C 19.0918 49.7424 19.2314 49.7794 19.3721 49.8163C 20.1594 49.9744 20.979 50.0776 21.7761 49.9227C 21.8669 49.9075 21.9575 49.8933 22.0481 49.8792C 22.1699 49.8602 22.2917 49.8412 22.4131 49.8195C 22.4714 49.8031 22.5298 49.7872 22.5884 49.7714L 22.6208 49.7625L 22.6431 49.7563C 22.7065 49.739 22.7698 49.7217 22.833 49.7035C 23.0081 49.6476 23.1831 49.5917 23.3594 49.54C 23.4409 49.5 23.5234 49.4606 23.606 49.4211L 23.6477 49.4011C 24.1719 49.1511 24.7004 48.8989 25.1187 48.4912C 25.5696 48.1825 25.9116 47.7643 26.2522 47.348L 26.3745 47.199C 26.4736 47.0381 26.5635 46.8721 26.6533 46.7061C 26.7776 46.4761 26.9021 46.2461 27.051 46.0299C 27.0791 45.9214 27.1082 45.8138 27.1382 45.7063C 27.178 45.5999 27.2188 45.4934 27.2595 45.389C 27.2671 45.3665 27.2778 45.3324 27.2886 45.2983L 27.3176 45.2078C 27.3435 45.0997 27.3679 44.9912 27.3921 44.8832L 27.4368 44.686C 27.543 43.632 27.5872 42.5336 27.2639 41.5079L 27.2024 41.3571L 27.1846 41.3126L 27.1785 41.2975L 27.1738 41.2858L 27.1675 41.2701C 27.1404 41.2024 27.113 41.1346 27.0854 41.0673C 27.0769 41.022 27.0576 40.9313 27.0479 40.886C 26.9045 40.6804 26.7849 40.4611 26.6653 40.2418C 26.5127 39.9618 26.3604 39.682 26.1584 39.4314C 26.3293 39.4883 26.5022 39.5431 26.6772 39.5927C 26.7625 39.6101 26.8477 39.6268 26.9331 39.6434C 27.074 39.6708 27.2148 39.6982 27.3552 39.7297C 27.4336 39.7471 27.512 39.766 27.5908 39.7849L 27.5991 39.787L 27.6077 39.7891L 27.6162 39.7911L 27.6326 39.795L 27.6409 39.7971C 27.7615 39.8212 27.8828 39.8419 28.0044 39.8627L 28.0076 39.8632L 28.0137 39.8643C 28.1553 39.8885 28.2971 39.913 28.4377 39.9426C 28.7859 39.9806 29.1333 40.026 29.4807 40.0714C 29.7493 40.1066 30.0181 40.1417 30.2876 40.1735C 30.5068 40.196 30.729 40.1896 30.9509 40.1831C 31.2996 40.1729 31.6479 40.1627 31.9846 40.2651C 32.366 40.3074 32.7537 40.3042 33.1309 40.2294C 33.4177 40.1732 33.7097 40.179 34.0012 40.1847C 34.334 40.1912 34.6665 40.1978 34.9912 40.1123C 35.5283 40.0638 36.0642 39.9974 36.5959 39.9047L 36.7732 39.8788L 36.7766 39.8783C 36.9297 39.8562 37.0828 39.8341 37.2351 39.8076L 37.2483 39.8037C 37.3877 39.7629 37.5273 39.722 37.6667 39.6791C 37.7837 39.6648 37.9016 39.6515 38.019 39.6383L 38.0588 39.6338C 38.2029 39.5906 38.3467 39.5505 38.4917 39.5115C 38.6357 39.4778 38.7808 39.4471 38.9268 39.4177C 39.0615 39.3718 39.1963 39.3268 39.3315 39.2817C 39.4541 39.2408 39.5767 39.2 39.6992 39.1583L 39.8594 39.1078L 39.8662 39.1056L 39.8733 39.1034C 39.9873 39.0674 40.1018 39.0312 40.2168 38.9971C 39.6724 39.5811 39.2876 40.2799 38.9084 40.9724C 38.843 41.1907 38.771 41.4067 38.6948 41.6218L 38.6367 41.9032C 38.6155 42.0002 38.5969 42.0979 38.5784 42.1958L 38.5747 42.2153L 38.5723 42.2277C 38.5432 42.3818 38.5139 42.5363 38.4746 42.6885C 38.4714 42.7817 38.4675 42.8751 38.4634 42.9686C 38.4419 43.4714 38.4204 43.9773 38.5166 44.4741L 38.5574 44.6646C 38.5806 44.7748 38.604 44.8853 38.6292 44.9949C 38.6658 45.1329 38.7024 45.27 38.7419 45.4081L 38.7749 45.5089C 38.8201 45.6472 38.8652 45.7858 38.9084 45.9257C 39.408 46.9249 40.0396 47.9062 40.9678 48.5724C 41.3425 48.8707 41.7651 49.0981 42.1875 49.3253C 42.3218 49.3976 42.4561 49.4698 42.5886 49.5443C 42.7222 49.5817 42.855 49.6219 42.9888 49.6626L 43.1204 49.7024C 43.2122 49.7289 43.3052 49.7545 43.3984 49.7803L 43.4199 49.7861L 43.4292 49.7887L 43.4385 49.7913L 43.447 49.7936L 43.5413 49.8195C 43.6531 49.8396 43.7659 49.8573 43.8779 49.8749L 43.8872 49.8763L 43.8921 49.8771L 43.9065 49.8793L 43.938 49.8842L 43.9482 49.8857L 43.9597 49.8876L 43.9795 49.8907C 44.0452 49.9011 44.1113 49.9116 44.1772 49.9227C 45.0107 50.0703 45.8701 49.9923 46.6897 49.8088C 46.7852 49.7888 46.8818 49.7699 46.9785 49.7531C 47.0891 49.7151 47.1997 49.6792 47.3125 49.6444C 47.5085 49.5394 47.7117 49.4454 47.9153 49.3513C 48.3655 49.1431 48.8164 48.9343 49.1902 48.6062C 50.1431 47.8894 50.8445 46.8954 51.3159 45.8191C 51.3835 45.6041 51.4565 45.389 51.533 45.1761C 51.5522 45.0824 51.5737 44.9896 51.5962 44.8969C 51.6138 44.7986 51.6284 44.6998 51.6431 44.6011L 51.6465 44.5787C 51.675 44.3861 51.7036 44.1935 51.75 44.004C 51.7832 43.6361 51.7822 43.2661 51.75 42.8983C 51.7036 42.7103 51.675 42.5188 51.6465 42.3275C 51.6309 42.2217 51.615 42.1158 51.5962 42.0107C 51.5737 41.9148 51.5522 41.8199 51.5317 41.7261C 51.4556 41.5121 51.3835 41.2971 51.3149 41.0811C 50.8208 40.0195 50.1538 38.996 49.1741 38.3066C 48.772 37.9553 48.2878 37.7268 47.8069 37.4996L 47.8052 37.4988C 47.7122 37.455 47.6196 37.4111 47.5273 37.3665C 47.3071 37.2979 47.0891 37.2273 46.8723 37.1525C 46.7744 37.1324 46.6768 37.1134 46.5801 37.0955C 46.4783 37.0741 46.376 37.0553 46.2737 37.0365L 46.2688 37.0356L 46.2632 37.0347L 46.2576 37.0337L 46.2498 37.0322L 46.2476 37.0319C 46.093 37.0032 45.9382 36.9745 45.7852 36.9363C 45.436 36.9142 45.0859 36.9142 44.7378 36.9163C 44.9395 36.7808 45.1436 36.6493 45.3479 36.5177L 45.3606 36.5095C 45.6609 36.3164 45.9609 36.1233 46.2524 35.9181C 46.468 35.7357 46.6897 35.5599 46.9114 35.3843C 47.4185 34.9821 47.9255 34.58 48.3599 34.0988C 48.8508 33.6719 49.261 33.1737 49.6714 32.6753C 49.8516 32.4563 50.032 32.2373 50.2192 32.0243C 50.374 31.8196 50.5161 31.6061 50.658 31.3925C 50.7573 31.243 50.8567 31.0936 50.9604 30.947C 51.3372 30.4315 51.6182 29.8624 51.8992 29.2931L 51.8999 29.2914L 51.9016 29.288C 52.0627 28.9613 52.2239 28.6346 52.4031 28.3181L 52.4297 28.12C 52.49 28.0114 52.5513 27.9038 52.6135 27.7953C 52.6414 27.6924 52.6709 27.5898 52.7004 27.4874L 52.7607 27.2756C 52.8176 27.166 52.8745 27.0574 52.9326 26.9489C 52.9636 26.8413 52.9949 26.7349 53.0281 26.6284C 53.0625 26.485 53.0979 26.3417 53.1367 26.2004L 53.2009 26.0201C 53.2795 25.7408 53.3525 25.4604 53.4233 25.1791C 53.4492 25.0627 53.4729 24.9459 53.4966 24.8291L 53.533 24.652C 53.5664 24.4777 53.5947 24.3026 53.623 24.1276L 53.6243 24.1198C 53.6724 23.824 53.7207 23.5284 53.793 23.2374C 53.8025 23.0728 53.8074 22.908 53.8123 22.7432L 53.8127 22.7274C 53.8186 22.5303 53.8247 22.3333 53.8391 22.137C 53.9451 21.7939 53.9336 21.4396 53.9221 21.085C 53.9155 20.8795 53.9089 20.674 53.925 20.4705C 53.9282 20.3669 53.9453 20.2635 53.9624 20.1603C 53.9966 19.9531 54.0308 19.7468 53.9519 19.5428L 53.9424 19.4041L 53.9392 19.3553L 53.939 19.3523C 53.9226 19.0981 53.9062 18.844 53.8486 18.5952L 53.8357 18.4548C 53.8145 18.2208 53.7932 17.9865 53.7415 17.7572C 53.7092 17.1603 53.5771 16.5771 53.4453 15.996L 53.417 15.8704C 53.3955 15.7766 53.374 15.6827 53.3535 15.5889C 53.3252 15.4742 53.3003 15.3588 53.2754 15.2433L 53.2705 15.2213L 53.2659 15.1993C 53.2466 15.1089 53.2271 15.0183 53.2063 14.928C 53.1565 14.7827 53.106 14.6377 53.0554 14.4927C 52.9004 14.0471 52.7454 13.6014 52.6091 13.1498L 52.5725 13.0835L 52.5603 13.0616L 52.4297 12.8241C 52.4233 12.7745 52.4116 12.6754 52.4062 12.6259C 52.3523 12.53 52.2991 12.4336 52.2463 12.3372L 52.2336 12.3142L 52.1077 12.0862L 52.0818 11.8922C 51.1772 10.1097 50.0935 8.39685 48.708 6.93591C 47.2878 5.28735 45.5125 3.96655 43.6455 2.83972C 43.0583 2.49097 42.4451 2.1908 41.8318 1.89062L 41.8281 1.88879C 41.5049 1.73071 41.1819 1.57251 40.8623 1.40723L 40.6616 1.38513L 40.5669 1.32983L 40.3286 1.19006L 40.1287 1.17322L 39.9839 1.09595C 39.9202 1.06201 39.8567 1.0282 39.7937 0.994019C 39.4629 0.902344 39.1362 0.795776 38.8152 0.678833C 38.7678 0.667236 38.6755 0.645142 38.6292 0.634521C 38.5208 0.593506 38.4124 0.554443 38.3037 0.515503C 38.2197 0.49292 38.136 0.471313 38.052 0.449829L 38.0342 0.44519C 37.9363 0.420044 37.8386 0.394897 37.741 0.36792L 37.5552 0.316284C 37.4854 0.291382 37.4163 0.267456 37.3469 0.24353L 37.2285 0.202393L 36.9075 0.0853271C 36.7842 0.0599365 36.6609 0.0371094 36.5376 0.0142822L 36.5208 0.0111084L 36.5039 0.00805664L 36.4871 0.00500488L 36.4702 0.00195312ZM 37.6121 3.24341C 37.699 3.07898 37.7808 2.91138 37.8591 2.7417L 37.917 2.77063C 37.9724 2.79834 38.04 2.83215 38.0793 2.85242L 38.2854 2.89343C 38.3962 2.9314 38.5068 2.96838 38.6184 3.00415L 38.9331 3.15601C 39.0449 3.19177 39.1567 3.22974 39.2683 3.2677C 39.3193 3.27686 39.4192 3.29297 39.4734 3.30164L 39.4788 3.30249C 39.583 3.36572 39.6882 3.42896 39.7937 3.49219L 39.8074 3.49353L 39.8269 3.49536C 39.885 3.50098 39.9675 3.50879 40.0117 3.51221C 40.0664 3.54382 40.176 3.60706 40.2307 3.6377L 40.3589 3.70032L 40.3833 3.71228C 40.5481 3.79272 40.7124 3.87292 40.8784 3.95178L 41.0911 4.05933L 41.137 4.08044C 41.1938 4.10645 41.2668 4.14001 41.3081 4.15942C 41.5427 4.27246 41.7656 4.4054 41.9885 4.53833L 42.1492 4.63379C 43.3157 5.26831 44.3887 6.05994 45.4092 6.90112C 45.6313 7.12048 45.8547 7.33875 46.0781 7.55701L 46.1047 7.58301C 46.4641 7.9342 46.8235 8.28552 47.1782 8.64148C 47.293 8.7854 47.4094 8.92834 47.5261 9.07141L 47.5481 9.09814C 47.9731 9.61804 48.3997 10.1396 48.738 10.718C 48.8049 10.8258 48.8757 10.9316 48.9465 11.0372L 48.9526 11.0464C 49.1091 11.2797 49.2654 11.5131 49.3835 11.7689C 49.5308 12.1062 49.7273 12.4182 49.9399 12.7197C 49.9453 12.7734 49.9548 12.881 49.9592 12.9347C 49.9905 12.9895 50.0515 13.0981 50.0818 13.153C 50.1396 13.2562 50.1978 13.3595 50.2578 13.4629L 50.2783 13.6779C 50.3384 13.7731 50.3992 13.8683 50.4602 13.9635L 50.4736 13.9846L 50.4763 14.0026C 50.4841 14.0587 50.4973 14.1493 50.5049 14.1965C 50.5291 14.2577 50.5527 14.319 50.5762 14.3804L 50.5854 14.4048L 50.6028 14.4492C 50.625 14.5066 50.6472 14.564 50.6704 14.6213C 50.7014 14.7288 50.7349 14.8352 50.769 14.9418C 50.8066 15.0482 50.8477 15.1547 50.8894 15.26L 50.9036 15.3103L 50.9045 15.3134L 50.9116 15.3387C 50.9238 15.3817 50.9368 15.4275 50.9443 15.4562C 50.9851 15.5963 51.0237 15.7365 51.0613 15.8778C 51.0754 15.9427 51.0886 16.0079 51.1016 16.073C 51.1326 16.2267 51.1636 16.3802 51.2073 16.5312C 51.2256 16.6293 51.2449 16.7263 51.2654 16.8243C 51.3313 16.9769 51.3435 17.1407 51.3557 17.3043C 51.3594 17.3541 51.363 17.4041 51.3684 17.4536C 51.4495 17.6208 51.4548 17.8031 51.4602 17.9851C 51.4622 18.0542 51.4644 18.1233 51.4705 18.1915C 51.5911 18.4834 51.5757 18.7991 51.5603 19.1143L 51.5601 19.1199C 51.5518 19.291 51.5437 19.4623 51.5576 19.6293C 48.9856 19.6281 46.4133 19.6287 43.8411 19.6293C 39.5623 19.6302 35.2834 19.6312 31.0039 19.624C 31.0791 19.4637 31.1575 19.3057 31.2402 19.1497L 31.2537 19.0438L 31.2671 18.9399L 31.4636 18.631C 31.468 18.5762 31.4766 18.4677 31.4797 18.4128L 31.6794 18.1051L 31.6863 18.0071L 31.6882 17.9805L 31.6946 17.8868L 31.8943 17.5769C 31.8987 17.5232 31.9062 17.4136 31.9094 17.3588L 32.0654 17.1176L 32.1091 17.0499C 32.1106 17.0253 32.113 16.9893 32.116 16.952L 32.1165 16.944L 32.1243 16.8317C 32.1897 16.7295 32.2563 16.6262 32.323 16.5239C 32.3284 16.4691 32.3379 16.3616 32.3423 16.3079L 32.5195 16C 32.554 15.8883 32.5903 15.7776 32.6292 15.668C 32.6387 15.6163 32.657 15.512 32.6655 15.4603C 32.73 15.3571 32.7944 15.2548 32.8601 15.1526L 32.8772 14.9343C 32.9426 14.8322 33.0093 14.7288 33.0759 14.6266C 33.0803 14.5718 33.0876 14.4622 33.0911 14.4073L 33.2908 14.0995L 33.2971 14.0045L 33.2991 13.9783L 33.3059 13.8802L 33.5056 13.5725L 33.5132 13.4629C 33.5161 13.4218 33.519 13.3806 33.5205 13.3533C 33.5872 13.251 33.6538 13.1477 33.7205 13.0443L 33.728 12.9358C 33.731 12.895 33.7339 12.8541 33.7354 12.8273C 33.802 12.7239 33.8687 12.6206 33.9353 12.5184L 33.9429 12.4087C 33.9458 12.3677 33.9487 12.3264 33.9502 12.2991L 34.1501 11.9913C 34.1543 11.9365 34.1619 11.8269 34.165 11.7721L 34.2644 11.6182L 34.3638 11.4642L 34.3843 11.2493C 34.4421 11.146 34.5012 11.0426 34.5603 10.9393C 34.5947 10.8286 34.6313 10.718 34.6709 10.6084L 34.7065 10.4008L 34.7605 10.3151C 34.8069 10.241 34.8538 10.1667 34.9009 10.0929L 34.918 9.87476L 35.1167 9.56592L 35.1233 9.47266L 35.1262 9.42981L 35.1318 9.34766L 35.2119 9.224C 35.2515 9.16248 35.291 9.10095 35.3315 9.03992L 35.3394 8.92761L 35.3398 8.91956C 35.3428 8.88232 35.3452 8.84631 35.3467 8.82166L 35.3904 8.75403L 35.5464 8.51282C 35.5496 8.45801 35.5571 8.34839 35.5615 8.29358L 35.6389 8.17383L 35.6475 8.16064C 35.6851 8.10229 35.7229 8.04382 35.7612 7.98584C 35.7629 7.95471 35.7666 7.90564 35.7703 7.85913L 35.7729 7.823L 35.7739 7.81067L 35.7773 7.7666C 35.843 7.66431 35.9094 7.56104 35.9761 7.45874C 35.9805 7.40393 35.9878 7.29431 35.9912 7.2406L 36.1909 6.93066L 36.199 6.81335L 36.2061 6.7124L 36.2773 6.60229L 36.2852 6.59021C 36.325 6.52832 36.365 6.46631 36.4058 6.40466L 36.4121 6.30969L 36.4141 6.28345L 36.4209 6.18542C 36.4863 6.08313 36.553 5.97986 36.6194 5.87756C 36.6248 5.82385 36.6345 5.71631 36.6389 5.6626L 36.8162 5.35376C 36.8503 5.24194 36.8879 5.13135 36.9268 5.02173L 36.9426 4.92908L 36.9622 4.81409L 37.0161 4.72839C 37.0625 4.6543 37.1094 4.58008 37.1565 4.50623L 37.1665 4.37195L 37.1726 4.28809C 37.2383 4.18579 37.3047 4.08252 37.3713 3.98022L 37.3887 3.76208C 37.4351 3.68774 37.4819 3.61389 37.5291 3.53979L 37.584 3.45325C 37.5916 3.40051 37.6055 3.29614 37.6121 3.24341ZM 3.8186 11.205C 3.20312 11.4674 2.62524 11.8754 2.37915 12.5131L 2.35449 12.6232L 2.33398 12.7134C 2.20093 13.019 2.23315 13.3658 2.31372 13.6799L 2.34766 13.7574C 2.38208 13.8367 2.4165 13.9156 2.45215 13.9951L 2.4834 14.1975C 2.73999 14.6392 3.14282 14.9523 3.59302 15.1904L 3.80029 15.2295C 4.18262 15.356 4.62524 15.3571 5.00757 15.2295L 5.09619 15.2128L 5.21484 15.1904C 5.26807 15.1572 5.32178 15.1249 5.37573 15.0924L 5.37891 15.0906C 5.55151 14.9863 5.72485 14.8816 5.87866 14.752C 6.07129 14.5345 6.21143 14.2795 6.35034 14.027L 6.36621 13.998L 6.42871 13.8855L 6.44922 13.7939L 6.47388 13.6853C 6.59204 13.4122 6.59937 13.0875 6.46851 12.8177C 6.45557 12.7166 6.44263 12.6154 6.43091 12.5142C 6.18164 11.8765 5.60596 11.4685 4.99048 11.205C 4.59937 11.1913 4.2085 11.1913 3.8186 11.205ZM 13.3354 22.724C 13.3171 22.4658 13.3171 22.2065 13.3184 21.9482L 51.5586 21.9482C 51.5608 22.2413 51.562 22.5354 51.5425 22.8295C 51.4504 22.9885 51.4463 23.1682 51.4421 23.3475C 51.4404 23.4214 51.4387 23.4951 51.4309 23.5674C 51.3691 23.693 51.355 23.8292 51.3408 23.9658L 51.3406 23.9686C 51.3274 24.0923 51.3142 24.2163 51.2654 24.3326C 51.2461 24.4307 51.2278 24.5287 51.2117 24.6277C 51.1824 24.7158 51.1565 24.8053 51.1304 24.8948L 51.1257 24.9109L 51.1211 24.927C 51.0977 25.0084 51.074 25.0898 51.0486 25.1705L 51.0178 25.2804L 50.9937 25.3667C 50.9636 25.4615 50.9365 25.5573 50.9094 25.6531L 50.9084 25.6569L 50.9062 25.6649C 50.8831 25.7461 50.8599 25.8275 50.8347 25.9084L 50.7788 26.1045C 50.7412 26.2141 50.7058 26.3237 50.6736 26.4355C 50.6135 26.5377 50.5544 26.641 50.4963 26.7444L 50.4758 26.9594C 50.4094 27.0616 50.3438 27.1638 50.2783 27.2672C 50.2729 27.3209 50.2632 27.4285 50.259 27.4822C 50.1987 27.5845 50.1396 27.6857 50.0818 27.7889C 50.0266 27.9016 49.9705 28.0135 49.9143 28.1252L 49.8958 28.1625L 49.8701 28.2137L 49.842 28.2684L 49.832 28.2882C 49.7524 28.4435 49.6733 28.5984 49.5984 28.7555C 49.3701 29.1991 49.084 29.6093 48.7979 30.0193L 48.7896 30.0312C 48.6353 30.2526 48.481 30.4739 48.3362 30.7003C 48.1296 30.9325 47.9324 31.1727 47.7356 31.413C 47.344 31.8905 46.9526 32.3677 46.4866 32.78C 45.3438 33.7593 44.1492 34.6996 42.8142 35.4174C 42.7449 35.4464 42.6763 35.4766 42.6079 35.5066L 42.5908 35.514L 42.5891 35.5149L 42.4705 35.567C 42.1975 35.74 41.9214 35.9086 41.6294 36.0457L 41.408 36.1669C 41.3533 36.1721 41.2437 36.1826 41.189 36.1869C 41.0837 36.2512 40.9795 36.3154 40.8743 36.3809C 40.8193 36.385 40.71 36.3945 40.655 36.3998L 40.3425 36.5769C 40.2866 36.6012 40.176 36.6497 40.1201 36.6749C 40.0095 36.7097 39.8989 36.7466 39.7905 36.7856L 39.5884 36.8362C 39.479 36.8741 39.3694 36.9121 39.2598 36.9479L 39.1572 36.9844C 39.0464 37.0237 38.936 37.0629 38.8269 37.1039C 38.7754 37.1166 38.6733 37.1409 38.6228 37.1525C 38.5417 37.1771 38.4602 37.2001 38.3784 37.223L 38.3726 37.2247C 38.2712 37.2533 38.1697 37.282 38.0696 37.3137C 37.9675 37.3295 37.8677 37.3464 37.7678 37.3643C 37.6238 37.4065 37.481 37.4465 37.3372 37.4855C 37.2031 37.5176 37.0667 37.5393 36.9307 37.5608L 36.9277 37.5613L 36.8022 37.5814C 36.655 37.6288 36.5015 37.6511 36.3484 37.6735L 36.2651 37.6858C 36.1125 37.7556 35.947 37.757 35.7817 37.7582C 35.6052 37.7596 35.4292 37.7611 35.2693 37.8461C 35.1968 37.8534 35.1228 37.8549 35.0486 37.8563C 34.8652 37.8601 34.6812 37.8638 34.5176 37.9546C 33.8276 37.9771 33.1377 37.9739 32.4473 37.9707L 32.4375 37.9707C 31.9346 37.9684 31.4316 37.9661 30.9287 37.9735C 30.8774 37.9722 30.8254 37.9729 30.7732 37.9736C 30.584 37.9762 30.3914 37.9789 30.2231 37.8839C 30.1235 37.8762 30.0239 37.8706 29.9241 37.865L 29.9102 37.8643L 29.8945 37.8634L 29.8921 37.8633L 29.8699 37.8621C 29.7825 37.8572 29.6948 37.8524 29.6077 37.8461C 29.4482 37.7599 29.2717 37.7589 29.0952 37.7579C 28.9302 37.757 28.7649 37.7561 28.613 37.6858C 28.5757 37.6799 28.5383 37.6746 28.501 37.6693C 28.3572 37.6488 28.2134 37.6283 28.0769 37.5773C 27.9771 37.5573 27.8772 37.5382 27.7783 37.5203C 27.6248 37.4774 27.4683 37.447 27.3123 37.4167C 27.2454 37.4038 27.1787 37.3909 27.1123 37.377C 26.9685 37.3401 26.8245 37.3021 26.6826 37.2631L 26.4851 37.2051C 26.3994 37.1796 26.3135 37.1559 26.2275 37.1322L 26.2219 37.1307C 26.1252 37.104 26.0288 37.0773 25.9329 37.0481L 25.8062 37.0172L 25.7288 36.9985C 25.6436 36.9667 25.5581 36.9364 25.4724 36.9061L 25.4568 36.9006L 25.4456 36.8967L 25.2959 36.8436C 25.1853 36.8057 25.0757 36.7677 24.9673 36.7277C 24.9146 36.7192 24.8105 36.7002 24.7588 36.6907C 24.6897 36.6533 24.6204 36.6163 24.551 36.5795L 24.5347 36.5708L 24.5173 36.5616C 24.4187 36.5089 24.3198 36.4561 24.2219 36.4019C 24.1682 36.3956 24.0608 36.3829 24.0071 36.3756L 23.7856 36.2574C 23.6794 36.1996 23.5742 36.1416 23.47 36.0836L 23.3704 36.0754L 23.2507 36.0657C 22.979 35.8844 22.7009 35.7114 22.4043 35.5724C 22.0151 35.4143 21.6692 35.1824 21.3237 34.9508C 21.199 34.8672 21.0742 34.7837 20.9478 34.7037C 20.0037 34.1061 19.1057 33.4315 18.3408 32.6208C 17.2776 31.6375 16.3408 30.5201 15.6008 29.2805C 15.4214 29.0043 15.2539 28.7208 15.1143 28.4235L 15.0068 28.2148C 14.9358 28.0736 14.865 27.9313 14.7964 27.7889C 14.7383 27.6866 14.6792 27.5845 14.6201 27.4833C 14.6138 27.4296 14.6018 27.3241 14.5964 27.2714C 14.5374 27.1681 14.4783 27.0648 14.4204 26.9625C 14.3848 26.8508 14.3484 26.7401 14.3108 26.6305L 14.272 26.4249C 14.228 26.351 14.1846 26.2765 14.1414 26.2021L 14.0938 26.1204C 14.0691 25.9717 14.0422 25.8241 13.9983 25.6797L 13.9338 25.4879C 13.9021 25.3837 13.874 25.2789 13.8462 25.1742L 13.8406 25.1531C 13.8223 25.0836 13.8037 25.0142 13.7844 24.9451L 13.781 24.9316C 13.7468 24.7937 13.7122 24.6549 13.6707 24.5192L 13.6692 24.5116L 13.6665 24.4978C 13.6484 24.4071 13.6304 24.3171 13.6116 24.2272C 13.5632 24.1091 13.5498 23.9841 13.5364 23.8594C 13.5217 23.7233 13.5071 23.5873 13.4473 23.4608C 13.4399 23.3945 13.4382 23.3269 13.4363 23.2592L 13.436 23.2509L 13.4358 23.2424C 13.4314 23.0632 13.4268 22.8833 13.3354 22.724ZM 19.9146 39.3091L 19.718 39.3682C 19.6074 39.4041 19.4956 39.4388 19.384 39.4735C 19.2961 39.5172 19.2087 39.5615 19.1211 39.606L 19.0725 39.6306L 18.8564 39.7277C 18.168 40.0765 17.6084 40.6362 17.2087 41.2834C 17.1489 41.3864 17.0859 41.4877 17.0232 41.5891L 17.0164 41.6C 16.9731 41.6696 16.9299 41.7393 16.8877 41.8094C 16.8555 41.9202 16.821 42.0308 16.7856 42.1426C 16.7695 42.1899 16.7373 42.2859 16.7222 42.3344C 16.6729 42.4817 16.6501 42.6355 16.6274 42.7894L 16.6169 42.8593C 16.4946 43.2367 16.4956 43.6656 16.616 44.0441L 16.626 44.1089L 16.627 44.1155C 16.6509 44.2681 16.6748 44.4213 16.7222 44.5691L 16.7856 44.762C 16.822 44.8705 16.8577 44.9791 16.8909 45.0897C 17.3237 45.9489 17.9553 46.7552 18.8564 47.1748C 19.0327 47.2559 19.2087 47.3402 19.3828 47.4266L 19.603 47.549C 19.7051 47.5605 19.8083 47.5732 19.9114 47.5869C 20.0662 47.6661 20.2361 47.6665 20.406 47.6669C 20.5708 47.6672 20.7354 47.6676 20.8867 47.7397C 21.0488 47.6725 21.2214 47.6691 21.3945 47.6656C 21.5552 47.6624 21.7163 47.6592 21.8694 47.6049C 22.0134 47.5658 22.1562 47.5269 22.2991 47.4868L 22.4978 47.4404C 22.6633 47.3013 22.8523 47.1958 23.0542 47.1168C 23.7341 46.7384 24.2905 46.184 24.6838 45.522C 24.7493 45.3754 24.8169 45.2321 24.8867 45.0897L 25.0115 44.8768L 25.0586 44.6755C 25.1096 44.5366 25.1311 44.3909 25.1523 44.2461L 25.167 44.1495C 25.2917 43.7036 25.2939 43.1987 25.1638 42.7539L 25.1421 42.6455C 25.1296 42.5841 25.1174 42.5229 25.106 42.4619C 25.0554 42.3207 25.0276 42.1731 25.0007 42.0276L 24.8933 41.8104C 24.6624 41.3224 24.3262 40.8914 23.9812 40.4771C 23.8767 40.3999 23.7756 40.3173 23.6746 40.2346C 23.4136 40.0215 23.1523 39.808 22.832 39.6865C 22.6848 39.6138 22.5386 39.5389 22.3948 39.463C 22.342 39.4535 22.238 39.4357 22.1863 39.4272C 22.0789 39.3818 21.9714 39.3365 21.8652 39.2933C 21.2271 39.2069 20.5452 39.1753 19.9146 39.3091ZM 43.7603 39.4177C 43.9033 39.3766 44.0461 39.3375 44.1899 39.2997C 44.4263 39.2225 44.6733 39.2273 44.9197 39.2321C 45.0208 39.2339 45.1213 39.2358 45.2212 39.2322C 45.2917 39.2349 45.3638 39.2333 45.436 39.2317C 45.6428 39.2272 45.8521 39.2225 46.0408 39.3186L 46.1853 39.3337L 46.3545 39.3513L 46.4919 39.4351L 46.667 39.5421L 46.8787 39.5642C 47.0149 39.6675 47.1589 39.7614 47.3093 39.8435C 48.0376 40.2272 48.6091 40.866 48.9561 41.5975C 48.9854 41.6626 49.0159 41.7277 49.0464 41.793L 49.1118 41.9338C 49.1709 42.035 49.23 42.1362 49.29 42.2374C 49.3008 42.3386 49.3125 42.4398 49.3264 42.542C 49.4209 42.7285 49.417 42.9343 49.4133 43.1381C 49.4121 43.2084 49.4109 43.2783 49.4136 43.3473C 49.4102 43.4434 49.4119 43.5404 49.4138 43.6376C 49.4182 43.8806 49.4226 44.1249 49.3459 44.3582L 49.3047 44.5007C 49.2778 44.5939 49.2507 44.6874 49.2224 44.7809L 49.1836 44.9844L 49.0701 45.1599C 48.9941 45.2769 48.9182 45.3937 48.8452 45.5125C 48.4189 46.3009 47.7185 46.9502 46.8936 47.3265C 46.854 47.3448 46.7849 47.376 46.7285 47.4014L 46.6724 47.4266C 46.5618 47.4614 46.4512 47.4973 46.3416 47.5353L 46.145 47.5942C 45.9692 47.671 45.7803 47.6697 45.5916 47.6683C 45.4065 47.667 45.2214 47.6656 45.0483 47.7377C 44.8958 47.6686 44.7307 47.6672 44.5657 47.6659C 44.4006 47.6646 44.2356 47.6632 44.0825 47.5942L 43.886 47.5353C 43.7744 47.4983 43.6636 47.4625 43.553 47.4287C 43.377 47.3413 43.2019 47.2559 43.0256 47.1726C 42.7671 47.0804 42.5684 46.9033 42.3694 46.7261C 42.2661 46.6338 42.1624 46.5415 42.0503 46.4611C 41.7131 46.1174 41.394 45.7412 41.22 45.288C 41.1277 45.114 41.0352 44.9401 40.9407 44.7682L 40.9302 44.6913L 40.8999 44.4668C 40.8179 44.2974 40.8127 44.1121 40.8079 43.9283C 40.8062 43.8617 40.8042 43.7953 40.7988 43.73C 40.6775 43.5603 40.6809 43.342 40.7979 43.1735L 40.8044 43.0389C 40.8137 42.8389 40.8228 42.6388 40.8762 42.4451C 40.9214 42.3386 40.9666 42.2332 41.0127 42.1288L 41.0459 41.9222C 41.103 41.8199 41.1599 41.7178 41.2168 41.6144C 41.3689 41.2556 41.6191 40.9568 41.8684 40.6593C 41.9287 40.5872 41.9893 40.5151 42.0481 40.4423L 42.1311 40.375C 42.5054 40.0718 42.8818 39.7664 43.335 39.579L 43.4202 39.5342C 43.4692 39.5083 43.5227 39.4801 43.5562 39.463L 43.6555 39.441L 43.7603 39.4177Z" transform="translate(0 0.000244141)" fill="#767676"/>
</g>
</g>
</g>
</svg>
