<svg width="60" height="51" viewBox="0 0 60 51" version="1.1" xmlns="http://www.w3.org/2000/svg" xmlns:xlink="http://www.w3.org/1999/xlink">
<g fill="none">
<path fill-rule="evenodd" clip-rule="evenodd" d="M 29.9995 0C 41.4563 0 51.1738 7.57422 54.3918 17.9692C 57.6792 18.9445 60 21.9993 60 25.4771C 60 28.9547 57.6792 32.0094 54.3918 32.9849C 51.1741 43.38 41.4565 50.9543 29.9995 50.9543C 18.5422 50.9543 8.82471 43.38 5.60693 32.9846C 2.32031 32.0082 0 28.9534 0 25.4771C 0 22.0005 2.32031 18.9457 5.60718 17.9694C 8.82471 7.57422 18.5422 0 29.9995 0ZM 2.23877 25.4769C 2.23877 27.4652 3.30054 29.2605 4.92773 30.256C 4.63208 28.7074 4.47534 27.1104 4.47534 25.4771C 4.47534 23.8438 4.63208 22.2466 4.92773 20.6979C 3.30029 21.6932 2.23877 23.4885 2.23877 25.4769ZM 29.9995 48.7196C 17.1602 48.7196 6.71436 38.2931 6.71436 25.4772C 6.71436 16.6141 11.7109 8.8949 19.0393 4.97571C 20.1526 7.34033 23.6545 13.2567 31.9556 16.5712C 32.0918 16.6256 32.2324 16.6514 32.3708 16.6514C 32.8149 16.6514 33.2356 16.3856 33.4106 15.9486C 33.6401 15.3757 33.3608 14.7255 32.7869 14.4962C 25.2444 11.4847 22.0334 6.02783 21.0679 4.01355C 23.6106 2.95532 26.3799 2.33508 29.281 2.24683C 30.0569 3.81738 32.2844 7.50464 36.887 9.5929C 37.0371 9.66113 37.1946 9.69324 37.3494 9.69324C 37.7749 9.69324 38.1816 9.44983 38.3694 9.03796C 38.625 8.4762 38.3762 7.81384 37.8132 7.55859C 34.7124 6.15161 32.8513 3.85071 31.887 2.31165C 43.8469 3.27405 53.2844 13.2958 53.2844 25.4773C 53.2847 38.2931 42.8391 48.7196 29.9995 48.7196ZM 55.5232 25.4772C 55.5232 27.1106 55.3665 28.7081 55.0708 30.257C 56.699 29.2622 57.761 27.4666 57.7607 25.4771C 57.7607 23.4874 56.6987 21.6918 55.0706 20.697C 55.3665 22.246 55.5232 23.8438 55.5232 25.4772Z" transform="translate(0 0.0230713)" fill="#BDBDBD"/>
<path d="M 4.85379 0C 2.17734 0 0 2.17335 0 4.84488C 0 5.46191 0.501094 5.9622 1.11937 5.9622C 1.73766 5.9622 2.23875 5.46191 2.23875 4.84488C 2.23875 3.40554 3.4118 2.23476 4.85367 2.23476C 6.29555 2.23476 7.46871 3.40565 7.46871 4.84488C 7.46871 5.46191 7.9698 5.9622 8.58809 5.9622C 9.20637 5.9622 9.70746 5.46191 9.70746 4.84488C 9.7077 2.17335 7.53023 0 4.85379 0Z" transform="translate(15.5606 24.131)" fill="#BDBDBD"/>
<path d="M 4.85391 0C 2.17746 0 0 2.17335 0 4.84488C 0 5.46191 0.501094 5.9622 1.11937 5.9622C 1.73777 5.9622 2.23875 5.46191 2.23875 4.84488C 2.23875 3.40554 3.4118 2.23476 4.85379 2.23476C 6.2959 2.23476 7.46883 3.40565 7.46883 4.84488C 7.46883 5.46191 7.96992 5.9622 8.5882 5.9622C 9.2066 5.9622 9.70758 5.46191 9.70758 4.84488C 9.70758 2.17335 7.53035 0 4.85391 0Z" transform="translate(34.7305 24.131)" fill="#BDBDBD"/>
<path d="M 13.8142 0.327231C 13.3769 -0.109077 12.6682 -0.109077 12.2309 0.327231C 9.38569 3.16721 4.7562 3.16721 1.91101 0.327231C 1.47366 -0.109077 0.765029 -0.109077 0.32792 0.327231C -0.109307 0.763538 -0.109307 1.4711 0.32792 1.90729C 2.13026 3.70633 4.52511 4.69721 7.07112 4.69721C 9.61714 4.69721 12.0119 3.70645 13.8143 1.90729C 14.2514 1.47099 14.2514 0.763538 13.8142 0.327231Z" transform="translate(23.0367 36.1688)" fill="#BDBDBD"/>
<path d="M 4.10684 0L 1.11937 0C 0.500977 0 0 0.500291 0 1.11732C 0 1.73435 0.501211 2.23464 1.11937 2.23464L 4.10684 2.23464C 4.72523 2.23464 5.22621 1.73435 5.22621 1.11732C 5.22621 0.500291 4.72512 0 4.10684 0Z" transform="translate(27.3864 30.5919)" fill="#BDBDBD"/>
</g>
</svg>
