<svg width="43" height="50" viewBox="0 0 43 50" version="1.1" xmlns="http://www.w3.org/2000/svg" xmlns:xlink="http://www.w3.org/1999/xlink">
<g fill="none">
<path d="M 8.08678 0.277607C 6.29836 2.08614 3.38842 2.08614 1.60011 0.277607C 1.23408 -0.0925356 0.640636 -0.0925356 0.274608 0.277607C -0.0915361 0.647749 -0.0915361 1.24787 0.274608 1.61801C 1.53426 2.89182 3.18888 3.52867 4.8435 3.52867C 6.49813 3.52867 8.15275 2.89182 9.4124 1.61801C 9.77855 1.24787 9.77855 0.647749 9.4124 0.277607C 9.04637 -0.0925356 8.45281 -0.0925356 8.08678 0.277607Z" transform="translate(16.6897 37.4614)" fill="#FF680D"/>
<path fill-rule="evenodd" clip-rule="evenodd" d="M 42.6658 47.1425C 40.4702 44.6837 40.3772 38.4186 40.637 31.9362C 41.5935 31.0277 42.1926 29.7388 42.1926 28.3104C 42.1926 27.056 41.7302 25.9094 40.9702 25.0332C 41.2898 18.4214 41.459 13.9999 39.3853 9.91711C 37.9702 7.13134 35.6809 4.80371 32.5806 2.99902C 28.9673 0.895749 24.8457 -0.136722 20.6607 0.0145232C 16.9846 0.146969 13.5625 1.8789 11.2024 4.78466C 8.1553 4.96801 5.38308 6.64502 3.89187 9.23694C 3.7637 9.45947 3.63992 9.68823 3.52371 9.91699C 1.44851 14.002 1.6177 18.4232 1.93728 25.0343C 1.17751 25.9104 0.715844 27.0565 0.715844 28.3104C 0.715844 29.7384 1.31448 31.0269 2.27053 31.9353C 2.5303 38.4182 2.43728 44.6838 0.241722 47.1426C 0.0339588 47.3751 -0.0466076 47.6964 0.0263905 48.0009C 0.0991444 48.3054 0.316185 48.5538 0.60598 48.6647C 3.07742 49.609 5.47073 49.9467 7.63113 49.9467C 9.87502 49.9467 11.8675 49.5819 13.4314 49.1542C 16.1492 48.4111 18.0659 47.3679 18.72 46.983C 19.6101 47.1313 20.5232 47.21 21.4541 47.21C 22.385 47.21 23.2979 47.1315 24.1878 46.9832C 24.8418 47.3682 26.7586 48.4111 29.4759 49.1542C 31.5623 49.7247 33.4966 49.9479 35.2464 49.9479C 38.1609 49.9479 40.5635 49.3285 42.3015 48.6644C 42.5913 48.5536 42.8081 48.3053 42.8811 48.0007C 42.9541 47.6963 42.8736 47.3751 42.6658 47.1425ZM 38.209 30.267L 38.209 25.5614L 38.209 25.5238L 38.209 25.3796C 39.4312 25.7805 40.3179 26.9424 40.3179 28.3103C 40.3179 29.6891 39.4175 30.8592 38.18 31.251C 38.1985 30.9253 38.209 30.5974 38.209 30.267ZM 5.51199 10.1904C 5.40041 10.3844 5.2925 10.5839 5.19119 10.7833C 3.5303 14.0529 3.48074 17.6073 3.75295 23.7136C 4.05471 23.5868 4.37136 23.4899 4.69949 23.4255L 4.69949 23.2516C 4.69949 22.7678 5.05959 22.3616 5.53518 22.3092C 9.28249 21.8962 11.6621 20.1433 13.0242 16.7927C 13.1448 16.4962 13.4053 16.2814 13.7168 16.2218C 14.0281 16.1622 14.3484 16.2657 14.5679 16.4973C 16.4329 18.465 23.4226 24.7539 36.3343 24.6145L 36.3343 22.4618C 36.3343 21.9382 36.7539 21.5139 37.2715 21.5139C 37.7893 21.5139 38.209 21.9382 38.209 22.4618L 38.209 23.4257C 38.5366 23.49 38.8531 23.5868 39.1543 23.7134C 39.4265 17.6057 39.3775 14.051 37.7173 10.7833C 36.4702 8.32776 34.4273 6.26147 31.645 4.64196C 28.3364 2.71594 24.5611 1.77075 20.7276 1.90905C 17.4656 2.02661 14.4346 3.62451 12.4116 6.29284C 12.2383 6.52136 11.9719 6.65783 11.6873 6.66382L 11.6743 6.66406C 9.10793 6.6936 6.74661 8.0448 5.51199 10.1904ZM 4.72829 31.251C 3.49075 30.8592 2.59036 29.6891 2.59036 28.3103C 2.59036 26.9423 3.47707 25.7804 4.69924 25.3796L 4.69924 30.2668C 4.69924 30.5973 4.70974 30.9252 4.72829 31.251ZM 4.18728 33.066C 4.39993 39.6106 4.10989 44.4067 2.4385 47.2917C 8.09035 49.0083 13.2234 47.4446 15.9356 46.2645C 10.2967 44.2695 6.02371 39.3076 4.95754 33.238C 4.69363 33.2012 4.4363 33.1438 4.18728 33.066ZM 21.4541 45.3142C 13.2493 45.3142 6.574 38.564 6.574 30.2668L 6.574 24.0787C 10.0894 23.4938 12.5923 21.7438 14.1787 18.7578C 15.5293 20.0037 17.7127 21.7123 20.7901 23.2098C 25.417 25.4614 30.6421 26.572 36.3343 26.5105L 36.3343 30.2668C 36.3343 38.5641 29.659 45.3142 21.4541 45.3142ZM 26.9695 46.2657C 27.7881 46.6235 28.8252 47.016 30.0271 47.3409C 33.6526 48.321 37.1594 48.304 40.4697 47.2927C 38.7974 44.4077 38.5076 39.6117 38.7202 33.0663C 38.4717 33.1439 38.2146 33.2012 37.951 33.238C 36.8845 39.309 32.6101 44.2716 26.9695 46.2657Z" transform="translate(0.0791016 0.000244141)" fill="#FF680D"/>
<path d="M 0.274608 1.01006C -0.0915361 1.3802 -0.0915361 1.98032 0.274608 2.35046C 0.640636 2.7206 1.23408 2.7206 1.60011 2.35046C 2.20094 1.74311 3.17834 1.74299 3.77917 2.35046C 3.96218 2.53553 4.20202 2.62807 4.44198 2.62807C 4.68193 2.62807 4.92177 2.53553 5.10479 2.35046C 5.47093 1.98032 5.47093 1.3802 5.10479 1.01006C 3.77319 -0.336626 1.6062 -0.336745 0.274608 1.01006Z" transform="translate(10.0552 26.448)" fill="#FF680D"/>
<path d="M 5.10479 2.35041C 5.47093 1.98027 5.47093 1.38015 5.10479 1.01001C 3.77307 -0.336671 1.6062 -0.336671 0.274608 1.01001C -0.0915361 1.38015 -0.0915361 1.98027 0.274608 2.35041C 0.640636 2.72056 1.23408 2.72056 1.60011 2.35041C 2.20094 1.74295 3.17846 1.74307 3.77917 2.35041C 3.96218 2.53549 4.20202 2.62802 4.44198 2.62802C 4.68193 2.62802 4.92177 2.53549 5.10479 2.35041Z" transform="translate(27.632 26.448)" fill="#FF680D"/>
</g>
</svg>
