<svg width="32" height="37" viewBox="0 0 32 37" version="1.1" xmlns="http://www.w3.org/2000/svg" xmlns:xlink="http://www.w3.org/1999/xlink">
<title>ot_5_do_7</title>
<desc>Created using Figma</desc>
<g id="Canvas" transform="translate(-1156 -2826)">
<g id="ot_5_do_7">
<g id="Shape">
<use xlink:href="#path0_fill" transform="translate(1168.15 2853.37)" fill="#BDBDBD"/>
</g>
<g id="Shape">
<use xlink:href="#path1_fill" transform="translate(1156 2826)" fill="#BDBDBD"/>
</g>
<g id="Shape">
<use xlink:href="#path2_fill" transform="translate(1163.3 2845.32)" fill="#BDBDBD"/>
</g>
<g id="Shape">
<use xlink:href="#path3_fill" transform="translate(1176.15 2845.32)" fill="#BDBDBD"/>
</g>
</g>
</g>
<defs>
<path id="path0_fill" d="M 5.91533 0.202823C 4.60713 1.52416 2.47856 1.52416 1.17045 0.202823C 0.902708 -0.0676076 0.468613 -0.0676076 0.200871 0.202823C -0.066957 0.473253 -0.066957 0.911707 0.200871 1.18214C 1.12228 2.1128 2.33261 2.57809 3.54293 2.57809C 4.75326 2.57809 5.96358 2.1128 6.885 1.18214C 7.15282 0.911707 7.15282 0.473253 6.885 0.202823C 6.61726 -0.0676076 6.18307 -0.0676076 5.91533 0.202823Z"/>
<path id="path1_fill" fill-rule="evenodd" d="M 31.2092 34.443C 29.6031 32.6466 29.5351 28.0692 29.7252 23.3331C 30.4249 22.6693 30.8631 21.7276 30.8631 20.6839C 30.8631 19.7674 30.525 18.9298 29.969 18.2896C 30.2026 13.4591 30.3265 10.2286 28.8094 7.24569C 27.7745 5.21029 26.0998 3.50985 23.8321 2.19125C 21.1891 0.654385 18.1741 -0.0997656 15.1129 0.0105859C 12.4239 0.10751 9.92064 1.37289 8.19432 3.49594C 5.96532 3.62973 3.93761 4.85507 2.84679 6.74862C 2.75304 6.91122 2.66246 7.07846 2.5775 7.24569C 1.05956 10.2301 1.18333 13.4603 1.41698 18.2904C 0.861313 18.9305 0.523545 19.7679 0.523545 20.6839C 0.523545 21.7274 0.961533 22.6688 1.66075 23.3324C 1.85082 28.0689 1.78282 32.6466 0.176743 34.443C 0.0248877 34.6129 -0.0340723 34.8477 0.0192724 35.0702C 0.0724951 35.2926 0.231309 35.4742 0.443223 35.555C 2.25096 36.245 4.00182 36.4918 5.58189 36.4918C 7.22337 36.4918 8.68077 36.2252 9.82481 35.9127C 11.8127 35.3697 13.2148 34.6078 13.6933 34.3265C 14.3443 34.4349 15.0123 34.4923 15.6933 34.4923C 16.3741 34.4923 17.0419 34.4349 17.6927 34.3265C 18.1712 34.608 19.5733 35.3697 21.561 35.9127C 23.0873 36.3297 24.5021 36.4925 25.782 36.4925C 27.914 36.4925 29.6714 36.0401 30.9427 35.555C 31.1548 35.474 31.3133 35.2926 31.3667 35.0699C 31.42 34.8475 31.3611 34.6129 31.2092 34.443ZM 27.9491 22.1134L 27.9491 18.6754L 27.9491 18.648L 27.9491 18.5426C 28.8432 18.8355 29.4918 19.6844 29.4918 20.6837C 29.4918 21.691 28.8332 22.546 27.928 22.8321C 27.9415 22.5943 27.9491 22.3548 27.9491 22.1134ZM 4.03197 7.4454C 3.9503 7.58725 3.87145 7.733 3.79723 7.87875C 2.58238 10.2674 2.54613 12.8643 2.74535 17.3258C 2.96593 17.233 3.19762 17.1622 3.43761 17.1153L 3.43761 16.9881C 3.43761 16.6346 3.70116 16.338 4.04894 16.2996C 6.79002 15.9979 8.53075 14.7171 9.52709 12.2694C 9.61522 12.0526 9.80589 11.8956 10.0338 11.8521C 10.2613 11.8087 10.4957 11.8844 10.6562 12.0533C 12.0205 13.4911 17.1333 18.0858 26.5779 17.984L 26.5779 16.4112C 26.5779 16.0287 26.8849 15.7186 27.2635 15.7186C 27.6422 15.7186 27.9492 16.0287 27.9492 16.4112L 27.9492 17.1153C 28.1889 17.1622 28.4204 17.233 28.6409 17.3255C 28.84 12.8631 28.8039 10.2662 27.5896 7.87875C 26.6774 6.08456 25.183 4.57504 23.1479 3.39169C 20.7276 1.98446 17.966 1.29403 15.1619 1.39511C 12.7759 1.48104 10.5587 2.64853 9.07897 4.59799C 8.95226 4.76474 8.75731 4.86459 8.54906 4.86898L 8.53954 4.86923C 6.66234 4.89071 4.93504 5.87802 4.03197 7.4454ZM 3.4586 22.8321C 2.55345 22.546 1.89476 21.691 1.89476 20.6837C 1.89476 19.6842 2.54332 18.8353 3.43749 18.5426L 3.43749 22.1131C 3.43749 22.3546 3.44505 22.5941 3.4586 22.8321ZM 3.06297 24.1588C 3.21849 28.9403 3.00645 32.4444 1.7838 34.5523C 5.91808 35.8065 9.67272 34.6639 11.6566 33.8018C 7.53185 32.3441 4.40624 28.7191 3.62645 24.2845C 3.43346 24.2574 3.2451 24.2157 3.06297 24.1588ZM 15.6933 33.1075C 9.69164 33.1075 4.80882 28.1759 4.80882 22.1139L 4.80895 17.5926C 7.38036 17.1654 9.21105 15.8868 10.3716 13.7052C 11.3595 14.6153 12.9567 15.8639 15.2076 16.9579C 18.592 18.6029 22.4143 19.4144 26.5779 19.3695L 26.5779 22.1139C 26.5779 28.1759 21.6951 33.1075 15.6933 33.1075ZM 19.7275 33.8023C 20.3264 34.0638 21.0849 34.3507 21.9641 34.588C 24.6161 35.304 27.1813 35.2916 29.6026 34.5528C 28.3794 32.4449 28.1675 28.941 28.323 24.1588C 28.1412 24.2154 27.9531 24.2574 27.7602 24.2843C 26.9802 28.7198 23.8535 32.3455 19.7275 33.8023Z"/>
<path id="path2_fill" d="M 0.200871 0.73796C -0.066957 1.00839 -0.066957 1.44684 0.200871 1.71727C 0.468613 1.9877 0.902708 1.9877 1.17045 1.71727C 1.60995 1.27354 2.3249 1.27345 2.76439 1.71727C 2.89826 1.85249 3.0737 1.9201 3.24922 1.9201C 3.42475 1.9201 3.60018 1.85249 3.73406 1.71727C 4.00188 1.44684 4.00188 1.00839 3.73406 0.73796C 2.76002 -0.245943 1.17491 -0.24603 0.200871 0.73796Z"/>
<path id="path3_fill" d="M 3.73405 1.71724C 4.00188 1.44681 4.00188 1.00836 3.73405 0.737927C 2.75993 -0.245976 1.17491 -0.245976 0.200871 0.737927C -0.0669569 1.00836 -0.0669569 1.44681 0.200871 1.71724C 0.468613 1.98767 0.902708 1.98767 1.17045 1.71724C 1.60994 1.27342 2.32498 1.27351 2.76439 1.71724C 2.89826 1.85246 3.0737 1.92006 3.24922 1.92006C 3.42475 1.92006 3.60018 1.85246 3.73405 1.71724Z"/>
</defs>
</svg>
