<svg width="21" height="21" viewBox="0 0 21 21" fill="none" xmlns="http://www.w3.org/2000/svg">
<path d="M13.5205 10.8356C13.3288 10.6438 13.3288 10.3562 13.5205 10.1644L20.7123 2.9726C20.9041 2.78082 21 2.49315 21 2.30137C21 2.10959 20.9041 1.82192 20.7123 1.63014L19.3699 0.287671C19.1781 0.0958904 18.8904 0 18.6986 0C18.411 0 18.2192 0.0958904 18.0274 0.287671L10.8356 7.47945C10.6438 7.67123 10.3562 7.67123 10.1644 7.47945L2.9726 0.287671C2.78082 0.0958904 2.49315 0 2.30137 0C2.10959 0 1.82192 0.0958904 1.63014 0.287671L0.287671 1.63014C0.0958904 1.82192 0 2.10959 0 2.30137C0 2.49315 0.0958904 2.78082 0.287671 2.9726L7.47945 10.1644C7.67123 10.3562 7.67123 10.6438 7.47945 10.8356L0.287671 18.0274C0.0958904 18.2192 0 18.5068 0 18.6986C0 18.8904 0.0958904 19.1781 0.287671 19.3699L1.63014 20.7123C1.82192 20.9041 2.10959 21 2.30137 21C2.49315 21 2.78082 20.9041 2.9726 20.7123L10.1644 13.5205C10.3562 13.3288 10.6438 13.3288 10.8356 13.5205L18.0274 20.7123C18.2192 20.9041 18.5068 21 18.6986 21C18.8904 21 19.1781 20.9041 19.3699 20.7123L20.7123 19.3699C20.9041 19.1781 21 18.8904 21 18.6986C21 18.5068 20.9041 18.2192 20.7123 18.0274L13.5205 10.8356Z" fill="#BDBDBD"/>
</svg>
