<svg width="7" height="7" viewBox="0 0 7 7" fill="none" xmlns="http://www.w3.org/2000/svg">
<path d="M4.50685 3.61187C4.44292 3.54795 4.44292 3.45205 4.50685 3.38813L6.90411 0.990868C6.96804 0.926941 7 0.83105 7 0.767123C7 0.703196 6.96804 0.607306 6.90411 0.543379L6.45662 0.0958904C6.39269 0.0319635 6.2968 0 6.23288 0C6.13699 0 6.07306 0.0319635 6.00913 0.0958904L3.61187 2.49315C3.54795 2.55708 3.45205 2.55708 3.38813 2.49315L0.990868 0.0958904C0.926941 0.0319635 0.83105 0 0.767123 0C0.703196 0 0.607306 0.0319635 0.543379 0.0958904L0.0958904 0.543379C0.0319635 0.607306 0 0.703196 0 0.767123C0 0.83105 0.0319635 0.926941 0.0958904 0.990868L2.49315 3.38813C2.55708 3.45205 2.55708 3.54795 2.49315 3.61187L0.0958904 6.00913C0.0319635 6.07306 0 6.16895 0 6.23288C0 6.2968 0.0319635 6.39269 0.0958904 6.45662L0.543379 6.90411C0.607306 6.96804 0.703196 7 0.767123 7C0.83105 7 0.926941 6.96804 0.990868 6.90411L3.38813 4.50685C3.45205 4.44292 3.54795 4.44292 3.61187 4.50685L6.00913 6.90411C6.07306 6.96804 6.16895 7 6.23288 7C6.2968 7 6.39269 6.96804 6.45662 6.90411L6.90411 6.45662C6.96804 6.39269 7 6.2968 7 6.23288C7 6.16895 6.96804 6.07306 6.90411 6.00913L4.50685 3.61187Z" fill="white" fill-opacity="0.5"/>
</svg>
