<svg width="17" height="29" viewBox="0 0 17 29" fill="none" xmlns="http://www.w3.org/2000/svg">
<path d="M14.9089 0.00593791L11.193 0C7.01833 0 4.32046 2.75667 4.32046 7.02335V10.2616H0.584289C0.26144 10.2616 0 10.5223 0 10.8438V15.5356C0 15.8572 0.261738 16.1176 0.584289 16.1176H4.32046V27.9565C4.32046 28.2781 4.5819 28.5385 4.90475 28.5385H9.77939C10.1022 28.5385 10.3637 28.2778 10.3637 27.9565V16.1176H14.7321C15.055 16.1176 15.3164 15.8572 15.3164 15.5356L15.3182 10.8438C15.3182 10.6894 15.2565 10.5416 15.1471 10.4323C15.0377 10.323 14.8886 10.2616 14.7336 10.2616H10.3637V7.5165C10.3637 6.19709 10.6794 5.5273 12.4051 5.5273L14.9083 5.52641C15.2309 5.52641 15.4923 5.26573 15.4923 4.94449V0.587853C15.4923 0.266909 15.2312 0.0065317 14.9089 0.00593791Z" transform="translate(0.70752)" fill="#FF680D"/>
</svg>
