<svg width="26" height="36" viewBox="0 0 26 36" fill="none" xmlns="http://www.w3.org/2000/svg">
<path d="M13 0C5.8318 0 0 5.55748 0 12.3885C0 14.6965 0.670872 16.9488 1.94054 18.9029L12.26 34.7503C12.4577 35.0539 12.8059 35.2384 13.1805 35.2384C13.1834 35.2384 13.1862 35.2384 13.1891 35.2384C13.5669 35.2355 13.9159 35.0454 14.1099 34.7365L24.1663 18.7355C25.366 16.8227 26 14.628 26 12.3885C26 5.55748 20.1682 0 13 0ZM22.307 17.6755L13.1641 32.2229L3.78206 17.8151C2.72523 16.1886 2.15222 14.3121 2.15222 12.3885C2.15222 6.69598 7.0265 2.05098 13 2.05098C18.9735 2.05098 23.8406 6.69598 23.8406 12.3885C23.8406 14.2551 23.3053 16.0836 22.307 17.6755Z" fill="#FF680D"/>
<path d="M6.5 0C2.9159 0 0 2.77874 0 6.19424C0 9.58793 2.86845 12.3885 6.5 12.3885C10.1763 12.3885 13 9.55063 13 6.19424C13 2.77874 10.0841 0 6.5 0ZM6.5 10.3375C4.09811 10.3375 2.15222 8.47696 2.15222 6.19424C2.15222 3.91724 4.1106 2.05098 6.5 2.05098C8.8894 2.05098 10.8406 3.91724 10.8406 6.19424C10.8406 8.44365 8.93996 10.3375 6.5 10.3375Z" transform="translate(6.5 6.19434)" fill="#FF680D"/>
</svg>
