<svg width="10" height="10" viewBox="0 0 10 10" fill="none" xmlns="http://www.w3.org/2000/svg">
<path d="M4.4334 3.26318C4.45168 3.29974 4.46996 3.3363 4.48824 3.36373C4.50652 3.39115 4.53395 3.41857 4.55223 3.44599C4.57965 3.47341 4.60707 3.50084 4.64364 3.52826C4.67106 3.54654 4.70762 3.57396 4.75332 3.5831C4.78989 3.60139 4.82645 3.61053 4.87215 3.61967C4.91786 3.62881 4.95442 3.62881 4.99098 3.62881C5.02755 3.62881 5.07325 3.62881 5.10981 3.61967C5.14638 3.61053 5.18294 3.60139 5.21036 3.5831H5.2195C5.25607 3.56482 5.29263 3.54654 5.32919 3.51912C5.35661 3.50084 5.38404 3.47341 5.41146 3.44599L5.4206 3.43685C5.44802 3.40943 5.4663 3.38201 5.48458 3.35458C5.50287 3.32716 5.52115 3.29974 5.53029 3.26318C5.53029 3.25404 5.53029 3.25404 5.53943 3.2449C5.55771 3.20833 5.56685 3.16263 5.57599 3.12607C5.58513 3.0895 5.58513 3.0438 5.58513 3.00724C5.58513 2.97067 5.58513 2.92497 5.57599 2.88841C5.56685 2.85184 5.55771 2.81528 5.53943 2.76958C5.51201 2.70559 5.47544 2.65075 5.42974 2.60504C5.4206 2.5959 5.4206 2.5959 5.41146 2.58676C5.38404 2.55934 5.35661 2.54106 5.32005 2.51363C5.28349 2.49535 5.25607 2.47707 5.2195 2.45879C5.18294 2.44051 5.14638 2.43137 5.10981 2.42223C5.06411 2.41309 5.02755 2.41309 4.99098 2.41309C4.95442 2.41309 4.90872 2.41309 4.87215 2.42223C4.83559 2.43137 4.79903 2.44051 4.76247 2.45879H4.75332C4.71676 2.47707 4.6802 2.49535 4.65278 2.51363C4.61621 2.54106 4.58879 2.55934 4.56137 2.58676C4.53395 2.61418 4.50652 2.64161 4.48824 2.66903C4.46996 2.69645 4.45168 2.73301 4.4334 2.76958C4.41512 2.80614 4.40598 2.8427 4.39684 2.87927C4.3877 2.92497 4.3877 2.96153 4.3877 2.99809C4.3877 3.03466 4.3877 3.08036 4.39684 3.11692C4.40598 3.19005 4.42426 3.22661 4.4334 3.26318Z" fill="#828282"/>
<path d="M5.70393 6.60898H5.49369V4.3695C5.49369 4.24153 5.39314 4.13184 5.25603 4.13184H4.29625C4.16828 4.13184 4.05859 4.23238 4.05859 4.3695V4.8631C4.05859 4.99107 4.15914 5.10076 4.29625 5.10076H4.48821V6.61813H4.29625C4.16828 6.61813 4.05859 6.71867 4.05859 6.85579V7.34939C4.05859 7.47736 4.15914 7.58705 4.29625 7.58705H5.70393C5.8319 7.58705 5.94159 7.4865 5.94159 7.34939V6.85579C5.94159 6.71867 5.8319 6.60898 5.70393 6.60898Z" fill="#828282"/>
<path d="M5 0C2.23949 0 0 2.23949 0 5C0 7.76051 2.23949 10 5 10C7.76051 10 10 7.76051 10 5C10 2.23949 7.76051 0 5 0ZM5 9.34186C2.60512 9.34186 0.658135 7.39488 0.658135 5C0.658135 2.60512 2.60512 0.658135 5 0.658135C7.39488 0.658135 9.34186 2.60512 9.34186 5C9.34186 7.39488 7.39488 9.34186 5 9.34186Z" fill="#828282"/>
</svg>
