<svg width="28" height="29" viewBox="0 0 28 29" fill="none" xmlns="http://www.w3.org/2000/svg">
<path fill-rule="evenodd" clip-rule="evenodd" d="M8.03969 0H19.6834C24.1191 0 27.7231 3.70996 27.7231 8.27612V20.2623C27.7231 24.8331 24.1236 28.5385 19.6834 28.5385H8.03969C3.604 28.5385 0 24.8285 0 20.2623V8.27612C0 3.70532 3.59949 0 8.03969 0ZM7.76237 2.85352C5.00639 2.85352 2.77222 5.15344 2.77222 7.99048V20.5474C2.77222 23.387 5.00393 25.6843 7.76237 25.6843H19.9605C22.7165 25.6843 24.9507 23.3844 24.9507 20.5474V7.99048C24.9507 5.15088 22.719 2.85352 19.9605 2.85352H7.76237ZM22.8716 6.77783C22.8716 5.79272 22.0959 4.99414 21.1389 4.99414C20.182 4.99414 19.4062 5.79272 19.4062 6.77783C19.4062 7.76294 20.182 8.5614 21.1389 8.5614C22.0959 8.5614 22.8716 7.76294 22.8716 6.77783ZM13.8616 7.13477C17.6893 7.13477 20.7923 10.3291 20.7923 14.2694C20.7923 18.2097 17.6893 21.4041 13.8616 21.4041C10.0338 21.4041 6.93079 18.2097 6.93079 14.2694C6.93079 10.3291 10.0338 7.13477 13.8616 7.13477ZM9.70312 14.269C9.70312 11.9049 11.5649 9.98828 13.8616 9.98828C16.1582 9.98828 18.0201 11.9049 18.0201 14.269C18.0201 16.6333 16.1582 18.5498 13.8616 18.5498C11.5649 18.5498 9.70312 16.6333 9.70312 14.269Z" fill="#FF680D"/>
</svg>
