<svg width="36" height="25" viewBox="0 0 36 25" fill="none" xmlns="http://www.w3.org/2000/svg">
<path d="M34.5458 -4.81239e-07H1.4542C0.651094 -4.81239e-07 0 0.651818 0 1.45598C0 2.26014 0.651094 2.91196 1.4542 2.91196H34.5458C35.349 2.91196 36 2.26014 36 1.45598C36 0.651889 35.349 -4.81239e-07 34.5458 -4.81239e-07Z" transform="translate(0 11.044)" fill="#FF680D"/>
<path d="M34.5458 2.10542e-07H1.4542C0.651094 2.10542e-07 0 0.651889 0 1.45598C0 2.26007 0.651094 2.91196 1.4542 2.91196H34.5458C35.349 2.91196 36 2.26007 36 1.45598C36 0.651889 35.349 2.10542e-07 34.5458 2.10542e-07Z" fill="#FF680D"/>
<path d="M34.5458 -6.35923e-07H1.4542C0.651094 -6.35923e-07 0 0.651818 0 1.45598C0 2.26014 0.651094 2.91196 1.4542 2.91196H34.5458C35.349 2.91196 36 2.26014 36 1.45598C36 0.651818 35.349 -6.35923e-07 34.5458 -6.35923e-07Z" transform="translate(0 22.0881)" fill="#FF680D"/>
</svg>
