<svg width="18" height="18" viewBox="0 0 18 18" fill="none" xmlns="http://www.w3.org/2000/svg">
<path d="M9.02209 0C4.04941 0 0 4.04978 0 9.04475C0 13.9944 4.04941 18 9.02209 18C13.9948 18 18 14.0165 18 9.04475C18 4.04978 13.8148 0 9.02209 0ZM9.02209 16.8062C4.74762 16.8062 1.23765 13.3198 1.23765 9.04494C1.23765 4.74819 4.74781 1.19215 9.02209 1.19215C13.2752 1.19215 16.7624 4.77009 16.7624 9.04494C16.7624 13.275 13.2754 16.8062 9.02209 16.8062Z" fill="#FF680D"/>
<path d="M12.4874 4.27656C11.9261 4.27656 11.7001 4.52409 11.4529 5.01933L9.02237 10.0815H9.00028L6.54764 5.01915C6.29973 4.52371 6.07523 4.27637 5.51258 4.27637C4.77018 4.27637 4.52246 4.74877 4.52246 5.19851V13.0505C4.52246 13.4791 4.86062 13.7255 5.26486 13.7255C5.62473 13.7255 6.02973 13.479 6.02973 13.0505V7.20122H6.05258L8.27997 11.7461C8.43762 12.061 8.64059 12.2419 9.00046 12.2419C9.35939 12.2419 9.56293 12.061 9.7204 11.7461L11.9474 7.20122H11.9703V13.0505C11.9703 13.4791 12.3749 13.7255 12.7349 13.7255C13.1403 13.7255 13.4773 13.479 13.4773 13.0505V5.1987C13.4771 4.74896 13.2304 4.27656 12.4874 4.27656Z" fill="#FF680D"/>
</svg>
