<svg width="45" height="45" viewBox="0 0 45 45" version="1.1" xmlns="http://www.w3.org/2000/svg" xmlns:xlink="http://www.w3.org/1999/xlink">
<title>Vector</title>
<desc>Created using Figma</desc>
<g id="Canvas" transform="translate(-8542 -437)">
<g id="Vector">
<use xlink:href="#path0_fill" transform="translate(8542 437)" fill="#FF680D"/>
</g>
</g>
<defs>
<path id="path0_fill" d="M 13.5678 2.18956e-07C 13.794 2.18956e-07 13.794 0 14.0201 0.229592C 14.2462 0.459184 14.9246 1.14796 14.9246 1.60714C 14.9246 2.06633 14.9246 3.21429 15.1508 4.13265C 15.603 5.28061 16.0553 8.26531 16.7337 9.87245C 17.4121 11.4796 17.6382 12.398 16.9598 13.3163C 16.2814 14.4643 11.9849 18.8265 11.9849 18.8265C 11.9849 18.8265 13.1156 21.1224 14.4724 22.5C 15.603 24.1071 17.4121 26.4031 19.6734 28.2398C 21.9347 30.3061 24.4221 32.1429 26.9095 33.2908C 29.397 30.7653 31.4322 28.699 32.1106 28.2398C 32.7889 27.7806 32.7889 27.551 33.9196 28.0102C 35.0503 28.4694 36.6332 29.1582 38.4422 29.3878C 40.0251 29.6173 41.8342 29.8469 42.9648 30.0765C 44.0955 30.3061 44.0955 30.3061 44.3216 30.7653C 44.7739 31.2245 45 31.9133 45 32.1429C 45 32.3724 45 33.0612 45 35.3571C 45 37.6531 45 40.8673 45 41.5561C 45 42.2449 45 42.2449 44.7739 42.7041C 44.5477 43.1633 44.3216 44.3112 44.3216 44.3112C 44.3216 44.5408 43.191 45 42.5126 45C 41.8342 45 39.3467 45 37.7638 44.7704C 36.1809 44.5408 31.8844 43.6225 30.3015 42.9337C 28.7186 42.4745 23.5176 40.6378 17.1859 35.8163C 11.3065 31.2245 7.01005 25.0255 4.52261 19.9745C 2.03518 14.9235 0.678392 9.41327 0.452261 6.65816C 1.01088e-07 3.90306 0 2.7551 0 2.06633C 0.226131 1.37755 0.904522 0.688775 1.35678 0.459183C 1.80905 0.229592 2.48744 2.18956e-07 3.16583 2.18956e-07C 3.84422 2.18956e-07 5.65327 2.18956e-07 8.1407 2.18956e-07C 10.6281 2.18956e-07 13.5678 2.18956e-07 13.5678 2.18956e-07Z"/>
</defs>
</svg>
