<svg width="51" height="63" viewBox="0 0 51 63" version="1.1" xmlns="http://www.w3.org/2000/svg" xmlns:xlink="http://www.w3.org/1999/xlink">
<g fill="none">
<path fill-rule="evenodd" clip-rule="evenodd" d="M 14.0005 0.554077C 14.186 0.600464 14.3764 0.635742 14.5674 0.671021C 15.0554 0.761108 15.5461 0.851807 15.9633 1.13208C 16.8376 1.76624 17.3259 2.7655 17.7595 3.72229C 18.1665 4.68201 18.5075 5.66638 18.8484 6.65076C 19.0595 7.26062 19.2707 7.87048 19.4978 8.47449C 19.8503 8.58984 20.2148 8.66003 20.5796 8.73035L 20.5822 8.73083C 20.7524 8.76355 20.9226 8.79639 21.0918 8.83374C 21.7751 8.9812 22.4592 9.12366 23.1438 9.26611L 23.1711 9.27185C 24.0735 9.45959 24.9758 9.64734 25.8762 9.84656C 27.1242 10.1122 28.2112 11.2145 28.2334 12.5253C 28.2065 12.5557 28.2133 12.6185 28.2212 12.6884L 28.2214 12.6903C 28.2282 12.7515 28.2356 12.8177 28.2221 12.8726C 28.6423 12.7032 29.0957 12.624 29.5481 12.6769C 30.2375 12.6636 30.9275 12.6649 31.6181 12.6663L 31.6352 12.6663C 32.0464 12.6671 32.458 12.668 32.8691 12.6658C 33.8698 12.6538 34.8567 13.2854 35.216 14.2251C 35.2273 14.2449 35.2358 14.269 35.2446 14.2943L 35.2456 14.2968L 35.247 14.3007C 35.2763 14.3839 35.3081 14.4742 35.4184 14.4448C 36.0219 14.4524 36.6264 14.449 37.2309 14.4456C 37.0774 14.2283 36.9436 13.9985 36.8095 13.7689L 36.8049 13.761L 36.8003 13.7531L 36.7956 13.7451C 36.6911 13.5657 36.5866 13.3862 36.4736 13.2123C 36.1963 12.7892 36.08 12.264 36.1679 11.7644C 36.2509 11.0442 36.81 10.4374 37.487 10.2075C 38.1487 9.98193 38.9409 10.1147 39.4643 10.5872C 39.6782 10.7599 39.8144 10.9956 39.9504 11.231C 40.0119 11.3376 40.0735 11.4442 40.1423 11.5448L 40.2365 11.7001L 40.25 11.7222C 40.4043 11.9766 40.5591 12.2319 40.7024 12.4929C 40.7151 11.6852 40.9362 10.8715 41.4375 10.2262C 42.0674 9.33936 43.1328 8.78943 44.2197 8.75195C 45.2544 8.70435 46.3081 9.12903 47.0063 9.89514C 47.6125 10.5208 47.9531 11.3762 47.9985 12.2402C 48.0307 13.3331 47.5578 14.444 46.6999 15.136C 46.4004 15.4138 46.0295 15.5938 45.6682 15.7692L 45.5439 15.8297C 45.4768 15.9918 45.4135 16.1562 45.3503 16.3208L 45.3447 16.3356C 45.1308 16.8915 44.9165 17.449 44.5612 17.933C 43.8696 18.9203 42.8315 19.6592 41.667 19.9818C 41.007 20.189 40.3164 20.1832 39.6303 20.1775C 39.4514 20.1759 39.2724 20.1744 39.0947 20.1768L 37.7741 20.1761L 37.5854 20.1761C 36.9817 20.1763 36.3779 20.1764 35.7744 20.175C 34.3803 20.1554 33.0049 19.4897 32.1401 18.3969C 31.7483 17.9253 31.4973 17.3593 31.2734 16.7949C 31.0329 16.7947 30.7922 16.7952 30.5515 16.7957C 30.0429 16.7968 29.5344 16.7979 29.0263 16.7915C 28.0258 16.7388 27.144 15.8782 27.1003 14.8738C 26.9934 14.9082 26.8872 14.9459 26.781 14.9838C 26.4846 15.0894 26.1875 15.1951 25.8701 15.2271C 25.8462 16.4281 24.9797 17.5287 23.823 17.8529C 23.0876 18.0227 22.3471 17.851 21.6252 17.6835C 21.518 17.6586 21.4113 17.6339 21.3051 17.6104C 20.3242 17.4188 19.3449 17.223 18.3708 17.0034C 18.3608 17.3457 18.365 17.6887 18.3694 18.0317L 18.3696 18.0485C 18.3764 18.5792 18.383 19.1097 18.3383 19.6379C 18.3786 20.4557 18.3742 21.2756 18.3698 22.0958L 18.3698 22.1093C 18.3667 22.6764 18.3637 23.2437 18.3752 23.8104C 18.3298 24.093 18.3257 24.3765 18.3708 24.6608C 18.3686 26.5267 18.3689 28.3927 18.3691 30.2587C 18.3694 31.7405 18.3694 33.2223 18.3684 34.7041C 18.3462 35.002 18.1489 35.3135 17.8432 35.3884C 17.6618 35.423 17.4773 35.4199 17.2932 35.4169C 17.2192 35.4156 17.1452 35.4144 17.0715 35.4156C 16.645 35.4163 16.2187 35.4158 15.7922 35.4152C 14.978 35.4142 14.1638 35.4132 13.3491 35.4199C 13.3542 39.2095 13.3525 42.9989 13.3501 46.7885C 13.3576 47.7427 12.9196 48.701 12.1623 49.2917C 11.5342 49.7957 10.7094 50.051 9.905 49.9915C 8.85764 49.9276 7.86545 49.325 7.32517 48.4287C 7.04074 47.9912 6.92209 47.4685 6.87424 46.9562C 6.87106 45.6259 6.8718 44.2954 6.87253 42.9648L 6.87253 42.7886C 6.87326 41.319 6.87399 39.8492 6.86911 38.3795C 6.87424 37.3455 6.87814 36.4186 6.87033 35.498L 6.86008 35.4888C 6.7822 35.4189 6.77048 35.4084 6.65915 35.4199C 6.25021 35.4126 5.84152 35.4141 5.43259 35.4156L 5.42136 35.4156C 4.92917 35.4175 4.43723 35.4193 3.94504 35.4054C 3.83347 35.4148 1.75778 35.4174 0.689667 35.4148C 0.290253 35.4054 -0.0530084 35.0096 0.00680609 34.6138C 0.0680854 34.2166 0.278535 33.7401 0.490693 33.26L 0.491425 33.2581L 0.492402 33.2561L 0.493622 33.2534C 0.723847 32.7322 0.956025 32.2068 1.00168 31.7736C 1.02121 31.771 1.18161 31.835 1.34006 31.8983L 1.34226 31.8992C 1.49655 31.9608 1.64816 32.0214 1.66721 32.0193C 1.85837 32.2094 1.88498 32.3627 1.91159 32.5149C 1.93845 32.6689 1.96506 32.8218 2.1611 33.0105L 2.10227 33.3804L 2.09787 33.4077C 2.06613 33.6042 2.03293 33.8112 2.01462 33.9371L 6.04636 33.9381L 6.08005 33.9381L 6.11325 33.9381L 6.14597 33.9381C 9.71994 33.9395 13.2121 33.9408 16.8869 33.932C 16.8801 28.1847 16.8818 22.4384 16.8862 16.691C 15.6721 16.4434 14.459 16.1948 13.2509 15.9225C 12.976 15.8756 12.8325 15.6134 12.7412 15.3777C 12.237 14.0358 11.7282 12.6957 11.2192 11.3557C 10.6179 9.77271 10.0168 8.1897 9.42355 6.60352C 9.24338 6.1405 9.67551 5.62634 10.1535 5.63489C 10.4267 5.68604 10.728 5.82642 10.8144 6.11414C 11.3005 7.37671 11.7783 8.64246 12.2558 9.90808C 12.8449 11.4694 13.4341 13.0305 14.039 14.5852L 14.209 14.6287C 15.3215 14.8602 16.4321 15.0929 17.5407 15.3252L 17.5581 15.3289L 17.7104 15.3608L 17.9516 15.4114L 17.987 15.4188C 19.4465 15.7247 20.9033 16.03 22.3613 16.3328L 22.4223 16.3483C 22.8061 16.4454 23.2297 16.5527 23.5991 16.3549C 23.9919 16.1846 24.2942 15.8143 24.3564 15.3896C 24.4897 14.7299 24.0005 14.0072 23.3269 13.906L 16.2202 12.4104C 15.8933 12.3491 15.6662 12.0487 15.5971 11.7379C 15.1003 10.2825 14.5971 8.82886 14.094 7.37537L 14.0158 7.14954L 13.9487 6.9552C 13.5735 5.87109 13.1985 4.78711 12.8266 3.7019C 12.7575 3.54041 12.7038 3.36975 12.6504 3.19885C 12.5222 2.79114 12.3938 2.38208 12.0539 2.09485C 11.6015 1.55518 10.8571 1.26746 10.1662 1.48364C 10.3227 1.26074 10.5197 1.07361 10.7173 0.886353L 10.7248 0.87915C 10.8579 0.752563 10.9909 0.625854 11.1115 0.487793C 11.1508 0.435547 11.2068 0.390137 11.2629 0.344482C 11.3781 0.251099 11.4946 0.156738 11.4717 0C 11.9526 0.133911 12.4424 0.230835 12.9321 0.327759C 13.2893 0.398315 13.6467 0.468994 14.0005 0.554077ZM 16.9238 11.0375C 17.4531 11.1652 17.9865 11.2731 18.52 11.381L 18.529 11.3828C 18.8711 11.452 19.2131 11.5212 19.5542 11.5958C 19.6382 11.6143 19.7221 11.6335 19.8061 11.653L 19.843 11.6615C 20.1587 11.7347 20.4748 11.808 20.7973 11.8394L 20.7717 11.95L 20.8305 11.8683L 21.6316 12.0367L 21.6399 12.0385L 21.6667 12.0441L 21.6804 12.0469C 22.3967 12.1974 23.1135 12.3478 23.8281 12.5059C 24.5427 12.6718 25.112 13.1842 25.5134 13.7775C 25.8523 13.7408 26.2246 13.6949 26.4797 13.4438C 26.8896 12.9918 26.8271 12.2036 26.4028 11.7798C 26.0307 11.358 25.4895 11.2587 24.9541 11.1604C 24.7265 11.1187 24.5002 11.0771 24.2883 11.0111C 24.2363 11.0352 24.1845 11.0581 24.133 11.0808L 24.102 11.0945L 24.0141 10.9515C 23.0097 10.7539 22.0078 10.5416 21.0058 10.3291L 20.9958 10.327C 20.2834 10.1759 19.571 10.0248 18.8574 9.87903C 18.5962 9.84497 18.3803 9.65002 18.2727 9.41772C 17.9729 8.6731 17.7126 7.91394 17.4526 7.15479L 17.4477 7.14038L 17.4458 7.13477C 17.1308 6.2146 16.8159 5.29456 16.4304 4.40076C 16.1452 3.74707 15.8386 3.08484 15.3581 2.54944C 15.0815 2.25342 14.6916 2.19055 14.3056 2.1283C 14.1423 2.10193 13.9795 2.07568 13.8264 2.03186C 14.363 3.62366 14.9133 5.21094 15.4636 6.79797L 15.4804 6.84631C 15.9648 8.24243 16.4489 9.63855 16.9238 11.0375ZM 46.1943 13.517C 45.8254 14.0601 45.239 14.4448 44.5791 14.5095C 43.3386 14.6746 42.1306 13.5553 42.2065 12.3099C 42.2141 11.3218 42.9953 10.4263 43.9695 10.262C 44.7695 10.1062 45.6428 10.4509 46.1047 11.1234C 46.6213 11.8137 46.6281 12.7841 46.1943 13.517ZM 38.334 13.4131C 38.5576 13.8116 38.7954 14.202 39.0334 14.5923L 39.0412 14.6052C 39.2895 15.0125 39.5376 15.4197 39.769 15.8364C 39.916 16.0543 40.0713 16.2996 40.0217 16.5753C 40.0158 16.835 39.8066 17.0272 39.5957 17.1439C 39.2448 17.3192 38.7976 17.1328 38.6216 16.7983C 38.5395 16.6494 38.4511 16.5045 38.3625 16.3595L 38.3603 16.3557C 38.2746 16.2152 38.1889 16.0748 38.1093 15.9309C 37.073 15.9216 36.0366 15.9241 35 15.9283C 34.7346 15.9412 34.4494 15.8884 34.2666 15.6807C 34.1425 15.5177 34.07 15.3263 33.9973 15.1344C 33.9406 14.9846 33.8838 14.8345 33.8022 14.6975C 33.6384 14.3103 33.1892 14.1298 32.7888 14.1503C 32.2426 14.1526 31.6963 14.152 31.1499 14.1514L 31.1069 14.1514C 30.4465 14.1506 29.7856 14.1499 29.1255 14.1545C 28.6985 14.1417 28.4321 14.6559 28.643 15.0107C 28.667 15.0334 28.6906 15.0577 28.7146 15.0824C 28.8252 15.1959 28.9426 15.3167 29.1108 15.3138C 29.739 15.3223 30.3681 15.3208 30.997 15.3193L 31.0197 15.3193L 31.7644 15.3181C 32.0923 15.3138 32.385 15.5504 32.4883 15.8552C 32.5957 16.1495 32.7251 16.4358 32.8542 16.7217L 32.8554 16.7242L 32.9416 16.9158C 33.4028 17.83 34.3195 18.4939 35.3322 18.6565C 35.6257 18.7003 35.9238 18.6993 36.2216 18.6984L 36.2815 18.6981C 36.811 18.6971 37.3405 18.6974 37.8703 18.6978L 37.9926 18.6979C 38.7912 18.6985 39.5901 18.6991 40.3889 18.6956C 41.9743 18.6471 43.459 17.4946 43.8774 15.9727C 43.2788 15.8799 42.7136 15.6552 42.2141 15.3138C 42.1792 15.9403 41.282 16.1846 40.9079 15.6986C 40.5224 15.0691 40.1443 14.4349 39.7658 13.8005L 39.7473 13.7694L 39.74 13.7572C 39.3423 13.0901 38.9445 12.423 38.5381 11.761C 38.2553 11.3447 37.5322 11.6783 37.6286 12.1533C 37.727 12.4565 37.9006 12.724 38.0742 12.9916C 38.1643 13.1304 38.2544 13.2692 38.334 13.4131ZM 8.36105 42.1777C 8.35715 39.921 8.35324 37.6644 8.38107 35.408C 9.53977 35.4216 10.6992 35.4182 11.8586 35.4097C 11.8728 36.7227 11.8708 38.0359 11.8686 39.3492C 11.8674 40.1569 11.8662 40.9646 11.8686 41.7723C 11.8747 41.9626 11.8713 42.1537 11.8681 42.3448C 11.8623 42.6691 11.8567 42.9934 11.8969 43.3147C 11.8567 43.9966 11.8623 44.681 11.8679 45.3657C 11.872 45.8975 11.8764 46.4294 11.8593 46.9603C 11.8125 47.5784 11.3906 48.1665 10.8025 48.3827C 10.0998 48.6841 9.21018 48.4585 8.7363 47.8601C 8.44016 47.5238 8.34372 47.0582 8.35983 46.6216C 8.36618 45.1401 8.36374 43.6589 8.36105 42.1777Z" transform="translate(0 13)" fill="#767676"/>
<path fill-rule="evenodd" clip-rule="evenodd" d="M 0.658531 0.0180471C 0.246178 0.0384329 -0.0406875 0.467632 0.00472263 0.854351C 0.0308457 1.65306 0.0225449 2.45188 0.0144883 3.25084C 0.0103379 3.64146 0.00643162 4.03209 0.00643162 4.42283C 0.00740818 4.80711 0.350182 5.15574 0.74276 5.15403C 1.02792 5.15586 1.31332 5.15525 1.59872 5.15464C 1.85555 5.15416 2.11214 5.15367 2.36898 5.15489C 2.37679 9.21348 2.37582 13.2721 2.37484 17.3304C 2.37411 19.9541 2.37337 22.5776 2.37508 25.2009C 2.37386 25.3766 2.37142 25.5523 2.36922 25.7283C 2.36092 26.3392 2.35262 26.9505 2.39388 27.5598C 2.56063 27.5658 2.56234 27.5793 2.39828 27.5997C 2.39486 27.6532 2.38998 27.7082 2.38509 27.7641C 2.35482 28.1067 2.32162 28.4839 2.5682 28.7507C 2.78475 28.978 3.11288 29.0188 3.41366 28.9934C 4.67391 28.99 5.9349 28.9908 7.19588 28.9925C 7.46224 29.0171 7.69686 28.8364 7.84896 28.6371C 7.97591 28.4215 7.96908 28.1749 7.96224 27.9314C 7.95956 27.8404 7.95712 27.7499 7.96151 27.6616C 7.96395 25.5304 7.96249 23.3989 7.96102 21.2673C 7.95834 17.6107 7.95565 13.9538 7.97347 10.2977C 10.0572 10.3038 12.1407 10.3028 14.2244 10.302C 15.9183 10.3013 17.6121 10.3005 19.3062 10.3036C 19.3492 10.3013 19.3932 10.3021 19.4371 10.303C 19.5335 10.3048 19.6312 10.3067 19.7244 10.2748C 19.9386 10.0373 20.1676 9.81431 20.3971 9.59117C 20.5936 9.39988 20.7904 9.20835 20.9779 9.00755L 21.0072 9.04063C 20.87 9.15416 20.7491 9.28343 20.628 9.4127C 20.514 9.53453 20.4002 9.65635 20.2725 9.765C 20.2435 9.79197 20.2137 9.81871 20.1839 9.84544C 20.0372 9.97715 19.8878 10.1112 19.8036 10.2909L 19.971 10.2969C 20.0018 11.2141 19.9972 12.1339 19.9925 13.0538C 19.9898 13.625 19.9869 14.1963 19.9925 14.7669C 19.9945 15.8044 19.9935 16.8421 19.9925 17.8797C 19.9911 19.5068 19.9893 21.1338 19.9994 22.7606L 20.2132 22.7682L 20.1344 22.8691C 20.3436 23.0503 20.5384 23.2494 20.7332 23.4483C 20.9781 23.6987 21.2227 23.9487 21.495 24.1618C 21.4823 21.2989 21.4842 18.4358 21.4864 15.5725C 21.4876 13.7783 21.4889 11.9841 21.4864 10.1899C 21.4786 10.087 21.4825 9.98118 21.4864 9.8751C 21.495 9.64695 21.5035 9.41746 21.3944 9.2136C 21.3719 9.18821 21.3504 9.15672 21.3285 9.12425C 21.264 9.02867 21.1944 8.92576 21.0731 8.95237C 20.9994 8.83592 20.8599 8.83213 20.7345 8.82884L 20.6788 8.82689C 16.2127 8.82847 11.7454 8.82774 7.27938 8.82689C 7.02596 8.80735 6.75692 8.90745 6.61703 9.12376C 6.45296 9.33458 6.46053 9.6013 6.46786 9.85984C 6.4703 9.94261 6.47274 10.0244 6.46932 10.1034C 6.46639 12.3308 6.46786 14.5583 6.46957 16.7859C 6.47201 20.3639 6.47445 23.9418 6.45809 27.5191C 6.08285 27.5088 5.70712 27.5115 5.33163 27.514C 4.84066 27.5174 4.35018 27.5207 3.86117 27.4953C 3.87167 26.1957 3.86996 24.896 3.86825 23.5964C 3.86703 22.7757 3.86605 21.9551 3.868 21.1345C 3.86605 19.0748 3.86703 17.015 3.86825 14.9552C 3.86996 11.6938 3.87167 8.4326 3.86117 5.17186C 4.87118 5.14708 5.88241 5.15074 6.89339 5.15452C 7.50838 5.15672 8.12337 5.15904 8.73812 5.15489C 10.5792 5.15428 12.42 5.15464 14.2611 5.15501C 17.534 5.15574 20.807 5.15635 24.0799 5.15147C 24.0894 7.02281 24.0877 8.89439 24.0863 10.766C 24.0853 11.9298 24.0843 13.0936 24.086 14.2572C 24.0831 15.9209 24.0848 17.5847 24.0865 19.2486C 24.0892 22.0052 24.0921 24.7618 24.0738 27.5183C 23.2149 27.5089 22.3558 27.5115 21.4967 27.5174C 21.4808 26.9562 21.4837 26.3941 21.4864 25.8321C 21.4891 25.3113 21.492 24.7903 21.4796 24.2696C 21.3155 24.0527 21.1158 23.8662 20.9163 23.6803C 20.8453 23.6139 20.774 23.5475 20.7047 23.4798C 20.4813 23.2263 20.2381 22.993 19.9754 22.781C 19.9996 23.7989 19.9962 24.8177 19.9928 25.8364C 19.9908 26.4449 19.9886 27.0533 19.9925 27.6616C 19.9962 27.7508 19.9935 27.8418 19.9906 27.933C 19.9835 28.1556 19.9764 28.3802 20.0655 28.5879C 20.2091 28.7881 20.4161 28.9984 20.6866 28.9848C 21.4849 28.9938 22.2838 28.9925 23.0826 28.9913C 23.6544 28.9906 24.2264 28.9897 24.7982 28.9925C 25.0172 28.9941 25.2396 28.9153 25.3831 28.7449C 25.5814 28.5591 25.5789 28.2901 25.5767 28.0342C 25.576 27.964 25.5755 27.8949 25.5789 27.8287C 25.5819 21.9405 25.5811 16.0525 25.5804 10.1643L 25.5799 6.79954C 25.5821 6.63255 25.5799 6.46507 25.5777 6.29747C 25.5726 5.90855 25.5675 5.51927 25.6185 5.1345C 25.8494 5.16624 26.0807 5.15709 26.3123 5.14781C 26.4962 5.14048 26.6803 5.13316 26.8641 5.14634L 26.8858 5.14769C 27.141 5.16356 27.4159 5.18064 27.6432 5.04295C 27.8734 4.93089 27.9825 4.6638 27.9886 4.42198C 28.005 3.88169 28.0006 3.34141 27.9586 2.80357C 28.0208 2.2678 28.0001 1.73008 27.9793 1.19273C 27.9705 0.967876 27.962 0.743023 27.9593 0.518535C 27.8717 0.158794 27.4757 -0.0354197 27.1209 0.00535183L 23.7342 0.00571804C 16.9608 0.00657254 10.1871 0.00742703 3.41439 0.00449734C 2.96224 0.0245169 2.50985 0.0174368 2.05721 0.0103567C 1.5909 0.0030325 1.1246 -0.00429172 0.658531 0.0180471ZM 1.49862 2.68052C 1.49886 2.28917 1.49911 1.89781 1.48251 1.50669C 1.54842 1.40269 1.63973 1.42955 1.73446 1.4575C 1.77547 1.46959 1.81747 1.48191 1.85799 1.48375C 5.61849 1.47752 9.37923 1.47898 13.14 1.48033C 17.5948 1.48204 22.0496 1.48375 26.5042 1.47276C 26.5011 1.78245 26.5057 2.09227 26.5106 2.4022C 26.5172 2.82811 26.5238 3.25413 26.5094 3.67979L 20.0838 3.6782C 13.8919 3.67637 7.70004 3.67442 1.50838 3.68321C 1.49813 3.3491 1.49837 3.01487 1.49862 2.68052Z" transform="translate(23 34)" fill="#767676"/>
<path d="M 4.84814 0C 5.17322 0.314057 5.50143 0.628113 5.7851 0.987759C 5.84371 1.06712 5.91638 1.12959 6 1.1794C 4.49414 9.02659 2.9328 16.8611 1.41052 24.7049C 1.33316 25.1363 1.21282 25.561 1.17218 26C 0.967439 25.9493 0.866632 25.7341 0.725189 25.5889C 0.490753 25.3069 0.203959 25.0781 0 24.7674C 0.937744 20.0878 1.83173 15.3964 2.76009 10.7134C 3.44855 7.14057 4.16671 3.5745 4.84814 0Z" transform="translate(1 20)" fill="#767676"/>
<path fill-rule="evenodd" clip-rule="evenodd" d="M 10.9984 5.18211C 10.8943 2.97703 9.31213 0.923074 7.19165 0.280008C 5.00348 -0.493918 2.41064 0.39158 1.0647 2.25706C 0.310484 3.28367 -0.0789201 4.57639 0.013365 5.84886C 0.0878279 7.28758 0.782835 8.67674 1.8706 9.62058C 2.70441 10.3767 3.78705 10.8286 4.8985 10.9765C 4.93554 10.978 4.94873 10.978 4.95074 10.9773C 4.96142 10.9785 4.97607 10.9802 4.99585 10.9824C 6.41626 11.0932 7.88324 10.6782 8.97778 9.75389C 10.008 8.93431 10.7029 7.72361 10.934 6.4326C 11.0037 6.0825 11.0015 5.73875 10.9992 5.3784C 10.9988 5.31346 10.9984 5.24827 10.9984 5.18211ZM 2.08893 3.3784C 2.6383 2.44895 3.60925 1.81272 4.6496 1.56248C 5.651 1.35984 6.7337 1.51853 7.60052 2.072C 8.83978 2.80027 9.58893 4.23411 9.53815 5.66209C 9.34942 5.67039 9.16235 5.64866 8.97583 5.62718C 8.7055 5.59593 8.43622 5.56492 8.1643 5.62498L 8.20154 5.79637C 8.26898 5.73582 8.33331 5.67088 8.39282 5.60203L 8.41711 5.60105C 8.59485 5.59324 8.79272 5.5847 8.91174 5.74143C 9.07184 5.62303 9.29962 5.65989 9.49414 5.69138L 9.54236 5.6992C 9.47973 6.42429 9.27575 7.16184 8.83722 7.75315C 8.79132 7.82151 8.74292 7.83836 8.6914 7.80442L 8.76019 7.87669C 8.04577 8.85154 6.87591 9.48704 5.66284 9.52342C 4.79352 9.56736 3.91742 9.301 3.20715 8.801C 2.15668 8.09202 1.49725 6.85252 1.47101 5.59031C 1.45495 4.81468 1.66571 4.0305 2.08893 3.3784ZM 7.97107 5.9885C 8.04828 5.92552 8.12549 5.86253 8.19952 5.79612L 8.09192 5.78733C 8.04864 5.78391 8.005 5.7805 7.97638 5.77781L 8.08557 5.89353C 7.91852 5.98557 7.78766 6.11961 7.65674 6.25388C 7.54815 6.36497 7.43951 6.4763 7.31018 6.5637C 7.21368 6.68186 7.11377 6.80613 7.07226 6.95384C 7.05676 7.06663 7.10248 7.16868 7.14807 7.27024C 7.19934 7.38426 7.25043 7.49803 7.21368 7.62644L 7.20477 7.65867C 7.17023 7.78343 7.13544 7.90891 7.12225 8.03806C 7.13177 8.0012 7.14172 7.96433 7.15173 7.92747C 7.18622 7.80027 7.22076 7.67283 7.23651 7.54124C 7.24347 7.44187 7.20117 7.3491 7.15924 7.2573C 7.10394 7.13596 7.04931 7.01634 7.10956 6.88474C 7.13977 6.79783 7.20825 6.74436 7.27722 6.6909C 7.33557 6.64549 7.39429 6.59983 7.43036 6.53318C 7.57263 6.31321 7.77173 6.15086 7.97107 5.9885Z" transform="translate(9 0)" fill="#767676"/>
<path d="M 2.84998 0.294544C 3.52772 0.0191799 4.79221 -0.0654715 5.50943 0.0505575L 5.40002 0.515386C 4.96163 0.95172 4.62976 1.07902 4.19301 1.51536C 3.78285 1.51536 2.74387 1.88463 2.41158 2.24334C 2.07518 2.57672 1.90081 3.02368 1.74782 3.46083C 1.4402 3.63569 1.25103 3.95027 0.984537 4.17579C 0.711466 4.46587 0.394802 4.71672 0.156276 5.03702C 0.10199 4.97983 0.0501727 4.92018 0 4.86053C 0.176838 4.21992 0.274716 3.5597 0.436749 2.915C 0.769041 1.7302 1.6812 0.712902 2.84998 0.294544Z" transform="translate(6 12.963)" fill="#767676"/>
<path d="M 2.53305 0.00559751C 2.46659 0.189181 2.43908 0.277639 2.39146 0.428142C 1.98814 1.92537 1.59734 3.39456 1.20703 4.89455C 1.02054 4.84006 0.886504 4.87038 0.757484 4.75677C 0.423553 4.45012 0.392531 4.55854 0.0152313 4.29161C -0.0107894 4.2482 -0.00602376 4.25254 0.0495201 3.96537C 0.173118 3.43058 0.438987 1.92844 0.594027 1.39919C 0.898199 0.598504 2.47961 -0.0682301 2.53305 0.00559751Z" transform="matrix(0.994522 -0.104528 0.104528 0.994522 5.2742 16.5101)" fill="#767676"/>
</g>
</svg>
