<svg width="79" height="62" viewBox="0 0 79 62" version="1.1" xmlns="http://www.w3.org/2000/svg" xmlns:xlink="http://www.w3.org/1999/xlink">
<g fill="none">
<path fill-rule="evenodd" clip-rule="evenodd" d="M 3.89721 2.87152C 7.09868 0.0375313 11.9362 -0.824041 15.8838 0.860285C 16.447 1.13616 16.5835 1.97821 16.1398 2.4201C 15.8057 2.92523 15.1498 2.72503 14.689 2.55438C 11.9411 1.59979 8.72988 1.90985 6.31841 3.57952C 3.71435 5.26116 1.97829 8.28314 2.01732 11.4052C 2.01824 11.9929 2.01812 12.5805 2.018 13.1681C 2.01781 14.145 2.01763 15.122 2.02218 16.0991C 5.92608 16.0976 9.82998 16.0981 13.7344 16.0983L 14.9062 16.0986L 21.3504 16.0991C 21.3781 15.3242 21.3647 14.5451 21.3514 13.7651L 21.3513 13.7626C 21.3223 12.0715 21.2933 10.3784 21.682 8.72503C 22.5378 5.15374 25.2565 2.12713 28.6554 0.787043C 31.4107 -0.279607 34.5829 -0.279607 37.304 0.894465C 37.8355 1.23626 37.9014 2.05633 37.4332 2.48358C 37.0923 2.90252 36.5528 2.72308 36.107 2.57513L 36.1002 2.57293C 36.0446 2.55438 35.9906 2.53631 35.9386 2.5202C 33.237 1.59979 30.1086 1.92938 27.7289 3.53314C 24.9468 5.1928 23.3522 8.44915 23.3693 11.6442C 23.3621 16.0136 23.3644 20.3832 23.3668 24.7529C 23.37 30.7121 23.3733 36.6713 23.3522 42.6296C 23.4302 43.7795 21.604 44.0258 21.4016 42.8908C 21.3306 41.8473 21.3419 40.7997 21.3533 39.7521C 21.3603 39.1091 21.3673 38.466 21.3552 37.8234L 2.01732 37.8234C 2.01146 38.466 2.01497 39.1091 2.01848 39.7521L 2.01848 39.7548C 2.02373 40.718 2.02898 41.6808 2.00268 42.6418C 2.04171 43.3522 1.16393 43.9233 0.551901 43.5305C 0.0203761 43.3083 -0.0064489 42.6515 0.000875323 42.1611C 0.00572762 37.0351 0.00511727 31.9084 0.00450691 26.7819C 0.00389656 21.6555 0.00328621 16.5287 0.00816902 11.4028C -0.0137731 8.16839 1.47844 4.99774 3.89721 2.87152ZM 2.01732 25.9848L 21.3552 25.9848C 21.3542 24.8852 21.3545 23.7853 21.3548 22.6857L 21.3548 22.611C 21.3552 21.1115 21.3556 19.6122 21.3528 18.1127L 2.01977 18.1127C 2.01854 19.4247 2.01854 20.7367 2.01854 22.0488C 2.01854 23.3608 2.01854 24.6728 2.01732 25.9848ZM 2.01732 35.8071C 2.01977 33.205 2.01977 30.603 2.01732 28.0009C 8.4641 27.9987 14.9085 27.9987 21.3552 28.0009C 21.3528 30.603 21.3528 33.205 21.3552 35.8071C 14.9093 35.8119 8.46572 35.8095 2.01974 35.8071L 2.01732 35.8071Z" transform="translate(27.8125 0.0721436)" fill="#767676"/>
<path d="M 7.00288 0.228187C 10.4872 -0.528506 14.0007 0.774959 17.0437 2.39819C 19.1479 3.4063 21.1253 4.85134 23.5173 5.06614C 25.0266 5.11008 26.6017 5.01 27.972 4.31921C 31.1174 2.80338 34.1189 0.774959 37.6105 0.154959C 40.6047 -0.386931 43.6233 0.557715 46.242 1.97346C 48.5754 3.13779 50.7674 4.85622 53.4471 5.09299C 54.7808 5.29315 56.0926 4.88063 57.3386 4.44858C 59.4794 3.70897 61.3081 2.30543 63.4318 1.51945C 65.814 0.469841 68.4424 -0.164805 71.0538 0.147636C 73.6433 0.569919 75.9816 1.84409 78.2321 3.13291C 79.2586 3.70409 78.2614 5.42008 77.2739 4.81472C 75.394 3.74803 73.4555 2.69842 71.3245 2.23953C 68.2425 1.67079 65.1776 2.78141 62.4833 4.19472C 60.106 5.46157 57.6848 6.84071 54.9564 7.13118C 53.3032 7.24102 51.6111 7.02866 50.1042 6.31102C 47.3343 4.99291 44.7839 3.17441 41.8068 2.33228C 39.9049 1.8148 37.8616 1.98323 36.0281 2.67645C 33.4484 3.60645 31.0881 5.02953 28.6352 6.23779C 26.4066 7.23858 23.8416 7.34354 21.5008 6.68449C 20.0257 6.25244 18.6578 5.53968 17.3314 4.77323C 14.6712 3.46732 11.9306 1.90268 8.86572 2.02472C 6.10072 2.1785 3.63075 3.60157 1.27294 4.93189C 0.49757 5.10764 -0.270486 4.24354 0.0928169 3.49661C 0.44149 3.01819 1.01936 2.79362 1.4997 2.4763C 3.23575 1.51212 5.05714 0.665116 7.00288 0.228187Z" transform="translate(0.160767 45.0856)" fill="#767676"/>
<path d="M 6.76718 0.32254C 10.0198 -0.485413 13.37 0.591044 16.2764 2.03852C 17.5931 2.76104 18.9707 3.36396 20.2898 4.07671C 21.8747 4.85537 23.679 5.26545 25.4468 5.04821C 27.6022 4.87978 29.426 3.58852 31.2767 2.59262C 33.7223 1.33553 36.2898 0.0296263 39.106 0.000335006C 42.4952 -0.0265154 45.5942 1.56498 48.4543 3.2175C 50.4074 4.37695 52.5969 5.44364 54.9352 5.13852C 56.9346 4.78215 58.8487 3.99616 60.5506 2.89285C 63.6667 1.19884 67.1437 -0.231555 70.7596 0.09065C 73.4344 0.434823 75.8361 1.76026 78.1525 3.05884C 78.8644 3.40789 78.8157 4.57955 78.0793 4.86758C 77.3893 5.15317 76.8017 4.55026 76.2214 4.27687C 73.8952 3.00758 71.3107 1.79687 68.5896 2.11908C 67.4875 2.17766 66.4414 2.5438 65.4003 2.88309C 62.4159 3.86435 59.9069 5.9416 56.842 6.72026C 54.6207 7.41593 52.1361 7.3427 50.027 6.3175C 46.5744 4.66742 43.3193 2.1264 39.3401 2.01411C 35.5412 2.11175 32.3885 4.48191 29.0676 6.02459C 26.3392 7.34514 23.0646 7.50624 20.2655 6.29553C 17.0689 4.84073 14.0601 2.75128 10.5368 2.16301C 7.20607 1.59915 4.16799 3.38348 1.34934 4.88467C 0.469128 5.35333 -0.498866 3.95467 0.293573 3.30049C 2.2515 1.94333 4.46302 0.925453 6.76718 0.32254Z" transform="translate(0.162384 54.7477)" fill="#767676"/>
</g>
</svg>
