<svg width="60" height="62" viewBox="0 0 60 62" version="1.1" xmlns="http://www.w3.org/2000/svg" xmlns:xlink="http://www.w3.org/1999/xlink">
<g fill="none">
<path fill-rule="evenodd" clip-rule="evenodd" d="M 47.0879 0.178853C 48.467 -0.0480753 49.8823 -0.00913488 51.2996 0.0298056C 52.1506 0.053243 53.0024 0.0766805 53.8477 0.0426229C 54.0315 0.769185 54.0315 1.49575 53.9397 2.26772C 53.6848 5.69912 53.4766 9.13039 53.2681 12.5676C 53.0627 15.9533 52.8569 19.3446 52.606 22.7471C 52.5647 23.1658 52.5483 23.5886 52.532 24.012L 52.5315 24.0233C 52.4929 25.0189 52.4541 26.0167 52.1001 26.9701C 41.1616 26.94 30.2437 26.9499 19.3188 26.9599L 19.2146 26.96C 13.7322 26.9651 8.24829 26.9701 2.75903 26.9701C 2.11523 27.1518 1.60938 26.4706 1.70142 25.8803C 1.42554 21.6118 1.13818 17.3434 0.850586 13.075C 0.563232 8.80654 0.275879 4.53811 0 0.269674C 2.01587 -0.0424601 4.06543 0.0477499 6.09082 0.136983L 6.10962 0.137838C 6.43433 0.151998 6.75854 0.16628 7.08154 0.178853C 7.12769 0.950826 7.17358 1.7228 7.21948 2.54018L 46.8579 2.54018C 46.8906 2.23317 46.8943 1.93776 46.8977 1.65163L 46.8977 1.64858C 46.9043 1.13186 46.9104 0.645894 47.0879 0.178853ZM 48.3755 1.40493C 48.2505 3.99599 48.1741 6.58693 48.0979 9.17531L 48.0979 9.17824C 47.9775 13.2572 47.8574 17.3295 47.5479 21.3848C 39.4087 21.4666 31.2695 21.4502 23.1301 21.4339C 17.7041 21.4229 12.2781 21.412 6.85181 21.4302C 6.34766 20.7903 6.35107 19.9834 6.35425 19.2056L 6.35425 19.1911C 6.35498 18.9802 6.35571 18.7719 6.34595 18.5695C 6.31909 15.2317 6.18286 11.8939 6.04639 8.55617C 5.94897 6.17251 5.85156 3.78872 5.79419 1.40493L 1.51758 1.40493C 2.06934 9.35146 2.62109 17.298 3.08105 25.2445C 4.66943 25.506 6.27661 25.4701 7.89062 25.4341L 7.89429 25.434C 8.80225 25.4138 9.7124 25.3935 10.6226 25.4262L 50.9966 25.4262C 51.3979 20.4457 51.7097 15.4475 52.0215 10.4538L 52.0217 10.45L 52.0259 10.3845C 52.2129 7.3882 52.3999 4.39345 52.6062 1.40493L 48.3755 1.40493ZM 7.57593 12.7038C 7.49609 9.7549 7.41626 6.80593 7.21948 3.85708L 46.812 3.85708C 46.7507 6.2405 46.6528 8.61489 46.5552 10.9883C 46.4331 13.9507 46.3113 16.9115 46.2603 19.8864C 45.0959 20.0679 43.9111 20.0479 42.7197 20.0277C 42.123 20.0176 41.5244 20.0075 40.926 20.0226C 36.5483 20.0408 32.1707 20.0299 27.7927 20.0189C 21.2263 20.0026 14.6597 19.9862 8.09326 20.068C 7.72534 19.0875 7.71069 18.0491 7.69604 17.0221C 7.69238 16.7649 7.68872 16.5083 7.67944 16.2537C 7.63989 15.0703 7.60791 13.8871 7.57593 12.7038Z" transform="translate(6 35)" fill="#767676"/>
<path fill-rule="evenodd" clip-rule="evenodd" d="M 8.14175 0C 5.54122 0.0449219 2.9407 0.0449219 0.340172 0C 0.314415 0.0700684 0.287742 0.138916 0.261192 0.207275L 0.258323 0.2146L 0.255455 0.221924C 0.0959699 0.633057 -0.056679 1.02637 0.0207746 1.48438L 0.0207746 14.1248C 0.0207746 14.1638 0.0200422 14.2053 0.0193098 14.2488L 0.0191877 14.2554L 0.0190656 14.2622C 0.0108259 14.7202 -0.000892856 15.3713 0.659508 15.2493C 1.35555 15.2493 2.05526 15.2566 2.75759 15.2639L 2.76546 15.2639L 2.77334 15.2639L 2.77676 15.2639L 2.78011 15.2639C 4.55624 15.2822 6.34902 15.3008 8.14175 15.2043C 8.58736 14.5305 8.53005 13.647 8.47359 12.7773C 8.44338 12.3113 8.41341 11.8494 8.46114 11.4258C 10.7096 11.4419 12.958 11.4292 15.2064 11.4165C 19.254 11.3938 23.3016 11.3711 27.3493 11.5156C 27.3949 13.2251 27.3949 14.8894 27.3949 16.5986L 26 16.5986L 26 21.322L 26 21.9966C 26 21.9966 27.2411 21.9707 27.5318 21.9966C 28.7174 21.9617 29.9546 21.9741 31.2035 21.9868C 33.1742 22.0068 35.1737 22.0269 37.0448 21.8618C 37.0034 20.2065 37.0034 18.3008 37.0034 16.5986L 35.5158 16.5986C 35.4527 15.4946 35.4932 14.3796 35.5337 13.2668C 35.6103 11.1614 35.6865 9.06348 35.0596 7.06226C 34.1928 4.99316 32.0941 3.46362 29.8129 3.37378C 26.66 3.31396 23.5071 3.32495 20.3542 3.33594L 20.3218 3.33594C 16.3682 3.34985 12.4147 3.36377 8.46114 3.23877C 8.46114 3.07471 8.46328 2.90967 8.46542 2.7439L 8.46542 2.7417L 8.46542 2.7395C 8.47732 1.81641 8.48946 0.875977 8.14175 0ZM 1.38949 13.8098L 1.38949 1.52954C 2.66195 1.55957 3.91421 1.54956 5.17312 1.53955L 5.17806 1.53955L 5.18301 1.53955L 5.26449 1.53882C 5.87118 1.53418 6.47945 1.52954 7.09243 1.52954C 7.05331 3.30347 7.06448 5.06909 7.07565 6.8335C 7.0906 9.18555 7.10543 11.5354 7.00118 13.8999C 6.06594 13.855 5.13064 13.855 4.19534 13.855C 3.26003 13.855 2.32473 13.855 1.38949 13.8098ZM 8.46114 4.72339L 8.46114 9.89624L 26.6193 9.89624C 27.6686 9.89624 28.8092 10.7061 28.7636 11.8306C 28.8244 12.8794 28.8041 13.9285 28.7839 14.9773L 28.7838 14.9795C 28.7737 15.5042 28.7636 16.0291 28.7636 16.5537C 29.1721 16.5537 29.583 16.5562 29.9953 16.5586L 30.1027 16.5593C 31.4509 16.5679 32.8119 16.5764 34.1472 16.5088C 34.1016 15.2717 34.1129 14.0347 34.1244 12.7979C 34.1358 11.5608 34.1471 10.3237 34.1015 9.08667C 33.9647 6.70264 31.7747 4.58838 29.3111 4.67822C 22.3763 4.72339 15.4416 4.72339 8.46114 4.72339ZM 35.5158 20.6023L 27.3493 20.6023C 27.4318 20.3091 27.3888 19.9392 27.3458 19.5693C 27.27 18.9182 27.1944 18.2676 27.8055 18.0381C 28.8999 18.0188 29.9943 18.0244 31.0886 18.0298C 32.5492 18.0374 34.0097 18.0447 35.4702 17.9932C 35.4702 18.4204 35.4817 18.8591 35.4931 19.2979C 35.5044 19.7363 35.5158 20.1748 35.5158 20.6023Z" fill="#767676"/>
<path fill-rule="evenodd" clip-rule="evenodd" d="M 1.5 0.5L 1.5 12.5L 1.5 0.5Z" transform="translate(30 24)" fill="#767676"/>
<path d="M 1.5 0.5L 1.5 12.5" transform="translate(30 24)" stroke="#767676" stroke-linecap="square"/>
<path fill-rule="evenodd" clip-rule="evenodd" d="M 1.5 0.5L 1.5 12.5L 1.5 0.5Z" transform="translate(33 24)" fill="#767676"/>
<path d="M 1.5 0.5L 1.5 12.5" transform="translate(33 24)" stroke="#767676" stroke-linecap="square"/>
<path fill-rule="evenodd" clip-rule="evenodd" d="M 1.5 0.5L 1.5 12.5L 1.5 0.5Z" transform="translate(27 24)" fill="#767676"/>
<path d="M 1.5 0.5L 1.5 12.5" transform="translate(27 24)" stroke="#767676" stroke-linecap="square"/>
</g>
</svg>
