<svg width="29" height="74" viewBox="0 0 29 74" version="1.1" xmlns="http://www.w3.org/2000/svg" xmlns:xlink="http://www.w3.org/1999/xlink">
<g fill="none">
<path d="M 26.2206 0.871857C 26.7021 0.197738 26.546 -0.739087 25.8719 -1.2206C 25.1977 -1.70211 24.2609 -1.54598 23.7794 -0.871857L 26.2206 0.871857ZM 0 35L -1.2206 34.1281L -1.84336 35L -1.2206 35.8719L 0 35ZM 23.7794 70.8719C 24.2609 71.546 25.1977 71.7021 25.8719 71.2206C 26.546 70.7391 26.7021 69.8023 26.2206 69.1281L 23.7794 70.8719ZM 23.7794 -0.871857L -1.2206 34.1281L 1.2206 35.8719L 26.2206 0.871857L 23.7794 -0.871857ZM -1.2206 35.8719L 23.7794 70.8719L 26.2206 69.1281L 1.2206 34.1281L -1.2206 35.8719Z" transform="translate(27 2) scale(-1 1)" fill="#FF680D"/>
</g>
</svg>
