<svg width="27" height="16" viewBox="0 0 27 16" fill="none" xmlns="http://www.w3.org/2000/svg">
<path d="M23.2574 10.6938C25.3532 12.72 25.7858 13.6909 25.8535 13.8175C26.7188 15.309 24.907 15.4216 24.907 15.4216L21.4185 15.4779C21.4185 15.4779 20.6613 15.6326 19.6877 14.9291C18.3762 14.0004 17.1187 11.5662 16.1857 11.8898C15.2257 12.2134 15.2527 14.3944 15.2527 14.3944C15.2527 14.3944 15.2527 14.704 15.0364 14.9432C14.793 15.2105 14.3198 15.112 14.3198 15.112H12.7648C12.7648 15.112 9.31686 15.4779 6.3016 12.1994C2.98888 8.62539 0.0682684 1.59 0.0682684 1.59C0.0682684 1.59 -0.0939876 1.16787 0.0817897 0.928671C0.28461 0.703539 0.852506 0.703539 0.852506 0.703539H4.58439C4.58439 0.703539 4.94947 0.703539 5.17933 0.928671C5.38215 1.08345 5.50384 1.40708 5.50384 1.40708C5.50384 1.40708 6.09878 2.96893 6.91006 4.40415C8.46502 7.20424 9.18165 7.80928 9.68194 7.5138C10.4932 7.0776 10.2634 3.55991 10.2634 3.55991C10.2634 3.55991 10.2769 2.27947 9.87123 1.71663C9.56024 1.28044 8.96531 1.13973 8.7084 1.11159C8.49206 1.08345 8.84361 0.576902 9.28982 0.337699C9.96588 0 11.1422 0 12.5485 0C13.6437 0 13.9547 0.0844247 14.3738 0.18292C15.6719 0.506548 15.2257 1.75885 15.2257 4.74185C15.2257 5.71274 15.0905 7.03539 15.726 7.49972C16.0099 7.69672 16.713 7.52787 18.4708 4.44637C19.2821 2.98301 19.9041 1.2523 19.9041 1.2523C19.9041 1.2523 20.0393 0.956813 20.2421 0.816105C20.4584 0.703539 20.7559 0.703539 20.7559 0.703539H24.6771C24.6771 0.703539 25.867 0.562831 26.0563 1.11159C26.2591 1.68849 25.6101 3.05336 24.001 5.26247C21.3779 8.92087 21.0804 8.58318 23.2574 10.6938Z" transform="translate(0 0.338867)" fill="#FF680D"/>
</svg>
