<svg width="82" height="40" viewBox="0 0 82 40" fill="none" xmlns="http://www.w3.org/2000/svg">
<path d="M6.85988 13.4153C6.31214 13.2044 6.02522 12.5011 6.02522 12.5011C5.79047 12.6183 5.13839 12.8528 4.95581 12.9231C4.98189 13.1106 5.34706 13.8138 5.42531 14.0014C4.40806 15.4079 2.6344 15.6188 1.93016 13.8842C0.991162 11.5166 0.965079 10.5086 0 8.42236C0.886829 7.01588 3.36473 5.39844 5.32098 6.64083C6.54689 7.50815 7.43371 9.17248 8.42488 10.8368C8.81612 11.4932 8.89437 11.7041 9.33779 12.0792C9.25954 12.97 7.85105 13.8138 6.85988 13.4153ZM5.16448 11.0478C4.79931 10.4149 4.25156 9.43033 3.80815 8.93807C3.7299 8.91463 3.2604 9.07872 3.23432 9.14904C3.33865 9.45378 4.01681 10.7665 4.27765 11.4463L5.16448 11.0478Z" fill="#20C9C1"/>
<path d="M18.7279 9.6178C18.2323 10.3914 16.0413 11.3056 15.4675 9.57092C14.8937 7.83627 14.6329 7.6253 13.746 7.93003C14.0329 8.65671 14.4764 10.0163 14.685 10.6727C14.2938 11.3525 12.3375 12.2901 11.6594 10.7899C11.3985 10.2273 11.1377 9.12554 10.903 8.4223C10.277 6.40635 10.1465 5.96097 9.44229 4.32008C9.85962 4.01534 11.6854 2.77296 12.4679 4.22632C12.9114 5.09364 13.0679 6.00785 13.3026 6.52356C14.4764 5.96097 13.5634 4.22632 13.3809 3.17146C14.059 2.77296 15.1806 2.04628 15.9109 2.98393C16.8238 4.15599 16.2239 6.19538 15.3893 6.52356C16.7717 6.24226 17.5281 6.85174 17.815 7.57841C18.1019 8.18789 18.2845 9.03177 18.7279 9.6178Z" fill="#20C9C1"/>
<path d="M27.7786 6.50002C28.0395 8.1409 26.3702 8.96135 24.8312 9.17232L23.6314 9.33641C22.4577 9.5005 21.3361 9.45361 21.1013 8.30499C20.997 7.78929 20.9709 7.57831 20.8927 7.03917L20.058 2.23371C21.4926 0.756911 26.0572 0.264645 26.5267 2.7963C26.7353 3.96836 26.0572 4.48407 25.4312 4.71848C26.3962 4.64816 27.5439 4.95289 27.7786 6.50002ZM23.2662 4.31998C24.7791 4.22622 24.0227 2.30403 23.0315 2.91351L23.2662 4.31998ZM23.8401 7.43767C25.379 7.57831 24.753 5.16387 23.5532 5.7499C23.6053 6.00775 23.7879 7.2267 23.8401 7.43767Z" fill="#20C9C1"/>
<path d="M35.2382 7.95327C34.8209 7.57821 34.847 6.82809 34.847 6.82809C34.5861 6.82809 33.8558 6.85153 33.6732 6.87497C33.6211 7.0625 33.6471 7.81262 33.6732 8.04703C32.1343 9.00812 30.4128 8.58618 30.5172 6.73432C30.6476 4.22611 31.0388 3.26502 31.0649 1.0381C32.4734 0.0301261 35.4469 -0.602787 36.725 1.20219C37.4814 2.42113 37.6118 4.24955 37.8205 6.14829C37.8987 6.87497 37.8987 7.13282 38.1335 7.62509C37.6379 8.35177 35.9946 8.6565 35.2382 7.95327ZM34.6644 5.16376C34.5861 4.46052 34.534 3.35878 34.3253 2.74931C34.2731 2.67899 33.7776 2.67899 33.6993 2.74931C33.6732 3.05405 33.7515 4.5074 33.6993 5.21064L34.6644 5.16376Z" fill="#20C9C1"/>
<path d="M47.9668 8.00042C47.2104 8.58645 44.8108 8.82086 44.889 6.99245C44.9673 5.18747 44.8108 4.92962 43.8457 4.92962C43.8457 5.70318 43.7674 7.10965 43.7414 7.78945C43.1154 8.3286 40.9505 8.65677 40.8461 7.01589C40.82 6.40641 40.9765 5.28123 41.0026 4.55456C41.133 2.46828 41.1852 1.99946 41.0809 0.264807C41.5765 0.100718 43.7674 -0.532196 43.9761 1.03837C44.0804 1.99946 43.9239 2.89023 43.95 3.45282C45.2542 3.26529 45.0455 1.3431 45.2281 0.311689C46.0106 0.147601 47.3408 -0.227459 47.706 0.874279C48.1494 2.25731 46.8192 4.01541 45.9323 4.06229C47.3669 4.20294 47.8364 4.9765 47.8625 5.7735C47.8886 6.4533 47.7582 7.32062 47.9668 8.00042Z" fill="#20C9C1"/>
<path d="M58.3478 6.73462C58.1913 7.64883 58.4 8.16454 58.7391 8.28175C58.2957 9.28972 57.5914 9.75855 56.4438 9.59446C55.0353 9.38349 55.1396 7.97701 55.4004 6.52365C55.583 5.60945 55.7917 4.6718 55.9221 3.992C56.0004 3.57006 56.0525 3.195 56.0004 3.17156C55.2179 3.05435 54.957 3.66382 54.8005 4.60147C54.7223 5.0703 54.6701 5.63289 54.5658 6.17204C54.3049 7.62539 53.9919 9.31316 52.2183 9.05531C51.2793 8.91466 50.4446 8.23486 50.6272 7.22689C50.6533 7.03936 50.7315 6.82839 50.8359 6.61742C52.3226 6.80495 52.0096 5.51568 52.6617 3.195C53.1312 1.57755 54.0441 0.874313 56.7568 1.27281C57.5393 1.39002 58.3739 1.57755 59.026 1.88229C59.026 1.95261 58.9738 2.06982 58.9478 2.23391L58.3478 6.73462Z" fill="#20C9C1"/>
<path d="M69.2236 6.4064C68.5976 8.82085 67.7368 11.9854 64.1895 11.2353C63.5896 11.1181 62.781 10.9306 62.1811 10.4383C61.3464 9.73506 61.5812 8.42235 62.6245 8.49267C63.2244 9.10215 66.0153 9.92259 66.1718 8.11761C65.4415 8.44579 63.5635 8.18794 62.9897 7.53158C61.9463 6.4064 62.9636 4.8124 63.1462 3.14807C63.6157 2.58548 65.2589 2.42139 65.7545 3.40592C66.0675 3.99195 65.7284 4.5311 65.4937 5.3281C65.3632 5.75005 65.1285 6.54705 65.6241 6.66426C66.3283 6.82834 66.6152 5.02337 66.8239 4.32013C67.1369 3.19495 68.8584 3.47625 69.3279 4.24981C69.5887 4.74207 69.4322 5.65628 69.2236 6.4064Z" fill="#20C9C1"/>
<path d="M77.441 13.1575C76.7106 14.6812 74.8066 14.5874 73.372 14.0483L72.2504 13.6263C71.1549 13.2278 70.1638 12.6183 70.6593 11.54C70.868 11.0478 70.9723 10.8602 71.2071 10.3445L71.8592 8.91462C72.9286 6.64082 73.1112 6.33608 73.3981 5.42188C75.0152 5.42188 77.5453 6.61738 78.9799 7.17997C79.2146 7.41438 79.0581 9.40689 77.441 9.2428C77.0758 8.89118 75.5108 8.30515 75.2239 8.42235C75.0152 8.82086 74.9891 8.89118 74.7544 9.45377C77.4931 10.3211 78.1191 11.7041 77.441 13.1575ZM73.4502 12.2667C73.998 12.4777 74.4675 12.5949 74.7544 11.7276C75.0413 11.0009 74.4414 10.9306 74.1284 10.7899C74.0501 11.0243 73.5024 12.0557 73.4502 12.2667Z" fill="#20C9C1"/>
<path fill-rule="evenodd" clip-rule="evenodd" d="M31.9824 28.6198C31.0997 29.0906 29.3048 29.4143 28.0102 28.9435C26.127 28.2962 24.8618 26.5307 24.8912 24.7653C24.9501 22.3231 27.7454 20.3811 29.8933 21.97C30.6289 22.529 31.0703 23.4118 30.8349 24.3828C30.6583 25.1478 30.0404 25.7068 29.4814 25.8834C28.6281 26.1188 27.8042 25.648 27.5394 25.0595C27.1275 24.0885 27.8925 23.2646 28.5987 23.2941C29.5402 23.3529 29.6874 24.4416 29.0695 24.7064C29.246 24.5299 29.3048 24.2945 29.246 24.1179C29.1871 23.912 28.9812 23.7943 28.7752 23.7354C27.8336 23.5589 27.5688 24.9712 28.5398 25.3243C29.5991 25.7363 30.5112 24.6181 30.3053 23.5883C30.2758 23.3823 30.1876 23.2058 30.0699 23.0292C29.6285 22.3525 28.5987 21.8523 27.5688 22.2054C26.127 22.6762 25.1266 25.0889 26.745 26.7367C27.3334 27.3546 28.2456 27.8254 29.3637 27.8254C31.8059 27.796 33.3065 25.648 33.2477 23.3823C33.1594 19.7926 29.6579 17.7329 26.3036 18.4685C24.5087 18.851 22.9492 19.9103 21.9488 21.4698C20.9484 23.0293 20.6542 24.9712 20.9484 26.8838C21.89 32.9157 27.8631 34.9166 33.1006 33.0923C34.2187 32.6509 33.8362 29.5614 32.9829 28.5904C32.5415 28.149 32.3649 28.4139 31.9824 28.6198Z" fill="#20C9C1"/>
<path d="M34.0441 18.1453C34.6032 17.5568 35.5447 17.5568 36.1038 18.1159C36.6923 18.6749 36.6923 19.6165 36.1332 20.1756C35.5742 20.7641 34.6326 20.764 34.0735 20.205C33.4851 19.6754 33.4556 18.7338 34.0441 18.1453Z" fill="#20C9C1"/>
<path d="M34.7503 20.2936C34.9562 20.2936 35.1622 20.2348 35.3682 20.1759C35.4565 20.1465 35.5447 20.0877 35.633 20.0288C35.7213 19.97 35.7801 19.9111 35.8684 19.8228C36.0155 19.6757 36.1038 19.4992 36.1626 19.2932C36.2215 19.0872 36.2509 18.8813 36.1921 18.6753C36.3098 18.8518 36.3097 19.0872 36.2803 19.3226C36.2215 19.5286 36.1332 19.7346 35.9861 19.9111C35.839 20.0876 35.633 20.2053 35.427 20.2642C35.1622 20.3525 34.9562 20.3525 34.7503 20.2936Z" fill="#20C9C1"/>
<path d="M21.3328 33.9757C22.1567 33.1224 23.5102 33.1224 24.3635 33.9463C25.2168 34.7702 25.2168 36.1237 24.3929 36.977C23.569 37.8303 22.2155 37.8303 21.3622 37.0064C20.5089 36.1825 20.5089 34.829 21.3328 33.9757Z" fill="#20C9C1"/>
<path d="M22.3629 37.1236C22.6865 37.1236 22.9808 37.0353 23.2456 36.9176C23.3927 36.8588 23.5104 36.7999 23.6281 36.6822C23.7458 36.5939 23.8635 36.5057 23.9518 36.388C24.1577 36.182 24.3048 35.9172 24.3931 35.623C24.4814 35.3287 24.5108 35.0345 24.4225 34.7402C24.5991 35.0051 24.5991 35.3581 24.5402 35.6818C24.4814 36.0055 24.3048 36.2997 24.0989 36.5351C23.8929 36.7705 23.5987 36.9765 23.275 37.0647C23.0102 37.2119 22.6571 37.2118 22.3629 37.1236Z" fill="#20C9C1"/>
<path fill-rule="evenodd" clip-rule="evenodd" d="M19.0966 26.7378L20.5384 32.7697C20.8326 34.0055 20.0676 35.2413 18.8318 35.5356L17.596 35.8298C16.3602 36.1241 15.1244 35.359 14.8301 34.1232L14.2416 31.6516C14.889 31.2103 15.5069 30.6512 16.0954 30.0039C17.2429 29.0329 18.0962 28.1502 18.6552 27.3557C18.8612 27.1203 19.0083 26.9143 19.0966 26.7378Z" fill="#20C9C1"/>
<path fill-rule="evenodd" clip-rule="evenodd" d="M14.0076 20.617L15.2434 20.3227C16.4792 20.0285 17.715 20.7935 18.0092 22.0293L18.5094 24.1184C18.4506 24.1479 18.4212 24.1773 18.3623 24.2067C18.3623 24.2067 18.1269 24.2656 17.8327 24.3244C17.1854 24.4421 16.3909 24.6187 15.7141 25.0306C15.5965 24.9129 15.4788 24.7952 15.3611 24.6775C14.9197 24.295 14.3606 23.9419 13.7427 23.6477C13.7133 23.6182 13.6545 23.6182 13.625 23.6182C13.1837 23.5005 12.7129 23.7654 12.6246 24.2067C12.6246 24.2656 12.5952 24.3244 12.5952 24.3833L12.3598 23.4123C12.0067 22.147 12.7717 20.9112 14.0076 20.617Z" fill="#20C9C1"/>
<path fill-rule="evenodd" clip-rule="evenodd" d="M10.2695 33.0342L10.7697 35.0939C11.0639 36.3297 10.2989 37.5656 9.06307 37.8598L7.82726 38.154C6.59144 38.4483 5.35564 37.6833 5.06139 36.4474L3.70789 30.8274C3.70789 30.7392 3.73731 30.7097 3.76674 30.6509C3.79616 30.6215 3.85501 30.5626 3.94328 30.5332C6.03239 32.2104 8.15092 33.0342 10.1812 33.0048L10.2695 33.0342Z" fill="#20C9C1"/>
<path d="M15.5656 29.3853C12.1818 33.1516 8.18017 33.0633 4.11964 29.6207C2.9721 29.9149 2.91326 30.3857 2.85441 31.239C2.85441 31.2978 2.76614 31.3567 2.67786 31.3273C0.912418 30.5917 0.794723 28.0612 1.58917 26.9431C0.000272751 24.3832 0.529907 22.3235 1.38321 21.3231C1.53033 20.3521 1.29493 20.2638 1.26551 19.5282C1.20666 18.6749 1.53032 18.1159 2.20708 18.6749C3.03095 19.3222 2.9721 19.7342 3.50174 20.5581C3.70771 20.8817 4.14907 21.2054 4.47273 21.4408C5.29661 22.0587 5.62027 22.5295 6.03221 23.471C7.62111 23.2651 9.23943 22.912 9.97503 24.5303C10.2693 25.1776 9.62195 25.0599 9.23943 25.0011C8.56268 24.9128 7.94477 25.0011 7.44456 25.5013C8.20959 28.0612 11.2991 30.062 13.859 28.5614C15.1242 27.7964 12.888 26.4429 13.4177 24.4126C14.5358 24.9128 15.3302 25.619 15.595 26.3546C16.2718 25.1188 18.3609 25.2071 18.8317 24.9128C18.9494 25.7955 17.8901 27.4433 15.5656 29.3853Z" fill="#20C9C1"/>
<circle cx="1.88335" cy="21.8826" r="0.294241" fill="#20C9C1"/>
<path d="M22.3629 37.1236C22.6865 37.1236 22.9808 37.0353 23.2456 36.9176C23.3927 36.8588 23.5104 36.7999 23.6281 36.6822C23.7458 36.5939 23.8635 36.5057 23.9518 36.388C24.1577 36.182 24.3048 35.9172 24.3931 35.623C24.4814 35.3287 24.5108 35.0345 24.4225 34.7402C24.5991 35.0051 24.5991 35.3581 24.5402 35.6818C24.4814 36.0055 24.3048 36.2997 24.0989 36.5351C23.8929 36.7705 23.5987 36.9765 23.275 37.0647C23.0102 37.2119 22.6571 37.2118 22.3629 37.1236Z" fill="#20C9C1"/>
<path d="M75.3555 35.5939C76.2382 36.0647 77.6211 36.5943 78.8569 35.6822C79.0629 35.5645 78.9158 35.5056 78.8275 35.5056C78.1213 35.5351 76.7384 35.0349 76.1205 34.6523C75.9145 35.0054 75.6497 35.3291 75.3555 35.5939Z" fill="#20C9C1"/>
<path d="M74.0625 36.595C74.239 37.154 74.4744 37.9191 74.445 38.6252C74.4156 38.8312 74.651 38.8312 74.7393 38.8018C75.8279 38.2721 75.3866 36.6832 75.0923 35.8594C74.7393 36.1536 74.4156 36.389 74.0625 36.595Z" fill="#20C9C1"/>
<path d="M76.4148 34.2695C77.1209 34.4755 78.9158 34.8874 79.5631 33.887C79.622 33.7988 79.6514 33.5045 79.4749 33.6222C78.3273 33.8282 77.5329 33.2985 77.0621 32.7983C77.0327 32.9455 76.9738 33.0632 76.915 33.2103C76.7679 33.5928 76.5913 33.9459 76.4148 34.2695Z" fill="#20C9C1"/>
<path d="M62.5578 30.9454C61.5868 30.71 60.1745 30.2686 59.8214 28.768C59.7331 28.5326 59.9096 28.5914 59.9391 28.6503C60.4687 29.1211 61.8516 29.6213 62.5578 29.739C62.499 30.1215 62.499 30.5334 62.5578 30.9454Z" fill="#20C9C1"/>
<path d="M62.9097 32.5335C62.4095 32.8278 61.7328 33.2691 61.3208 33.8576C61.2031 34.0636 61.0266 33.887 60.9972 33.7988C60.497 32.7101 61.8799 31.7685 62.6155 31.3271C62.6744 31.7391 62.7626 32.151 62.9097 32.5335Z" fill="#20C9C1"/>
<path d="M62.6148 29.2377C61.9381 28.9434 60.2903 28.0901 60.4669 26.9132C60.4669 26.7955 60.6434 26.5601 60.7023 26.7661C61.4379 27.6488 62.3794 27.7665 63.0562 27.7076C62.9974 27.8253 62.9385 27.9725 62.8797 28.1196C62.762 28.5021 62.6737 28.8552 62.6148 29.2377Z" fill="#20C9C1"/>
<path d="M66.0576 24.56C66.0282 23.9421 65.0278 23.5302 64.4981 23.4419C63.8214 24.2069 63.8214 25.5016 64.0568 26.1783C64.5864 25.5016 65.2926 24.972 66.0576 24.56Z" fill="#20C9C1"/>
<path d="M65.438 22.9709C66.2324 23.2651 66.5561 23.7359 66.6444 24.1184C67.3505 23.9124 68.8512 23.4711 69.9693 23.0297C70.7049 22.7355 71.2934 22.2058 71.4993 21.6762C67.7625 22.6178 69.0571 20.5287 72.029 19.2046C71.5582 19.1457 70.6755 19.1457 69.1748 19.44C66.6738 19.9402 65.3497 21.9704 64.8789 22.8237C65.0849 22.8532 65.2614 22.912 65.438 22.9709Z" fill="#20C9C1"/>
<path d="M76.7971 28.4724C77.209 28.0016 78.2683 28.3253 78.7097 28.6195C78.7391 29.6494 77.9152 30.6498 77.2973 31.0029C77.2973 30.1202 77.1208 29.2669 76.7971 28.4724Z" fill="#20C9C1"/>
<path d="M78.2979 27.6494C77.5034 27.3552 76.9738 27.5317 76.6207 27.7671C76.2087 27.1492 75.3554 25.8546 74.767 24.7953C74.4139 24.1185 74.2962 23.2947 74.4727 22.765C76.7384 25.884 77.0915 23.4712 75.6497 20.5288C76.0616 20.7936 76.7384 21.3527 77.6799 22.5591C79.2688 24.5599 78.9746 26.9433 78.7981 27.9143C78.6215 27.7671 78.445 27.7083 78.2979 27.6494Z" fill="#20C9C1"/>
<path fill-rule="evenodd" clip-rule="evenodd" d="M75.7968 28.2374C75.0317 26.7956 73.7076 25.5598 71.9716 24.9419C70.2356 24.324 68.4407 24.3828 66.9107 25.0007C65.4101 25.6186 64.2037 26.7956 63.6152 28.3845C63.0267 29.9734 63.2032 31.6506 63.9683 33.0924C64.7333 34.5341 66.0574 35.7699 67.7934 36.3879C69.5294 37.0058 71.3243 36.9469 72.8543 36.329C74.355 35.7111 75.5614 34.5341 76.1498 32.9452C76.7383 31.3563 76.5618 29.6792 75.7968 28.2374Z" fill="#20C9C1"/>
<path d="M69.5591 26.5894C70.4519 27.8858 71.1205 28.2059 72.6486 27.9134" stroke="white" stroke-linecap="round" stroke-linejoin="round"/>
<path d="M70.0609 23.6479C69.7078 23.5302 69.3547 23.7068 69.237 24.0304C69.1193 24.3247 69.237 24.6483 69.5018 24.7954C69.6784 24.8249 69.8549 24.8543 70.0021 24.8837C70.208 24.8249 70.3846 24.6778 70.4728 24.4718C70.5905 24.1481 70.414 23.7656 70.0609 23.6479Z" fill="#20C9C1"/>
<circle cx="69.7062" cy="24.089" r="0.14712" fill="#20C9C1"/>
<path d="M74.298 25.1772C73.9449 25.0595 73.5918 25.2361 73.4741 25.5597C73.3564 25.9128 73.5329 26.2659 73.8566 26.3836C74.2097 26.5013 74.5628 26.3247 74.6805 26.0011C74.7982 25.6774 74.6216 25.3243 74.298 25.1772Z" fill="#20C9C1"/>
<circle cx="73.9674" cy="25.7028" r="0.14712" fill="#20C9C1"/>
<path d="M79.5642 30.7683C79.9467 30.3858 80.5647 30.3858 80.9472 30.7683C81.3297 31.1508 81.3297 31.7687 80.9472 32.1513C80.5647 32.5338 79.9467 32.5338 79.5642 32.1513C79.1817 31.7687 79.1817 31.1508 79.5642 30.7683Z" fill="#20C9C1"/>
<path d="M80.0352 32.2098C80.1823 32.2098 80.3 32.1804 80.4471 32.1215C80.5059 32.0921 80.5648 32.0627 80.6236 32.0332C80.6825 32.0038 80.7413 31.945 80.7708 31.8861C80.859 31.7978 80.9179 31.6801 80.9767 31.533C81.0061 31.4153 81.0356 31.2682 81.0061 31.1211C81.0944 31.2388 81.0944 31.4153 81.065 31.533C81.0356 31.6801 80.9767 31.8273 80.859 31.9155C80.7708 32.0332 80.6236 32.1215 80.4765 32.1509C80.3294 32.2392 80.1823 32.2392 80.0352 32.2098Z" fill="#20C9C1"/>
<path d="M73.4722 18.7626C74.1196 18.3507 74.9434 18.5272 75.3554 19.1745C75.7673 19.8219 75.5908 20.6458 74.9434 21.0577C74.2961 21.4696 73.4722 21.2931 73.0603 20.6458C72.6778 20.0278 72.8543 19.1746 73.4722 18.7626Z" fill="#20C9C1"/>
<path d="M73.6797 20.8822C73.8857 20.9116 74.0622 20.9116 74.2682 20.8822C74.3564 20.8527 74.4447 20.8233 74.533 20.7939C74.6213 20.7645 74.7095 20.7056 74.7684 20.6468C74.9155 20.5291 75.0626 20.382 75.1509 20.2348C75.2392 20.0583 75.298 19.8817 75.298 19.6758C75.3569 19.8817 75.3274 20.0877 75.2392 20.2643C75.1509 20.4408 75.0038 20.6174 74.8272 20.735C74.6507 20.8527 74.4447 20.941 74.2387 20.941C74.0916 20.9999 73.8562 20.9704 73.6797 20.8822Z" fill="#20C9C1"/>
<path d="M59.3195 21.4411C59.9963 20.7349 61.1144 20.7349 61.8205 21.4117C62.5267 22.0884 62.5267 23.2065 61.85 23.9127C61.1732 24.6189 60.0551 24.6189 59.3489 23.9421C58.6427 23.2654 58.6427 22.1473 59.3195 21.4411Z" fill="#20C9C1"/>
<path d="M60.1728 24.0298C60.4376 24.0298 60.673 23.9709 60.9084 23.8826C61.0261 23.8238 61.1143 23.7649 61.232 23.7061C61.3203 23.6472 61.4086 23.559 61.4968 23.4707C61.6734 23.2942 61.7911 23.0882 61.8499 22.8528C61.9088 22.6174 61.9676 22.382 61.8794 22.1172C62.0265 22.3526 62.0265 22.6174 61.9676 22.8822C61.9088 23.147 61.7911 23.3824 61.6145 23.5884C61.438 23.7944 61.2026 23.9415 60.9378 24.0298C60.7024 24.0886 60.4376 24.118 60.1728 24.0298Z" fill="#20C9C1"/>
<path d="M45.2829 24.3543C45.8419 23.7658 46.7835 23.7658 47.372 24.3249C47.9605 24.8839 47.9605 25.8255 47.4014 26.414C46.8423 27.0025 45.9008 27.0025 45.3123 26.4434C44.7238 25.8549 44.7238 24.9428 45.2829 24.3543Z" fill="#20C9C1"/>
<path d="M45.9883 26.5011C46.1942 26.5011 46.4002 26.4423 46.6062 26.3834C46.6945 26.354 46.7827 26.2952 46.871 26.2363C46.9593 26.1775 47.0181 26.1186 47.1064 26.0303C47.2535 25.8832 47.3418 25.7067 47.4006 25.5007C47.4595 25.2947 47.4889 25.0888 47.4301 24.8828C47.5478 25.0594 47.5478 25.3242 47.5183 25.5301C47.4595 25.7361 47.3712 25.9421 47.2241 26.1186C47.077 26.2952 46.871 26.4129 46.665 26.4717C46.4296 26.56 46.2237 26.56 45.9883 26.5011Z" fill="#20C9C1"/>
<path d="M71.2361 38.3299C71.6186 37.9473 72.2365 37.9473 72.619 38.3299C73.0015 38.7124 73.0015 39.3303 72.619 39.7128C72.2365 40.0953 71.6186 40.0953 71.2361 39.7128C70.883 39.3303 70.8536 38.7124 71.2361 38.3299Z" fill="#20C9C1"/>
<path d="M71.7069 39.7718C71.8541 39.7718 71.9718 39.7424 72.1189 39.6835C72.1777 39.6541 72.2366 39.6247 72.2954 39.5953C72.3543 39.5658 72.4131 39.507 72.4425 39.4481C72.5308 39.3599 72.5897 39.2422 72.6485 39.095C72.6779 38.9773 72.7074 38.8302 72.6779 38.6831C72.7662 38.8008 72.7662 38.9773 72.7368 39.095C72.7074 39.2422 72.6485 39.3893 72.5308 39.4776C72.4425 39.5952 72.2954 39.6835 72.1483 39.7129C72.0012 39.8012 71.8541 39.8012 71.7069 39.7718Z" fill="#20C9C1"/>
<path d="M71.7069 39.7718C71.8541 39.7718 71.9718 39.7424 72.1189 39.6835C72.1777 39.6541 72.2366 39.6247 72.2954 39.5953C72.3543 39.5658 72.4131 39.507 72.4425 39.4481C72.5308 39.3599 72.5897 39.2422 72.6485 39.095C72.6779 38.9773 72.7074 38.8302 72.6779 38.6831C72.7662 38.8008 72.7662 38.9773 72.7368 39.095C72.7074 39.2422 72.6485 39.3893 72.5308 39.4776C72.4425 39.5952 72.2954 39.6835 72.1483 39.7129C72.0012 39.8012 71.8541 39.8012 71.7069 39.7718Z" fill="#20C9C1"/>
<path d="M57.6144 31.3269C58.2029 30.7385 59.1445 30.7385 59.733 31.2975C60.3214 31.886 60.3214 32.8276 59.7624 33.4161C59.1739 34.0045 58.2323 34.0045 57.6438 33.4455C57.0554 32.857 57.0259 31.9154 57.6144 31.3269Z" fill="#20C9C1"/>
<path fill-rule="evenodd" clip-rule="evenodd" d="M40.4588 32.5044C42.7538 38.8012 49.0506 37.0651 51.2574 32.1807C51.5516 33.3577 52.1107 34.5935 52.8463 35.1231C53.8761 35.8587 55.0825 35.5351 56.0829 34.7995C57.1716 37.0651 60.2612 35.947 60.4671 33.4754C60.0552 33.9756 59.4667 34.5052 58.378 34.4464C57.4364 34.3875 56.5243 33.7108 56.2301 32.1807C56.1418 32.2102 55.7004 32.4161 55.3473 32.5044C54.9943 32.5927 54.6412 32.5632 54.3469 32.4455C53.8173 32.2102 53.3465 31.504 53.4054 30.3859C53.4642 29.3854 53.9056 28.6793 54.4352 28.4733C55.3768 28.0908 55.671 28.591 56.2301 29.0029C55.877 24.1774 53.0817 24.0303 51.4339 25.1778C48.6092 27.1492 48.315 31.504 45.2843 31.4746C40.2822 31.4451 42.6067 19.6461 48.5504 22.6473C47.4911 18.6162 43.5189 18.0572 41.5769 19.6166C35.8686 24.148 40.547 34.8289 29.1599 34.5052C34.5445 38.9777 39.5466 35.2997 40.4588 32.5044Z" fill="#20C9C1"/>
<path d="M58.3203 33.5335C58.5263 33.5335 58.7617 33.4746 58.9382 33.3864C59.0265 33.3569 59.1148 33.2981 59.203 33.2393C59.2913 33.1804 59.3502 33.1216 59.4384 33.0333C59.5856 32.8862 59.6738 32.7096 59.7327 32.5036C59.7915 32.2977 59.8209 32.0917 59.7621 31.8857C59.8798 32.0623 59.9092 32.3271 59.8504 32.5331C59.7915 32.7685 59.7032 32.9744 59.5267 33.151C59.3796 33.3275 59.1736 33.4452 58.9676 33.5335C58.7911 33.5629 58.5557 33.5923 58.3203 33.5335Z" fill="#20C9C1"/>
</svg>
