<svg width="138" height="65" viewBox="0 0 138 65" fill="none" xmlns="http://www.w3.org/2000/svg">
<path d="M11.6535 21.7998C10.723 21.457 10.2356 20.3142 10.2356 20.3142C9.8368 20.5047 8.72905 20.8856 8.41888 20.9999C8.46319 21.3046 9.08353 22.4474 9.21646 22.7521C7.48837 25.0376 4.4753 25.3805 3.27893 22.5616C1.68378 18.7143 1.63947 17.0763 0 13.6861C1.50654 11.4006 5.71598 8.77221 9.03922 10.7911C11.1218 12.2005 12.6283 14.9051 14.3121 17.6096C14.9767 18.6762 15.1097 19.0191 15.8629 19.6285C15.73 21.076 13.3373 22.4474 11.6535 21.7998ZM8.77336 17.9525C8.15302 16.924 7.22251 15.3241 6.46925 14.5242C6.33632 14.4861 5.53874 14.7527 5.49443 14.867C5.67167 15.3622 6.82373 17.4954 7.26682 18.6L8.77336 17.9525Z" fill="white"/>
<path d="M31.8142 15.6288C30.9723 16.8858 27.2503 18.3714 26.2755 15.5526C25.3007 12.7338 24.8576 12.3909 23.351 12.8861C23.8385 14.067 24.5917 16.2764 24.9462 17.3429C24.2816 18.4476 20.9583 19.9713 19.8063 17.5334C19.3632 16.6192 18.9201 14.8288 18.5213 13.6861C17.4578 10.4101 17.2363 9.68638 16.0399 7.01991C16.7489 6.52471 19.8506 4.50582 21.1799 6.86754C21.9331 8.27696 22.199 9.76256 22.5978 10.6006C24.5917 9.68638 23.0409 6.86754 22.7307 5.15339C23.8828 4.50582 25.7881 3.32495 27.0288 4.84865C28.5796 6.75326 27.5605 10.0673 26.1426 10.6006C28.491 10.1435 29.776 11.1339 30.2634 12.3147C30.7508 13.3052 31.061 14.6765 31.8142 15.6288Z" fill="white"/>
<path d="M47.19 10.5621C47.6331 13.2286 44.7973 14.5618 42.183 14.9046L40.1448 15.1713C38.1508 15.4379 36.2455 15.3618 35.8467 13.4952C35.6695 12.6572 35.6252 12.3144 35.4922 11.4382L34.0743 3.62931C36.5114 1.22949 44.2656 0.429549 45.0632 4.54352C45.4177 6.44814 44.2656 7.28617 43.2022 7.6671C44.8416 7.55282 46.7913 8.04802 47.19 10.5621ZM39.5244 7.01953C42.0944 6.86716 40.8094 3.74358 39.1256 4.73399L39.5244 7.01953ZM40.4992 12.0858C43.1135 12.3144 42.0501 8.39085 40.0118 9.34316C40.1005 9.76218 40.4106 11.743 40.4992 12.0858Z" fill="white"/>
<path d="M59.8598 12.9245C59.1508 12.315 59.1952 11.096 59.1952 11.096C58.7521 11.096 57.5114 11.1341 57.2012 11.1722C57.1126 11.477 57.1569 12.6959 57.2012 13.0768C54.5869 14.6386 51.6625 13.953 51.8397 10.9437C52.0613 6.86779 52.7259 5.30601 52.7702 1.68723C55.1629 0.0492597 60.2143 -0.979234 62.3855 1.95388C63.6705 3.93468 63.892 6.90588 64.2465 9.99136C64.3794 11.1722 64.3794 11.5912 64.7782 12.3912C63.9363 13.572 61.1448 14.0672 59.8598 12.9245ZM58.885 8.39149C58.7521 7.24872 58.6634 5.45837 58.309 4.46797C58.2203 4.3537 57.3784 4.3537 57.2455 4.46797C57.2012 4.96317 57.3341 7.3249 57.2455 8.46767L58.885 8.39149Z" fill="white"/>
<path d="M81.4873 13.0008C80.2023 13.9531 76.1258 14.334 76.2587 11.3628C76.3917 8.42971 76.1258 8.01069 74.4863 8.01069C74.4863 9.26774 74.3534 11.5533 74.3091 12.658C73.2457 13.5341 69.5679 14.0674 69.3907 11.4009C69.3464 10.4105 69.6122 8.58208 69.6566 7.40122C69.8781 4.011 69.9667 3.24915 69.7895 0.430314C70.6314 0.163668 74.3534 -0.864826 74.7079 1.68736C74.8851 3.24915 74.6193 4.69666 74.6636 5.61087C76.8791 5.30614 76.5246 2.18256 76.8348 0.506499C78.1641 0.239853 80.4239 -0.369625 81.0442 1.42072C81.7975 3.66816 79.5377 6.52509 78.0311 6.60128C80.4682 6.82983 81.2658 8.08688 81.3101 9.38202C81.3544 10.4867 81.1328 11.8961 81.4873 13.0008Z" fill="white"/>
<path d="M99.1235 10.9437C98.8577 12.4293 99.2121 13.2673 99.7882 13.4578C99.0349 15.0957 97.8385 15.8576 95.8889 15.5909C93.4962 15.2481 93.6734 12.9626 94.1165 10.6008C94.4267 9.11523 94.7812 7.59154 95.0027 6.48686C95.1356 5.80119 95.2243 5.19172 95.1356 5.15362C93.8063 4.96316 93.3632 5.95356 93.0974 7.47726C92.9644 8.2391 92.8758 9.15332 92.6986 10.0294C92.2555 12.3912 91.7238 15.1338 88.7107 14.7148C87.1155 14.4863 85.6976 13.3816 86.0078 11.7436C86.0521 11.4389 86.185 11.096 86.3623 10.7532C88.8879 11.0579 88.3562 8.96286 89.464 5.19172C90.2615 2.56334 91.8124 1.42057 96.4206 2.06814C97.7499 2.2586 99.1678 2.56334 100.276 3.05854C100.276 3.17282 100.187 3.36328 100.143 3.62993L99.1235 10.9437Z" fill="white"/>
<path d="M117.599 10.4103C116.536 14.3338 115.074 19.4763 109.047 18.2574C108.028 18.0669 106.655 17.7622 105.636 16.9622C104.218 15.8194 104.616 13.6863 106.389 13.8005C107.408 14.791 112.149 16.1242 112.415 13.1911C111.174 13.7244 107.984 13.3054 107.009 12.2388C105.237 10.4103 106.965 7.82005 107.275 5.11549C108.073 4.20128 110.864 3.93463 111.706 5.53451C112.238 6.48682 111.662 7.36294 111.263 8.65808C111.041 9.34375 110.643 10.6389 111.484 10.8293C112.681 11.096 113.168 8.16288 113.523 7.02011C114.054 5.19168 116.979 5.64879 117.777 6.90584C118.22 7.70577 117.954 9.19138 117.599 10.4103Z" fill="white"/>
<path d="M131.556 21.381C130.315 23.857 127.081 23.7047 124.644 22.8285L122.738 22.1429C120.877 21.4953 119.193 20.5049 120.035 18.7527C120.39 17.9527 120.567 17.648 120.966 16.8099L122.074 14.4863C123.89 10.7914 124.2 10.2961 124.688 8.81055C127.435 8.81055 131.733 10.7533 134.17 11.6675C134.569 12.0484 134.303 15.2863 131.556 15.0196C130.936 14.4482 128.277 13.4959 127.79 13.6864C127.435 14.3339 127.391 14.4482 126.992 15.3624C131.644 16.7719 132.708 19.0193 131.556 21.381ZM124.776 19.9335C125.707 20.2763 126.505 20.4668 126.992 19.0574C127.479 17.8765 126.46 17.7623 125.929 17.5337C125.796 17.9146 124.865 19.5907 124.776 19.9335Z" fill="white"/>
<path fill-rule="evenodd" clip-rule="evenodd" d="M54.3351 46.5083C52.8355 47.2734 49.7864 47.7993 47.5871 47.0343C44.388 45.9824 42.2386 43.1135 42.2886 40.2446C42.3886 36.276 47.1372 33.1203 50.7861 35.7022C52.0358 36.6107 52.7855 38.0452 52.3856 39.623C52.0857 40.8662 51.0361 41.7747 50.0863 42.0616C48.6368 42.4441 47.2372 41.6791 46.7873 40.7228C46.0875 39.1449 47.3871 37.8061 48.5868 37.8539C50.1863 37.9495 50.4362 39.7187 49.3865 40.149C49.6864 39.8621 49.7864 39.4796 49.6864 39.1927C49.5865 38.858 49.2366 38.6667 48.8867 38.5711C47.2871 38.2842 46.8373 40.5793 48.4868 41.1531C50.2863 41.8225 51.8358 40.0055 51.4859 38.332C51.4359 37.9973 51.286 37.7105 51.086 37.4236C50.3363 36.3238 48.5868 35.511 46.8373 36.0848C44.388 36.8498 42.6885 40.7706 45.4377 43.4482C46.4374 44.4523 47.9869 45.2173 49.8864 45.2173C54.0352 45.1695 56.5844 41.6791 56.4845 37.9973C56.3345 32.164 50.3862 28.817 44.6879 30.0123C41.6388 30.6339 38.9896 32.3552 37.2901 34.8894C35.5906 37.4236 35.0907 40.5793 35.5906 43.6873C37.1901 53.4892 47.3371 56.7406 56.2345 53.7761C58.134 53.0589 57.4842 48.0384 56.0346 46.4605C55.2848 45.7433 54.9849 46.1736 54.3351 46.5083Z" fill="white"/>
<path d="M57.8352 29.4855C58.785 28.5292 60.3845 28.5292 61.3342 29.4377C62.3339 30.3462 62.3339 31.8762 61.3842 32.7847C60.4345 33.741 58.8349 33.741 57.8852 32.8325C56.8855 31.9719 56.8355 30.4418 57.8352 29.4855Z" fill="white"/>
<path d="M59.0355 32.9765C59.3854 32.9765 59.7353 32.8809 60.0852 32.7852C60.2351 32.7374 60.3851 32.6418 60.5351 32.5462C60.685 32.4505 60.785 32.3549 60.9349 32.2114C61.1849 31.9724 61.3348 31.6855 61.4348 31.3508C61.5348 31.0161 61.5848 30.6814 61.4848 30.3467C61.6847 30.6336 61.6847 31.0161 61.6347 31.3986C61.5348 31.7333 61.3848 32.068 61.1349 32.3549C60.885 32.6418 60.5351 32.833 60.1852 32.9287C59.7353 33.0721 59.3854 33.0721 59.0355 32.9765Z" fill="white"/>
<path d="M36.2425 55.2096C37.6421 53.823 39.9414 53.823 41.391 55.1618C42.8406 56.5006 42.8406 58.7 41.441 60.0867C40.0414 61.4733 37.7421 61.4733 36.2925 60.1345C34.8429 58.7957 34.8429 56.5962 36.2425 55.2096Z" fill="white"/>
<path d="M37.9921 60.3261C38.5419 60.3261 39.0418 60.1827 39.4917 59.9914C39.7416 59.8958 39.9415 59.8001 40.1415 59.6089C40.3414 59.4654 40.5413 59.322 40.6913 59.1307C41.0412 58.796 41.2911 58.3657 41.4411 57.8876C41.591 57.4094 41.641 56.9313 41.4911 56.4531C41.791 56.8835 41.791 57.4572 41.691 57.9832C41.591 58.5091 41.2911 58.9873 40.9412 59.3698C40.5913 59.7523 40.0915 60.087 39.5416 60.2305C39.0918 60.4696 38.4919 60.4695 37.9921 60.3261Z" fill="white"/>
<path fill-rule="evenodd" clip-rule="evenodd" d="M32.4437 43.4478L34.893 53.2497C35.3929 55.2579 34.0932 57.2662 31.9939 57.7443L29.8945 58.2224C27.7951 58.7006 25.6957 57.4574 25.1958 55.4492L24.1961 51.4328C25.2958 50.7156 26.3455 49.8071 27.3452 48.7552C29.2946 47.1773 30.7442 45.7429 31.6939 44.4519C32.0438 44.0693 32.2938 43.7346 32.4437 43.4478Z" fill="white"/>
<path fill-rule="evenodd" clip-rule="evenodd" d="M23.7974 33.5024L25.8968 33.0242C27.9961 32.5461 30.0955 33.7892 30.5954 35.7974L31.4451 39.1923C31.3452 39.2401 31.2952 39.2879 31.1952 39.3357C31.1952 39.3357 30.7953 39.4313 30.2955 39.527C29.1958 39.7182 27.8462 40.0051 26.6965 40.6745C26.4966 40.4833 26.2966 40.292 26.0967 40.1008C25.3469 39.4792 24.3972 38.9054 23.3475 38.4272C23.2975 38.3794 23.1975 38.3794 23.1476 38.3794C22.3978 38.1882 21.598 38.6185 21.4481 39.3357C21.4481 39.4314 21.3981 39.527 21.3981 39.6226L20.9982 38.0447C20.3984 35.9887 21.698 33.9805 23.7974 33.5024Z" fill="white"/>
<path fill-rule="evenodd" clip-rule="evenodd" d="M17.4478 53.68L18.2976 57.027C18.7974 59.0352 17.4978 61.0434 15.3984 61.5215L13.299 61.9997C11.1996 62.4778 9.10027 61.2346 8.60041 59.2264L6.30109 50.0939C6.30109 49.9504 6.35107 49.9026 6.40106 49.807C6.45104 49.7592 6.55101 49.6635 6.70097 49.6157C10.2499 52.3411 13.8489 53.68 17.2979 53.6321L17.4478 53.68Z" fill="white"/>
<path d="M26.4452 47.7501C20.6969 53.8704 13.8989 53.7269 7.00095 48.1326C5.05153 48.6108 4.95156 49.3758 4.85159 50.7624C4.85159 50.8581 4.70163 50.9537 4.55167 50.9059C1.55255 49.7105 1.35261 45.5985 2.70222 43.7815C0.00301057 39.6217 0.902748 36.2746 2.35232 34.6489C2.60225 33.0711 2.20237 32.9276 2.15238 31.7323C2.05241 30.3456 2.60225 29.4372 3.75191 30.3456C5.1515 31.3976 5.05153 32.067 5.95126 33.4058C6.30116 33.9317 7.05094 34.4577 7.60078 34.8402C9.00037 35.8443 9.55021 36.6093 10.25 38.1394C12.9492 37.8047 15.6984 37.2309 16.948 39.8607C17.4479 40.9126 16.3482 40.7214 15.6984 40.6258C14.5487 40.4823 13.499 40.6258 12.6493 41.4386C13.9489 45.5985 19.1974 48.8499 23.5461 46.4113C25.6955 45.1681 21.8966 42.9687 22.7963 39.6695C24.6958 40.4823 26.0454 41.6299 26.4952 42.8252C27.6449 40.817 31.1938 40.9605 31.9936 40.4823C32.1936 41.9167 30.3941 44.5944 26.4452 47.7501Z" fill="white"/>
<ellipse cx="1.78659" cy="20.6488" rx="0.278904" ry="0.277656" fill="white"/>
<path d="M37.9921 60.3261C38.5419 60.3261 39.0418 60.1827 39.4917 59.9914C39.7416 59.8958 39.9415 59.8001 40.1415 59.6089C40.3414 59.4654 40.5413 59.322 40.6913 59.1307C41.0412 58.796 41.2911 58.3657 41.4411 57.8876C41.591 57.4094 41.641 56.9313 41.4911 56.4531C41.791 56.8835 41.791 57.4572 41.691 57.9832C41.591 58.5091 41.2911 58.9873 40.9412 59.3698C40.5913 59.7523 40.0915 60.087 39.5416 60.2305C39.0918 60.4696 38.4919 60.4695 37.9921 60.3261Z" fill="white"/>
<path d="M128.016 57.8396C129.515 58.6047 131.864 59.4653 133.964 57.9831C134.314 57.7918 134.064 57.6962 133.914 57.6962C132.714 57.744 130.365 56.9312 129.315 56.3096C128.965 56.8833 128.515 57.4093 128.016 57.8396Z" fill="white"/>
<path d="M125.817 59.4654C126.117 60.3739 126.517 61.617 126.467 62.7646C126.417 63.0993 126.817 63.0993 126.967 63.0515C128.816 62.1908 128.067 59.6088 127.567 58.27C126.967 58.7482 126.417 59.1307 125.817 59.4654Z" fill="white"/>
<path d="M129.816 55.6886C131.015 56.0233 134.064 56.6927 135.164 55.067C135.264 54.9235 135.314 54.4454 135.014 54.6366C133.065 54.9714 131.715 54.1107 130.915 53.2979C130.865 53.5369 130.765 53.7282 130.665 53.9673C130.415 54.5888 130.116 55.1626 129.816 55.6886Z" fill="white"/>
<path d="M106.268 50.2858C104.619 49.9033 102.219 49.186 101.62 46.7475C101.47 46.365 101.77 46.4606 101.82 46.5562C102.719 47.3213 105.069 48.1341 106.268 48.3254C106.168 48.947 106.168 49.6164 106.268 50.2858Z" fill="white"/>
<path d="M106.871 52.8681C106.021 53.3463 104.872 54.0635 104.172 55.0198C103.972 55.3545 103.672 55.0676 103.622 54.9241C102.772 53.155 105.122 51.6249 106.371 50.9077C106.471 51.5771 106.621 52.2465 106.871 52.8681Z" fill="white"/>
<path d="M106.371 47.5121C105.222 47.034 102.422 45.6474 102.722 43.7348C102.722 43.5435 103.022 43.161 103.122 43.4957C104.372 44.9301 105.971 45.1214 107.121 45.0258C107.021 45.217 106.921 45.4561 106.821 45.6952C106.621 46.3168 106.471 46.8905 106.371 47.5121Z" fill="white"/>
<path d="M112.222 39.9088C112.172 38.9047 110.473 38.2352 109.573 38.0918C108.423 39.335 108.423 41.4388 108.823 42.5386C109.723 41.4388 110.923 40.5782 112.222 39.9088Z" fill="white"/>
<path d="M111.172 37.3275C112.522 37.8056 113.072 38.5706 113.222 39.1922C114.421 38.8575 116.971 38.1403 118.87 37.4231C120.12 36.9449 121.119 36.0843 121.469 35.2236C115.121 36.7537 117.32 33.3589 122.369 31.2072C121.569 31.1116 120.07 31.1116 117.52 31.5897C113.272 32.4026 111.022 35.7018 110.223 37.0884C110.572 37.1362 110.872 37.2318 111.172 37.3275Z" fill="white"/>
<path d="M130.465 46.2677C131.165 45.5027 132.964 46.0286 133.714 46.5068C133.764 48.1803 132.364 49.806 131.315 50.3798C131.315 48.9453 131.015 47.5587 130.465 46.2677Z" fill="white"/>
<path d="M133.011 44.9305C131.661 44.4524 130.761 44.7392 130.162 45.1218C129.462 44.1177 128.012 42.0138 127.013 40.2925C126.413 39.1928 126.213 37.8539 126.513 36.9933C130.362 42.0616 130.961 38.1408 128.512 33.3594C129.212 33.7897 130.362 34.6982 131.961 36.6586C134.66 39.91 134.16 43.783 133.861 45.3608C133.561 45.1218 133.261 45.0261 133.011 44.9305Z" fill="white"/>
<path fill-rule="evenodd" clip-rule="evenodd" d="M128.765 45.8859C127.466 43.543 125.216 41.5348 122.267 40.5307C119.318 39.5266 116.269 39.6222 113.67 40.6263C111.121 41.6304 109.071 43.543 108.071 46.125C107.072 48.707 107.372 51.4324 108.671 53.7753C109.971 56.1182 112.22 58.1264 115.169 59.1306C118.118 60.1347 121.168 60.039 123.767 59.0349C126.316 58.0308 128.365 56.1182 129.365 53.5363C130.365 50.9543 130.065 48.2288 128.765 45.8859Z" fill="white"/>
<path d="M119.016 38.4266C118.416 38.2354 117.816 38.5223 117.616 39.0482C117.417 39.5264 117.616 40.0523 118.066 40.2914C118.366 40.3392 118.666 40.387 118.916 40.4348C119.266 40.3392 119.566 40.1001 119.716 39.7654C119.916 39.2395 119.616 38.6179 119.016 38.4266Z" fill="white"/>
<path d="M126.216 40.9139C125.616 40.7227 125.016 41.0096 124.816 41.5355C124.616 42.1093 124.916 42.6831 125.466 42.8743C126.066 43.0656 126.665 42.7787 126.865 42.2527C127.065 41.7268 126.765 41.153 126.216 40.9139Z" fill="white"/>
<path d="M135.163 49.9974C135.813 49.3759 136.862 49.3759 137.512 49.9974C138.162 50.619 138.162 51.6231 137.512 52.2447C136.862 52.8663 135.813 52.8663 135.163 52.2447C134.513 51.6231 134.513 50.619 135.163 49.9974Z" fill="white"/>
<path d="M135.961 52.3404C136.211 52.3404 136.411 52.2926 136.661 52.197C136.761 52.1492 136.861 52.1014 136.961 52.0535C137.061 52.0057 137.16 51.9101 137.21 51.8145C137.36 51.671 137.46 51.4798 137.56 51.2407C137.61 51.0494 137.66 50.8104 137.61 50.5713C137.76 50.7625 137.76 51.0494 137.71 51.2407C137.66 51.4798 137.56 51.7188 137.36 51.8623C137.21 52.0535 136.961 52.197 136.711 52.2448C136.461 52.3882 136.211 52.3882 135.961 52.3404Z" fill="white"/>
<path d="M124.816 30.4895C125.916 29.8201 127.315 30.107 128.015 31.1589C128.715 32.2108 128.415 33.5496 127.315 34.219C126.216 34.8885 124.816 34.6016 124.116 33.5496C123.466 32.5455 123.766 31.1589 124.816 30.4895Z" fill="white"/>
<path d="M125.164 33.9321C125.514 33.9799 125.814 33.9799 126.164 33.9321C126.314 33.8843 126.464 33.8364 126.614 33.7886C126.763 33.7408 126.913 33.6452 127.013 33.5496C127.263 33.3583 127.513 33.1192 127.663 32.8802C127.813 32.5933 127.913 32.3064 127.913 31.9717C128.013 32.3064 127.963 32.6411 127.813 32.928C127.663 33.2149 127.413 33.5018 127.113 33.693C126.813 33.8843 126.464 34.0277 126.114 34.0277C125.864 34.1233 125.464 34.0755 125.164 33.9321Z" fill="white"/>
<path d="M100.775 34.8409C101.924 33.6933 103.824 33.6933 105.023 34.793C106.223 35.8928 106.223 37.7097 105.073 38.8573C103.924 40.0048 102.024 40.0048 100.825 38.9051C99.625 37.8054 99.6251 35.9884 100.775 34.8409Z" fill="white"/>
<path d="M102.223 39.0484C102.672 39.0484 103.072 38.9528 103.472 38.8093C103.672 38.7137 103.822 38.6181 104.022 38.5224C104.172 38.4268 104.322 38.2834 104.472 38.1399C104.772 37.853 104.972 37.5183 105.072 37.1358C105.172 36.7533 105.272 36.3708 105.122 35.9404C105.372 36.3229 105.372 36.7533 105.272 37.1836C105.172 37.6139 104.972 37.9965 104.672 38.3312C104.372 38.6659 103.972 38.9049 103.522 39.0484C103.122 39.144 102.672 39.1918 102.223 39.0484Z" fill="white"/>
<path d="M76.9326 39.5749C77.8824 38.6186 79.4819 38.6186 80.4816 39.5271C81.4813 40.4355 81.4813 41.9656 80.5316 42.9219C79.5819 43.8782 77.9823 43.8782 76.9826 42.9697C75.9829 42.0134 75.9829 40.5312 76.9326 39.5749Z" fill="white"/>
<path d="M78.1327 43.0653C78.4826 43.0653 78.8325 42.9697 79.1824 42.8741C79.3324 42.8263 79.4823 42.7306 79.6323 42.635C79.7822 42.5394 79.8822 42.4438 80.0321 42.3003C80.2821 42.0612 80.432 41.7743 80.532 41.4396C80.632 41.1049 80.682 40.7702 80.582 40.4355C80.7819 40.7224 80.7819 41.1528 80.7319 41.4875C80.632 41.8222 80.482 42.1569 80.2321 42.4438C79.9822 42.7306 79.6323 42.9219 79.2824 43.0175C78.8825 43.161 78.5326 43.161 78.1327 43.0653Z" fill="white"/>
<path d="M121.019 62.2865C121.669 61.6649 122.719 61.6649 123.369 62.2865C124.019 62.9081 124.019 63.9122 123.369 64.5338C122.719 65.1554 121.669 65.1554 121.019 64.5338C120.42 63.9122 120.37 62.9081 121.019 62.2865Z" fill="white"/>
<path d="M121.82 64.6295C122.07 64.6295 122.27 64.5817 122.52 64.486C122.62 64.4382 122.72 64.3904 122.82 64.3426C122.92 64.2948 123.02 64.1992 123.07 64.1035C123.22 63.9601 123.32 63.7688 123.42 63.5298C123.47 63.3385 123.52 63.0994 123.47 62.8604C123.62 63.0516 123.62 63.3385 123.57 63.5298C123.52 63.7688 123.42 64.0079 123.22 64.1513C123.07 64.3426 122.82 64.486 122.57 64.5339C122.32 64.6773 122.07 64.6773 121.82 64.6295Z" fill="white"/>
<path d="M121.82 64.6295C122.07 64.6295 122.27 64.5817 122.52 64.486C122.62 64.4382 122.72 64.3904 122.82 64.3426C122.92 64.2948 123.02 64.1992 123.07 64.1035C123.22 63.9601 123.32 63.7688 123.42 63.5298C123.47 63.3385 123.52 63.0994 123.47 62.8604C123.62 63.0516 123.62 63.3385 123.57 63.5298C123.52 63.7688 123.42 64.0079 123.22 64.1513C123.07 64.3426 122.82 64.486 122.57 64.5339C122.32 64.6773 122.07 64.6773 121.82 64.6295Z" fill="white"/>
<path d="M97.8775 50.9069C98.8772 49.9506 100.477 49.9506 101.476 50.8591C102.476 51.8154 102.476 53.3455 101.526 54.3017C100.527 55.258 98.9272 55.258 97.9275 54.3495C96.9278 53.3933 96.8778 51.8632 97.8775 50.9069Z" fill="white"/>
<path fill-rule="evenodd" clip-rule="evenodd" d="M68.7333 52.8192C72.6322 63.0515 83.329 60.2305 87.0779 52.2933C87.5778 54.2058 88.5275 56.2141 89.7771 57.0747C91.5266 58.2701 93.576 57.7441 95.2755 56.5487C97.125 60.2305 102.373 58.4135 102.723 54.3971C102.024 55.2099 101.024 56.0706 99.1744 55.975C97.5748 55.8794 96.0253 54.7796 95.5254 52.2933C95.3755 52.3411 94.6257 52.6758 94.0259 52.8192C93.4261 52.9627 92.8262 52.9148 92.3264 52.7236C91.4266 52.3411 90.6269 51.1935 90.7269 49.3766C90.8268 47.7509 91.5766 46.6033 92.4763 46.2686C94.0759 45.647 94.5757 46.4599 95.5254 47.1293C94.9256 39.2877 90.177 39.0486 87.3778 40.9134C82.5792 44.117 82.0794 51.1935 76.9309 51.1457C68.4334 51.0979 72.3823 31.9243 82.4793 36.8014C80.6798 30.2508 73.9318 29.3423 70.6328 31.8765C60.9356 39.2399 68.8833 56.5966 49.539 56.0706C58.6863 63.3384 67.1838 57.3616 68.7333 52.8192Z" fill="white"/>
<path d="M99.074 54.4926C99.4239 54.4926 99.8238 54.3969 100.124 54.2535C100.274 54.2057 100.424 54.11 100.574 54.0144C100.724 53.9188 100.824 53.8232 100.973 53.6797C101.223 53.4406 101.373 53.1538 101.473 52.8191C101.573 52.4843 101.623 52.1496 101.523 51.8149C101.723 52.1018 101.773 52.5322 101.673 52.8669C101.573 53.2494 101.423 53.5841 101.123 53.871C100.873 54.1579 100.524 54.3491 100.174 54.4926C99.8738 54.5404 99.4739 54.5882 99.074 54.4926Z" fill="white"/>
</svg>
