<svg width="24" height="24" viewBox="0 0 24 24" fill="none" xmlns="http://www.w3.org/2000/svg">
<path d="M17.5481 1.00479L14.6699 1C11.4362 1 9.34653 3.22168 9.34653 6.66033V9.27012H6.45258C6.20251 9.27012 6 9.48021 6 9.73934V13.5206C6 13.7798 6.20274 13.9896 6.45258 13.9896H9.34653V23.531C9.34653 23.7902 9.54904 24 9.79911 24H13.5749C13.825 24 14.0275 23.7899 14.0275 23.531V13.9896H17.4112C17.6613 13.9896 17.8638 13.7798 17.8638 13.5206L17.8651 9.73934C17.8651 9.61492 17.8174 9.49576 17.7326 9.40771C17.6479 9.31965 17.5324 9.27012 17.4123 9.27012H14.0275V7.05777C14.0275 5.99442 14.272 5.45462 15.6087 5.45462L17.5477 5.4539C17.7975 5.4539 18 5.24381 18 4.98492V1.47377C18 1.21511 17.7977 1.00526 17.5481 1.00479Z" fill="white"/>
</svg>
