<svg width="24" height="24" viewBox="0 0 24 24" fill="none" xmlns="http://www.w3.org/2000/svg">
<path fill-rule="evenodd" clip-rule="evenodd" d="M7.38 1H16.62C20.14 1 23 3.94821 23 7.57679V17.1018C23 20.734 20.1436 23.6786 16.62 23.6786H7.38C3.86 23.6786 1 20.7304 1 17.1018V7.57679C1 3.94453 3.85642 1 7.38 1ZM7.16011 3.26961C4.97307 3.26961 3.20011 5.09724 3.20011 7.35175V17.3303C3.20011 19.5868 4.97111 21.4125 7.16011 21.4125H16.8401C19.0272 21.4125 20.8001 19.5848 20.8001 17.3303V7.35175C20.8001 5.09523 19.0291 3.26961 16.8401 3.26961H7.16011ZM19.1499 6.38802C19.1499 5.6052 18.5343 4.97061 17.7749 4.97061C17.0155 4.97061 16.3999 5.6052 16.3999 6.38802C16.3999 7.17083 17.0155 7.80543 17.7749 7.80543C18.5343 7.80543 19.1499 7.17083 19.1499 6.38802ZM11.9999 6.67161C15.0374 6.67161 17.4999 9.21 17.4999 12.3413C17.4999 15.4725 15.0374 18.0109 11.9999 18.0109C8.96228 18.0109 6.49985 15.4725 6.49985 12.3413C6.49985 9.21 8.96228 6.67161 11.9999 6.67161ZM8.69996 12.3408C8.69996 10.4621 10.1774 8.93903 12 8.93903C13.8225 8.93903 15.3 10.4621 15.3 12.3408C15.3 14.2196 13.8225 15.7426 12 15.7426C10.1774 15.7426 8.69996 14.2196 8.69996 12.3408Z" fill="white"/>
</svg>
