<svg width="37" height="36" viewBox="0 0 37 36" fill="none" xmlns="http://www.w3.org/2000/svg">
<rect x="0.617004" width="36" height="36" rx="4" fill="#00E676"/>
<g clip-path="url(#clip0)">
<path d="M24.3776 19.7904C24.3308 19.768 22.5812 18.9064 22.2702 18.7945C22.1433 18.7489 22.0073 18.7044 21.8627 18.7044C21.6265 18.7044 21.428 18.8222 21.2734 19.0535C21.0986 19.3132 20.5695 19.9317 20.406 20.1165C20.3847 20.1409 20.3555 20.17 20.3381 20.17C20.3224 20.17 20.0517 20.0585 19.9697 20.0229C18.0928 19.2076 16.6681 17.247 16.4728 16.9164C16.4449 16.8688 16.4437 16.8472 16.4435 16.8472C16.4503 16.8221 16.5134 16.7588 16.546 16.7262C16.6413 16.6319 16.7446 16.5076 16.8445 16.3874C16.8918 16.3304 16.9391 16.2734 16.9857 16.2196C17.1306 16.051 17.1951 15.9201 17.2699 15.7684L17.3091 15.6896C17.4918 15.3268 17.3358 15.0205 17.2853 14.9216C17.244 14.8389 16.5052 13.0559 16.4266 12.8685C16.2378 12.4165 15.9882 12.2061 15.6413 12.2061C15.6092 12.2061 15.6413 12.2061 15.5064 12.2117C15.342 12.2187 14.4471 12.3365 14.0514 12.5859C13.6318 12.8505 12.9219 13.6937 12.9219 15.1768C12.9219 16.5115 13.7689 17.7717 14.1326 18.251C14.1417 18.2631 14.1582 18.2876 14.1823 18.3229C15.575 20.3568 17.3112 21.8641 19.0712 22.5672C20.7657 23.244 21.568 23.3223 22.0242 23.3223C22.0242 23.3223 22.0242 23.3223 22.0242 23.3223C22.2159 23.3223 22.3694 23.3072 22.5047 23.2939L22.5906 23.2857C23.1759 23.2338 24.4623 22.5673 24.7549 21.7542C24.9854 21.1137 25.0461 20.414 24.8928 20.16C24.7878 19.9873 24.6067 19.9005 24.3776 19.7904Z" fill="white"/>
<path d="M18.8303 6C12.3303 6 7.04222 11.2484 7.04222 17.6995C7.04222 19.786 7.60061 21.8284 8.6584 23.6159L6.63375 29.5883C6.59604 29.6996 6.62409 29.8227 6.70645 29.9066C6.76591 29.9673 6.84656 30 6.92892 30C6.96048 30 6.99227 29.9952 7.02328 29.9854L13.2508 28.0064C14.955 28.917 16.881 29.3976 18.8303 29.3976C25.3297 29.3977 30.6172 24.1498 30.6172 17.6995C30.6172 11.2484 25.3297 6 18.8303 6ZM18.8303 26.9606C16.9961 26.9606 15.2195 26.4309 13.6924 25.4289C13.641 25.3951 13.5814 25.3778 13.5214 25.3778C13.4897 25.3778 13.4579 25.3826 13.427 25.3925L10.3074 26.3841L11.3145 23.413C11.347 23.3169 11.3307 23.2108 11.2707 23.1288C10.1078 21.5398 9.4931 19.6625 9.4931 17.6995C9.4931 12.5922 13.6817 8.43709 18.8302 8.43709C23.978 8.43709 28.1662 12.5922 28.1662 17.6995C28.1663 22.8061 23.9782 26.9606 18.8303 26.9606Z" fill="white"/>
</g>
<defs>
<clipPath id="clip0">
<rect width="24" height="24" fill="white" transform="translate(6.617 6)"/>
</clipPath>
</defs>
</svg>
